999
"DXF R12 Output" (www.mydxf.blogspot.com)
 0 
SECTION
 2 
HEADER
 9 
$ACADVER
 1 
AC1009
 9 
$EXTMIN
 10 
 0 
 20 
 0 
 9 
$EXTMAX
 10 
 8.5 
 20 
 11 
 0 
ENDSEC
 0 
SECTION
 2 
ENTITIES
0
LINE
8
Image
10
236.512453
20
120.209742
11
231.601583
21
120.688997
0
LINE
8
Image
10
231.601583
20
120.688997
11
225.584662
21
121.266492
0
LINE
8
Image
10
225.584662
20
121.266492
11
221.027728
21
121.704673
0
LINE
8
Image
10
221.027728
20
121.704673
11
215.541710
21
122.236943
0
LINE
8
Image
10
215.541710
20
122.236943
11
212.312041
21
122.545687
0
LINE
8
Image
10
212.312041
20
122.545687
11
200.906672
21
123.737980
0
LINE
8
Image
10
200.906672
20
123.737980
11
199.113112
21
124.288405
0
LINE
8
Image
10
199.113112
20
124.288405
11
197.509039
21
125.050283
0
LINE
8
Image
10
197.509039
20
125.050283
11
196.007145
21
126.073802
0
LINE
8
Image
10
196.007145
20
126.073802
11
194.520122
21
127.409146
0
LINE
8
Image
10
194.520122
20
127.409146
11
193.132483
21
128.928236
0
LINE
8
Image
10
193.132483
20
128.928236
11
191.187406
21
131.441383
0
LINE
8
Image
10
191.187406
20
131.441383
11
189.426272
21
133.630760
0
LINE
8
Image
10
189.426272
20
133.630760
11
188.212091
21
134.738564
0
LINE
8
Image
10
188.212091
20
134.738564
11
187.607696
21
135.066833
0
LINE
8
Image
10
187.607696
20
135.066833
11
186.098635
21
135.229598
0
LINE
8
Image
10
186.098635
20
135.229598
11
174.216589
21
135.309483
0
LINE
8
Image
10
174.216589
20
135.309483
11
161.566387
21
135.334672
0
LINE
8
Image
10
161.566387
20
135.334672
11
160.814275
21
135.588235
0
LINE
8
Image
10
160.814275
20
135.588235
11
159.144605
21
136.384000
0
LINE
8
Image
10
159.144605
20
136.384000
11
157.867940
21
137.577076
0
LINE
8
Image
10
157.867940
20
137.577076
11
156.863059
21
139.068785
0
LINE
8
Image
10
156.863059
20
139.068785
11
156.095826
21
140.970136
0
LINE
8
Image
10
156.095826
20
140.970136
11
155.733612
21
142.182517
0
LINE
8
Image
10
155.733612
20
142.182517
11
155.560432
21
145.628240
0
LINE
8
Image
10
155.560432
20
145.628240
11
155.504158
21
175.285985
0
LINE
8
Image
10
155.504158
20
175.285985
11
155.598537
21
207.538457
0
LINE
8
Image
10
155.598537
20
207.538457
11
156.147904
21
209.507571
0
LINE
8
Image
10
156.147904
20
209.507571
11
157.008554
21
211.217853
0
LINE
8
Image
10
157.008554
20
211.217853
11
158.110367
21
212.560225
0
LINE
8
Image
10
158.110367
20
212.560225
11
159.383222
21
213.425609
0
LINE
8
Image
10
159.383222
20
213.425609
11
160.181256
21
213.689609
0
LINE
8
Image
10
160.181256
20
213.689609
11
162.451451
21
213.818192
0
LINE
8
Image
10
162.451451
20
213.818192
11
180.059571
21
213.844261
0
LINE
8
Image
10
180.059571
20
213.844261
11
198.995179
21
213.819311
0
LINE
8
Image
10
198.995179
20
213.819311
11
199.645735
21
213.617810
0
LINE
8
Image
10
199.645735
20
213.617810
11
200.717941
21
213.187164
0
LINE
8
Image
10
200.717941
20
213.187164
11
201.624460
21
212.592087
0
LINE
8
Image
10
201.624460
20
212.592087
11
202.419925
21
211.787655
0
LINE
8
Image
10
202.419925
20
211.787655
11
203.158964
21
210.728947
0
LINE
8
Image
10
203.158964
20
210.728947
11
203.811149
21
209.471997
0
LINE
8
Image
10
203.811149
20
209.471997
11
204.627558
21
207.449266
0
LINE
8
Image
10
204.627558
20
207.449266
11
205.637654
21
205.302567
0
LINE
8
Image
10
205.637654
20
205.302567
11
206.139422
21
204.684135
0
LINE
8
Image
10
206.139422
20
204.684135
11
206.691676
21
204.288322
0
LINE
8
Image
10
206.691676
20
204.288322
11
207.358661
21
204.059832
0
LINE
8
Image
10
207.358661
20
204.059832
11
208.654935
21
203.932981
0
LINE
8
Image
10
208.654935
20
203.932981
11
215.633872
21
203.866278
0
LINE
8
Image
10
215.633872
20
203.866278
11
222.550705
21
203.926262
0
LINE
8
Image
10
222.550705
20
203.926262
11
224.109678
21
204.049252
0
LINE
8
Image
10
224.109678
20
204.049252
11
225.405118
21
204.276384
0
LINE
8
Image
10
225.405118
20
204.276384
11
227.385738
21
204.850257
0
LINE
8
Image
10
227.385738
20
204.850257
11
229.174117
21
205.711046
0
LINE
8
Image
10
229.174117
20
205.711046
11
230.731503
21
206.835752
0
LINE
8
Image
10
230.731503
20
206.835752
11
232.019143
21
208.201378
0
LINE
8
Image
10
232.019143
20
208.201378
11
233.031798
21
209.690752
0
LINE
8
Image
10
233.031798
20
209.690752
11
234.060052
21
211.652262
0
LINE
8
Image
10
234.060052
20
211.652262
11
235.320686
21
214.262546
0
LINE
8
Image
10
235.320686
20
214.262546
11
236.364454
21
216.095784
0
LINE
8
Image
10
236.364454
20
216.095784
11
237.504157
21
217.470339
0
LINE
8
Image
10
237.504157
20
217.470339
11
238.755426
21
218.401280
0
LINE
8
Image
10
238.755426
20
218.401280
11
240.133888
21
218.903678
0
LINE
8
Image
10
240.133888
20
218.903678
11
244.299059
21
219.696612
0
LINE
8
Image
10
244.299059
20
219.696612
11
251.200823
21
220.943314
0
LINE
8
Image
10
251.200823
20
220.943314
11
253.899594
21
221.429512
0
LINE
8
Image
10
253.899594
20
221.429512
11
257.130344
21
222.064371
0
LINE
8
Image
10
257.130344
20
222.064371
11
259.522165
21
222.755440
0
LINE
8
Image
10
259.522165
20
222.755440
11
261.096976
21
223.411550
0
LINE
8
Image
10
261.096976
20
223.411550
11
262.479122
21
224.196870
0
LINE
8
Image
10
262.479122
20
224.196870
11
263.919243
21
225.277069
0
LINE
8
Image
10
263.919243
20
225.277069
11
265.667976
21
226.817816
0
LINE
8
Image
10
265.667976
20
226.817816
11
266.818277
21
227.800265
0
LINE
8
Image
10
266.818277
20
227.800265
11
267.614645
21
228.462586
0
LINE
8
Image
10
267.614645
20
228.462586
11
268.770820
21
229.393333
0
LINE
8
Image
10
268.770820
20
229.393333
11
270.590278
21
230.764833
0
LINE
8
Image
10
270.590278
20
230.764833
11
272.244503
21
231.991051
0
LINE
8
Image
10
272.244503
20
231.991051
11
273.635125
21
232.964383
0
LINE
8
Image
10
273.635125
20
232.964383
11
279.487000
21
237.018987
0
LINE
8
Image
10
279.487000
20
237.018987
11
283.055100
21
239.082291
0
LINE
8
Image
10
283.055100
20
239.082291
11
285.886419
21
240.242566
0
LINE
8
Image
10
285.886419
20
240.242566
11
287.059573
21
240.512039
0
LINE
8
Image
10
287.059573
20
240.512039
11
288.146656
21
240.596883
0
LINE
8
Image
10
288.146656
20
240.596883
11
289.297089
21
240.498180
0
LINE
8
Image
10
289.297089
20
240.498180
11
290.326952
21
240.123859
0
LINE
8
Image
10
290.326952
20
240.123859
11
290.929679
21
239.760734
0
LINE
8
Image
10
290.929679
20
239.760734
11
291.604653
21
239.131457
0
LINE
8
Image
10
291.604653
20
239.131457
11
293.981161
21
236.206300
0
LINE
8
Image
10
293.981161
20
236.206300
11
298.407423
21
230.499382
0
LINE
8
Image
10
298.407423
20
230.499382
11
301.041611
21
227.078935
0
LINE
8
Image
10
301.041611
20
227.078935
11
301.631915
21
226.103181
0
LINE
8
Image
10
301.631915
20
226.103181
11
302.067470
21
225.072343
0
LINE
8
Image
10
302.067470
20
225.072343
11
302.347926
21
223.994805
0
LINE
8
Image
10
302.347926
20
223.994805
11
302.472936
21
222.878953
0
LINE
8
Image
10
302.472936
20
222.878953
11
302.442152
21
221.733170
0
LINE
8
Image
10
302.442152
20
221.733170
11
302.255225
21
220.565842
0
LINE
8
Image
10
302.255225
20
220.565842
11
301.411551
21
218.200086
0
LINE
8
Image
10
301.411551
20
218.200086
11
300.302796
21
216.343115
0
LINE
8
Image
10
300.302796
20
216.343115
11
298.855150
21
214.656385
0
LINE
8
Image
10
298.855150
20
214.656385
11
296.195033
21
212.185402
0
LINE
8
Image
10
296.195033
20
212.185402
11
293.375413
21
209.536295
0
LINE
8
Image
10
293.375413
20
209.536295
11
291.583011
21
207.608149
0
LINE
8
Image
10
291.583011
20
207.608149
11
290.484390
21
205.992222
0
LINE
8
Image
10
290.484390
20
205.992222
11
289.746113
21
204.279765
0
LINE
8
Image
10
289.746113
20
204.279765
11
289.204774
21
202.452396
0
LINE
8
Image
10
289.204774
20
202.452396
11
288.867291
21
200.522913
0
LINE
8
Image
10
288.867291
20
200.522913
11
288.708288
21
198.277892
0
LINE
8
Image
10
288.708288
20
198.277892
11
288.702386
21
195.503907
0
LINE
8
Image
10
288.702386
20
195.503907
11
288.796869
21
192.583924
0
LINE
8
Image
10
288.796869
20
192.583924
11
288.887118
21
191.654841
0
LINE
8
Image
10
288.887118
20
191.654841
11
289.291851
21
186.965184
0
LINE
8
Image
10
289.291851
20
186.965184
11
290.544238
21
172.259503
0
LINE
8
Image
10
290.544238
20
172.259503
11
290.769335
21
165.684755
0
LINE
8
Image
10
290.769335
20
165.684755
11
290.702065
21
159.309202
0
LINE
8
Image
10
290.702065
20
159.309202
11
290.174976
21
153.518181
0
LINE
8
Image
10
290.174976
20
153.518181
11
288.587134
21
140.289803
0
LINE
8
Image
10
288.587134
20
140.289803
11
287.122826
21
128.698380
0
LINE
8
Image
10
287.122826
20
128.698380
11
286.460317
21
127.106315
0
LINE
8
Image
10
286.460317
20
127.106315
11
285.409783
21
125.731513
0
LINE
8
Image
10
285.409783
20
125.731513
11
284.561426
21
125.009480
0
LINE
8
Image
10
284.561426
20
125.009480
11
283.598802
21
124.434550
0
LINE
8
Image
10
283.598802
20
124.434550
11
282.450336
21
123.971535
0
LINE
8
Image
10
282.450336
20
123.971535
11
281.044455
21
123.585245
0
LINE
8
Image
10
281.044455
20
123.585245
11
280.304319
21
123.475095
0
LINE
8
Image
10
280.304319
20
123.475095
11
278.219585
21
123.413618
0
LINE
8
Image
10
278.219585
20
123.413618
11
263.455876
21
123.348310
0
LINE
8
Image
10
263.455876
20
123.348310
11
246.555407
21
123.217300
0
LINE
8
Image
10
246.555407
20
123.217300
11
245.228142
21
122.192223
0
LINE
8
Image
10
245.228142
20
122.192223
11
243.112254
21
120.818868
0
LINE
8
Image
10
243.112254
20
120.818868
11
241.864689
21
120.303259
0
LINE
8
Image
10
241.864689
20
120.303259
11
240.537823
21
120.047310
0
LINE
8
Image
10
240.537823
20
120.047310
11
238.848222
21
120.024858
0
LINE
8
Image
10
238.848222
20
120.024858
11
236.512453
21
120.209742
0
LINE
8
Image
10
236.512453
20
120.209742
11
236.512453
21
120.209742
0
LINE
8
Image
10
240.160216
20
124.454289
11
235.508117
21
126.006597
0
LINE
8
Image
10
235.508117
20
126.006597
11
232.531516
21
127.227082
0
LINE
8
Image
10
232.531516
20
127.227082
11
231.549429
21
127.775972
0
LINE
8
Image
10
231.549429
20
127.775972
11
230.835240
21
128.355245
0
LINE
8
Image
10
230.835240
20
128.355245
11
230.336767
21
129.018362
0
LINE
8
Image
10
230.336767
20
129.018362
11
230.001826
21
129.818786
0
LINE
8
Image
10
230.001826
20
129.818786
11
229.613808
21
132.045402
0
LINE
8
Image
10
229.613808
20
132.045402
11
229.168968
21
139.437073
0
LINE
8
Image
10
229.168968
20
139.437073
11
229.168438
21
139.911600
0
LINE
8
Image
10
229.168438
20
139.911600
11
230.362970
21
140.161224
0
LINE
8
Image
10
230.362970
20
140.161224
11
233.605003
21
141.020960
0
LINE
8
Image
10
233.605003
20
141.020960
11
236.560631
21
142.205892
0
LINE
8
Image
10
236.560631
20
142.205892
11
237.670451
21
142.732767
0
LINE
8
Image
10
237.670451
20
142.732767
11
239.524849
21
142.414318
0
LINE
8
Image
10
239.524849
20
142.414318
11
243.392263
21
141.658328
0
LINE
8
Image
10
243.392263
20
141.658328
11
245.488098
21
140.978886
0
LINE
8
Image
10
245.488098
20
140.978886
11
246.172158
21
140.577641
0
LINE
8
Image
10
246.172158
20
140.577641
11
246.735220
21
140.047295
0
LINE
8
Image
10
246.735220
20
140.047295
11
247.714744
21
138.343158
0
LINE
8
Image
10
247.714744
20
138.343158
11
248.961819
21
134.582576
0
LINE
8
Image
10
248.961819
20
134.582576
11
249.256595
21
132.894678
0
LINE
8
Image
10
249.256595
20
132.894678
11
249.090424
21
131.547439
0
LINE
8
Image
10
249.090424
20
131.547439
11
247.699147
21
129.538981
0
LINE
8
Image
10
247.699147
20
129.538981
11
245.657922
21
127.393992
0
LINE
8
Image
10
245.657922
20
127.393992
11
244.930481
21
126.855154
0
LINE
8
Image
10
244.930481
20
126.855154
11
243.732833
21
126.079119
0
LINE
8
Image
10
243.732833
20
126.079119
11
242.715268
21
125.313273
0
LINE
8
Image
10
242.715268
20
125.313273
11
242.308331
21
125.003248
0
LINE
8
Image
10
242.308331
20
125.003248
11
241.593615
21
124.533560
0
LINE
8
Image
10
241.593615
20
124.533560
11
241.017566
21
124.326733
0
LINE
8
Image
10
241.017566
20
124.326733
11
240.160386
21
124.454289
0
LINE
8
Image
10
240.160386
20
124.454289
11
240.160216
21
124.454289
0
LINE
8
Image
10
219.700463
20
125.827466
11
215.762923
21
126.214160
0
LINE
8
Image
10
215.762923
20
126.214160
11
212.011480
21
126.577990
0
LINE
8
Image
10
212.011480
20
126.577990
11
209.720030
21
126.803108
0
LINE
8
Image
10
209.720030
20
126.803108
11
208.604844
21
127.721087
0
LINE
8
Image
10
208.604844
20
127.721087
11
207.111148
21
129.028370
0
LINE
8
Image
10
207.111148
20
129.028370
11
206.146075
21
130.084009
0
LINE
8
Image
10
206.146075
20
130.084009
11
205.626074
21
130.998865
0
LINE
8
Image
10
205.626074
20
130.998865
11
205.467591
21
131.883803
0
LINE
8
Image
10
205.467591
20
131.883803
11
205.561082
21
132.712713
0
LINE
8
Image
10
205.561082
20
132.712713
11
205.925127
21
133.773581
0
LINE
8
Image
10
205.925127
20
133.773581
11
207.907977
21
137.635276
0
LINE
8
Image
10
207.907977
20
137.635276
11
209.715132
21
140.695496
0
LINE
8
Image
10
209.715132
20
140.695496
11
210.546134
21
141.633653
0
LINE
8
Image
10
210.546134
20
141.633653
11
211.453694
21
142.320131
0
LINE
8
Image
10
211.453694
20
142.320131
11
212.351247
21
142.601022
0
LINE
8
Image
10
212.351247
20
142.601022
11
213.329608
21
142.250903
0
LINE
8
Image
10
213.329608
20
142.250903
11
215.691290
21
141.250324
0
LINE
8
Image
10
215.691290
20
141.250324
11
218.308652
21
140.457729
0
LINE
8
Image
10
218.308652
20
140.457729
11
221.024653
21
139.912511
0
LINE
8
Image
10
221.024653
20
139.912511
11
223.682252
21
139.654063
0
LINE
8
Image
10
223.682252
20
139.654063
11
224.980457
21
139.549243
0
LINE
8
Image
10
224.980457
20
139.549243
11
225.132720
21
138.298917
0
LINE
8
Image
10
225.132720
20
138.298917
11
225.449502
21
131.662598
0
LINE
8
Image
10
225.449502
20
131.662598
11
225.361015
21
129.286766
0
LINE
8
Image
10
225.361015
20
129.286766
11
224.911692
21
127.936487
0
LINE
8
Image
10
224.911692
20
127.936487
11
224.409717
21
127.225262
0
LINE
8
Image
10
224.409717
20
127.225262
11
223.660193
21
126.443201
0
LINE
8
Image
10
223.660193
20
126.443201
11
222.903952
21
125.815746
0
LINE
8
Image
10
222.903952
20
125.815746
11
222.381829
21
125.568339
0
LINE
8
Image
10
222.381829
20
125.568339
11
219.700463
21
125.827466
0
LINE
8
Image
10
219.700463
20
125.827466
11
219.700463
21
125.827466
0
LINE
8
Image
10
262.748019
20
131.305366
11
256.067452
21
132.696192
0
LINE
8
Image
10
256.067452
20
132.696192
11
254.234023
21
133.449186
0
LINE
8
Image
10
254.234023
20
133.449186
11
253.628137
21
133.945825
0
LINE
8
Image
10
253.628137
20
133.945825
11
253.155060
21
134.570442
0
LINE
8
Image
10
253.155060
20
134.570442
11
252.647868
21
135.595388
0
LINE
8
Image
10
252.647868
20
135.595388
11
251.892705
21
137.723756
0
LINE
8
Image
10
251.892705
20
137.723756
11
251.168916
21
140.005959
0
LINE
8
Image
10
251.168916
20
140.005959
11
250.845142
21
141.560049
0
LINE
8
Image
10
250.845142
20
141.560049
11
250.884849
21
142.737308
0
LINE
8
Image
10
250.884849
20
142.737308
11
251.251501
21
143.889018
0
LINE
8
Image
10
251.251501
20
143.889018
11
252.882235
21
146.970357
0
LINE
8
Image
10
252.882235
20
146.970357
11
253.297088
21
147.678231
0
LINE
8
Image
10
253.297088
20
147.678231
11
254.261952
21
149.301218
0
LINE
8
Image
10
254.261952
20
149.301218
11
255.205327
21
150.446454
0
LINE
8
Image
10
255.205327
20
150.446454
11
256.042065
21
151.104885
0
LINE
8
Image
10
256.042065
20
151.104885
11
257.356746
21
151.551910
0
LINE
8
Image
10
257.356746
20
151.551910
11
259.742456
21
151.917825
0
LINE
8
Image
10
259.742456
20
151.917825
11
263.792278
21
152.332926
0
LINE
8
Image
10
263.792278
20
152.332926
11
266.373460
21
152.491612
0
LINE
8
Image
10
266.373460
20
152.491612
11
266.716809
21
150.952141
0
LINE
8
Image
10
266.716809
20
150.952141
11
268.010514
21
144.006136
0
LINE
8
Image
10
268.010514
20
144.006136
11
268.589104
21
140.820708
0
LINE
8
Image
10
268.589104
20
140.820708
11
268.987550
21
138.273771
0
LINE
8
Image
10
268.987550
20
138.273771
11
269.114004
21
136.618701
0
LINE
8
Image
10
269.114004
20
136.618701
11
268.965274
21
135.449798
0
LINE
8
Image
10
268.965274
20
135.449798
11
268.538172
21
134.361363
0
LINE
8
Image
10
268.538172
20
134.361363
11
267.379609
21
132.263129
0
LINE
8
Image
10
267.379609
20
132.263129
11
266.887462
21
131.643959
0
LINE
8
Image
10
266.887462
20
131.643959
11
266.439764
21
131.291455
0
LINE
8
Image
10
266.439764
20
131.291455
11
265.866271
21
131.115881
0
LINE
8
Image
10
265.866271
20
131.115881
11
265.052957
21
131.059702
0
LINE
8
Image
10
265.052957
20
131.059702
11
262.748019
21
131.305372
0
LINE
8
Image
10
262.748019
20
131.305372
11
262.748019
21
131.305366
0
LINE
8
Image
10
201.397026
20
134.183013
11
201.568891
21
136.667194
0
LINE
8
Image
10
201.568891
20
136.667194
11
201.547482
21
137.612770
0
LINE
8
Image
10
201.547482
20
137.612770
11
201.307171
21
138.597391
0
LINE
8
Image
10
201.307171
20
138.597391
11
200.876701
21
139.538537
0
LINE
8
Image
10
200.876701
20
139.538537
11
200.284815
21
140.353684
0
LINE
8
Image
10
200.284815
20
140.353684
11
199.253524
21
141.181128
0
LINE
8
Image
10
199.253524
20
141.181128
11
198.014151
21
141.698515
0
LINE
8
Image
10
198.014151
20
141.698515
11
196.679592
21
141.875394
0
LINE
8
Image
10
196.679592
20
141.875394
11
195.362745
21
141.681314
0
LINE
8
Image
10
195.362745
20
141.681314
11
191.827967
21
139.981088
0
LINE
8
Image
10
191.827967
20
139.981088
11
190.568821
21
139.418606
0
LINE
8
Image
10
190.568821
20
139.418606
11
190.132937
21
139.268901
0
LINE
8
Image
10
190.132937
20
139.268901
11
189.887204
21
139.324580
0
LINE
8
Image
10
189.887204
20
139.324580
11
189.441301
21
140.603892
0
LINE
8
Image
10
189.441301
20
140.603892
11
188.775330
21
142.855838
0
LINE
8
Image
10
188.775330
20
142.855838
11
186.829298
21
149.880289
0
LINE
8
Image
10
186.829298
20
149.880289
11
186.815275
21
151.635480
0
LINE
8
Image
10
186.815275
20
151.635480
11
187.347467
21
152.429830
0
LINE
8
Image
10
187.347467
20
152.429830
11
188.132128
21
153.246888
0
LINE
8
Image
10
188.132128
20
153.246888
11
189.254779
21
153.763293
0
LINE
8
Image
10
189.254779
20
153.763293
11
190.898841
21
154.053199
0
LINE
8
Image
10
190.898841
20
154.053199
11
194.482451
21
154.399734
0
LINE
8
Image
10
194.482451
20
154.399734
11
198.021823
21
154.717525
0
LINE
8
Image
10
198.021823
20
154.717525
11
199.507888
21
154.693045
0
LINE
8
Image
10
199.507888
20
154.693045
11
200.558229
21
154.488907
0
LINE
8
Image
10
200.558229
20
154.488907
11
201.105035
21
153.737763
0
LINE
8
Image
10
201.105035
20
153.737763
11
202.919055
21
150.907204
0
LINE
8
Image
10
202.919055
20
150.907204
11
205.345933
21
147.976135
0
LINE
8
Image
10
205.345933
20
147.976135
11
206.257606
21
146.850567
0
LINE
8
Image
10
206.257606
20
146.850567
11
206.700458
21
145.731577
0
LINE
8
Image
10
206.700458
20
145.731577
11
206.835853
21
144.785680
0
LINE
8
Image
10
206.835853
20
144.785680
11
206.732001
21
143.784409
0
LINE
8
Image
10
206.732001
20
143.784409
11
206.370849
21
142.644632
0
LINE
8
Image
10
206.370849
20
142.644632
11
205.734343
21
141.283217
0
LINE
8
Image
10
205.734343
20
141.283217
11
204.289606
21
138.584762
0
LINE
8
Image
10
204.289606
20
138.584762
11
203.715123
21
137.522953
0
LINE
8
Image
10
203.715123
20
137.522953
11
203.153810
21
136.529219
0
LINE
8
Image
10
203.153810
20
136.529219
11
202.886435
21
136.086799
0
LINE
8
Image
10
202.886435
20
136.086799
11
201.663231
21
134.206511
0
LINE
8
Image
10
201.663231
20
134.206511
11
201.498940
21
134.060021
0
LINE
8
Image
10
201.498940
20
134.060021
11
201.396992
21
134.183016
0
LINE
8
Image
10
201.396992
20
134.183016
11
201.397026
21
134.183013
0
LINE
8
Image
10
195.986719
20
135.064207
11
195.209533
21
135.640898
0
LINE
8
Image
10
195.209533
20
135.640898
11
194.701378
21
136.448709
0
LINE
8
Image
10
194.701378
20
136.448709
11
194.646417
21
137.243737
0
LINE
8
Image
10
194.646417
20
137.243737
11
194.878042
21
137.990568
0
LINE
8
Image
10
194.878042
20
137.990568
11
195.351501
21
138.602934
0
LINE
8
Image
10
195.351501
20
138.602934
11
196.022044
21
138.994569
0
LINE
8
Image
10
196.022044
20
138.994569
11
196.724685
21
139.090782
0
LINE
8
Image
10
196.724685
20
139.090782
11
197.477787
21
138.999781
0
LINE
8
Image
10
197.477787
20
138.999781
11
197.985417
21
138.721847
0
LINE
8
Image
10
197.985417
20
138.721847
11
198.428870
21
138.237687
0
LINE
8
Image
10
198.428870
20
138.237687
11
198.743058
21
137.640222
0
LINE
8
Image
10
198.743058
20
137.640222
11
198.862893
21
137.022370
0
LINE
8
Image
10
198.862893
20
137.022370
11
198.770415
21
136.483360
0
LINE
8
Image
10
198.770415
20
136.483360
11
198.517743
21
135.948861
0
LINE
8
Image
10
198.517743
20
135.948861
11
198.144401
21
135.482111
0
LINE
8
Image
10
198.144401
20
135.482111
11
197.689912
21
135.146344
0
LINE
8
Image
10
197.689912
20
135.146344
11
196.856259
21
134.969225
0
LINE
8
Image
10
196.856259
20
134.969225
11
195.986719
21
135.064318
0
LINE
8
Image
10
195.986719
20
135.064318
11
195.986719
21
135.064207
0
LINE
8
Image
10
273.044999
20
138.065877
11
272.583001
21
138.759928
0
LINE
8
Image
10
272.583001
20
138.759928
11
272.176165
21
139.806824
0
LINE
8
Image
10
272.176165
20
139.806824
11
271.286951
21
143.736558
0
LINE
8
Image
10
271.286951
20
143.736558
11
270.401981
21
149.051180
0
LINE
8
Image
10
270.401981
20
149.051180
11
270.312954
21
150.484679
0
LINE
8
Image
10
270.312954
20
150.484679
11
270.433353
21
151.335792
0
LINE
8
Image
10
270.433353
20
151.335792
11
270.888757
21
152.046233
0
LINE
8
Image
10
270.888757
20
152.046233
11
271.708591
21
152.469641
0
LINE
8
Image
10
271.708591
20
152.469641
11
272.435304
21
152.619240
0
LINE
8
Image
10
272.435304
20
152.619240
11
273.579431
21
152.606026
0
LINE
8
Image
10
273.579431
20
152.606026
11
280.533307
21
151.964362
0
LINE
8
Image
10
280.533307
20
151.964362
11
282.273426
21
151.630301
0
LINE
8
Image
10
282.273426
20
151.630301
11
283.623319
21
151.213523
0
LINE
8
Image
10
283.623319
20
151.213523
11
284.685219
21
150.460386
0
LINE
8
Image
10
284.685219
20
150.460386
11
285.386579
21
149.268515
0
LINE
8
Image
10
285.386579
20
149.268515
11
285.581445
21
148.779428
0
LINE
8
Image
10
285.581445
20
148.779428
11
285.400417
21
147.189141
0
LINE
8
Image
10
285.400417
20
147.189141
11
284.559969
21
140.284244
0
LINE
8
Image
10
284.559969
20
140.284244
11
284.209433
21
140.034196
0
LINE
8
Image
10
284.209433
20
140.034196
11
282.840656
21
139.562790
0
LINE
8
Image
10
282.840656
20
139.562790
11
281.161321
21
139.023842
0
LINE
8
Image
10
281.161321
20
139.023842
11
280.634034
21
139.236853
0
LINE
8
Image
10
280.634034
20
139.236853
11
279.334830
21
139.597468
0
LINE
8
Image
10
279.334830
20
139.597468
11
277.928001
21
139.705837
0
LINE
8
Image
10
277.928001
20
139.705837
11
276.531059
21
139.563387
0
LINE
8
Image
10
276.531059
20
139.563387
11
275.261517
21
139.171546
0
LINE
8
Image
10
275.261517
20
139.171546
11
273.633511
21
138.193462
0
LINE
8
Image
10
273.633511
20
138.193462
11
273.267044
21
137.963250
0
LINE
8
Image
10
273.267044
20
137.963250
11
273.044999
21
138.065877
0
LINE
8
Image
10
273.044999
20
138.065877
11
273.044999
21
138.065877
0
LINE
8
Image
10
169.781845
20
139.600758
11
169.691741
21
139.901979
0
LINE
8
Image
10
169.691741
20
139.901979
11
169.758747
21
140.109993
0
LINE
8
Image
10
169.758747
20
140.109993
11
170.424560
21
141.243594
0
LINE
8
Image
10
170.424560
20
141.243594
11
170.837727
21
142.216957
0
LINE
8
Image
10
170.837727
20
142.216957
11
171.083204
21
143.114607
0
LINE
8
Image
10
171.083204
20
143.114607
11
171.117830
21
144.448556
0
LINE
8
Image
10
171.117830
20
144.448556
11
171.071740
21
145.798750
0
LINE
8
Image
10
171.071740
20
145.798750
11
170.786014
21
146.767592
0
LINE
8
Image
10
170.786014
20
146.767592
11
170.459101
21
147.715066
0
LINE
8
Image
10
170.459101
20
147.715066
11
171.753745
21
148.386837
0
LINE
8
Image
10
171.753745
20
148.386837
11
177.709339
21
149.629110
0
LINE
8
Image
10
177.709339
20
149.629110
11
179.720477
21
149.925721
0
LINE
8
Image
10
179.720477
20
149.925721
11
181.123175
21
149.969383
0
LINE
8
Image
10
181.123175
20
149.969383
11
182.099565
21
149.746363
0
LINE
8
Image
10
182.099565
20
149.746363
11
182.831782
21
149.242932
0
LINE
8
Image
10
182.831782
20
149.242932
11
183.413934
21
148.512323
0
LINE
8
Image
10
183.413934
20
148.512323
11
183.991379
21
147.446587
0
LINE
8
Image
10
183.991379
20
147.446587
11
185.149937
21
144.271590
0
LINE
8
Image
10
185.149937
20
144.271590
11
185.944440
21
141.661304
0
LINE
8
Image
10
185.944440
20
141.661304
11
186.593364
21
139.449202
0
LINE
8
Image
10
186.593364
20
139.449202
11
185.191265
21
139.335145
0
LINE
8
Image
10
185.191265
20
139.335145
11
178.263497
21
139.293905
0
LINE
8
Image
10
178.263497
20
139.293905
11
169.919542
21
139.271363
0
LINE
8
Image
10
169.919542
20
139.271363
11
169.781845
21
139.600758
0
LINE
8
Image
10
223.461044
20
144.939527
11
221.572435
21
145.142868
0
LINE
8
Image
10
221.572435
20
145.142868
11
219.708183
21
145.517110
0
LINE
8
Image
10
219.708183
20
145.517110
11
217.880259
21
146.056933
0
LINE
8
Image
10
217.880259
20
146.056933
11
216.100629
21
146.757017
0
LINE
8
Image
10
216.100629
20
146.757017
11
214.381261
21
147.612044
0
LINE
8
Image
10
214.381261
20
147.612044
11
212.734122
21
148.616695
0
LINE
8
Image
10
212.734122
20
148.616695
11
211.171182
21
149.765650
0
LINE
8
Image
10
211.171182
20
149.765650
11
209.704406
21
151.053590
0
LINE
8
Image
10
209.704406
20
151.053590
11
207.947015
21
152.957307
0
LINE
8
Image
10
207.947015
20
152.957307
11
206.436103
21
155.050378
0
LINE
8
Image
10
206.436103
20
155.050378
11
205.182513
21
157.301702
0
LINE
8
Image
10
205.182513
20
157.301702
11
204.197087
21
159.680175
0
LINE
8
Image
10
204.197087
20
159.680175
11
203.490668
21
162.154695
0
LINE
8
Image
10
203.490668
20
162.154695
11
203.074099
21
164.694158
0
LINE
8
Image
10
203.074099
20
164.694158
11
202.958222
21
167.267464
0
LINE
8
Image
10
202.958222
20
167.267464
11
203.153881
21
169.843507
0
LINE
8
Image
10
203.153881
20
169.843507
11
203.765834
21
172.792660
0
LINE
8
Image
10
203.765834
20
172.792660
11
204.757595
21
175.612317
0
LINE
8
Image
10
204.757595
20
175.612317
11
206.106148
21
178.248816
0
LINE
8
Image
10
206.106148
20
178.248816
11
207.788476
21
180.648498
0
LINE
8
Image
10
207.788476
20
180.648498
11
209.379850
21
182.364012
0
LINE
8
Image
10
209.379850
20
182.364012
11
209.480548
21
182.462468
0
LINE
8
Image
10
209.480548
20
182.462468
11
211.369472
21
184.221818
0
LINE
8
Image
10
211.369472
20
184.221818
11
213.129871
21
185.454794
0
LINE
8
Image
10
213.129871
20
185.454794
11
215.055049
21
186.569593
0
LINE
8
Image
10
215.055049
20
186.569593
11
217.532605
21
187.629975
0
LINE
8
Image
10
217.532605
20
187.629975
11
218.196234
21
187.851569
0
LINE
8
Image
10
218.196234
20
187.851569
11
219.915464
21
188.360959
0
LINE
8
Image
10
219.915464
20
188.360959
11
222.126717
21
188.717431
0
LINE
8
Image
10
222.126717
20
188.717431
11
224.518469
21
188.885488
0
LINE
8
Image
10
224.518469
20
188.885488
11
226.779196
21
188.829629
0
LINE
8
Image
10
226.779196
20
188.829629
11
228.869780
21
188.586547
0
LINE
8
Image
10
228.869780
20
188.586547
11
230.526948
21
188.239368
0
LINE
8
Image
10
230.526948
20
188.239368
11
232.617801
21
187.569057
0
LINE
8
Image
10
232.617801
20
187.569057
11
234.610390
21
186.714320
0
LINE
8
Image
10
234.610390
20
186.714320
11
236.494556
21
185.682807
0
LINE
8
Image
10
236.494556
20
185.682807
11
238.260142
21
184.482169
0
LINE
8
Image
10
238.260142
20
184.482169
11
239.896993
21
183.120056
0
LINE
8
Image
10
239.896993
20
183.120056
11
241.394950
21
181.604118
0
LINE
8
Image
10
241.394950
20
181.604118
11
242.743857
21
179.942006
0
LINE
8
Image
10
242.743857
20
179.942006
11
243.933556
21
178.141370
0
LINE
8
Image
10
243.933556
20
178.141370
11
245.283719
21
175.488747
0
LINE
8
Image
10
245.283719
20
175.488747
11
246.240241
21
172.742866
0
LINE
8
Image
10
246.240241
20
172.742866
11
246.809487
21
169.880344
0
LINE
8
Image
10
246.809487
20
169.880344
11
246.997822
21
166.877797
0
LINE
8
Image
10
246.997822
20
166.877797
11
246.915928
21
164.856649
0
LINE
8
Image
10
246.915928
20
164.856649
11
246.663191
21
162.931941
0
LINE
8
Image
10
246.663191
20
162.931941
11
246.229025
21
161.044943
0
LINE
8
Image
10
246.229025
20
161.044943
11
245.602845
21
159.136924
0
LINE
8
Image
10
245.602845
20
159.136924
11
244.125594
21
155.989507
0
LINE
8
Image
10
244.125594
20
155.989507
11
242.171704
21
153.125403
0
LINE
8
Image
10
242.171704
20
153.125403
11
239.782452
21
150.595874
0
LINE
8
Image
10
239.782452
20
150.595874
11
236.999116
21
148.452181
0
LINE
8
Image
10
236.999116
20
148.452181
11
235.033038
21
147.320441
0
LINE
8
Image
10
235.033038
20
147.320441
11
233.099110
21
146.439355
0
LINE
8
Image
10
233.099110
20
146.439355
11
232.027184
21
146.036969
0
LINE
8
Image
10
232.027184
20
146.036969
11
230.167554
21
145.493229
0
LINE
8
Image
10
230.167554
20
145.493229
11
227.997983
21
145.113445
0
LINE
8
Image
10
227.997983
20
145.113445
11
225.701478
21
144.921062
0
LINE
8
Image
10
225.701478
20
144.921062
11
223.461044
21
144.939527
0
LINE
8
Image
10
223.461044
20
144.939527
11
223.461044
21
144.939527
0
LINE
8
Image
10
243.458455
20
145.255315
11
242.286043
21
145.371781
0
LINE
8
Image
10
242.286043
20
145.371781
11
242.091069
21
145.415205
0
LINE
8
Image
10
242.091069
20
145.415205
11
242.062719
21
145.532733
0
LINE
8
Image
10
242.062719
20
145.532733
11
242.507253
21
145.993898
0
LINE
8
Image
10
242.507253
20
145.993898
11
244.344556
21
147.721651
0
LINE
8
Image
10
244.344556
20
147.721651
11
246.193288
21
149.757604
0
LINE
8
Image
10
246.193288
20
149.757604
11
248.136144
21
152.500161
0
LINE
8
Image
10
248.136144
20
152.500161
11
249.738814
21
155.442710
0
LINE
8
Image
10
249.738814
20
155.442710
11
250.196826
21
156.261187
0
LINE
8
Image
10
250.196826
20
156.261187
11
251.018129
21
154.945296
0
LINE
8
Image
10
251.018129
20
154.945296
11
251.401106
21
153.789044
0
LINE
8
Image
10
251.401106
20
153.789044
11
251.364243
21
152.632214
0
LINE
8
Image
10
251.364243
20
152.632214
11
250.873139
21
151.281591
0
LINE
8
Image
10
250.873139
20
151.281591
11
249.227515
21
148.300191
0
LINE
8
Image
10
249.227515
20
148.300191
11
248.386319
21
146.939414
0
LINE
8
Image
10
248.386319
20
146.939414
11
247.652057
21
146.053753
0
LINE
8
Image
10
247.652057
20
146.053753
11
246.900738
21
145.525169
0
LINE
8
Image
10
246.900738
20
145.525169
11
246.008374
21
145.235619
0
LINE
8
Image
10
246.008374
20
145.235619
11
244.978150
21
145.131264
0
LINE
8
Image
10
244.978150
20
145.131264
11
243.458455
21
145.255383
0
LINE
8
Image
10
243.458455
20
145.255383
11
243.458455
21
145.255315
0
LINE
8
Image
10
159.486341
20
149.912454
11
159.464248
21
158.362690
0
LINE
8
Image
10
159.464248
20
158.362690
11
159.543118
21
166.790802
0
LINE
8
Image
10
159.543118
20
166.790802
11
160.518437
21
165.710099
0
LINE
8
Image
10
160.518437
20
165.710099
11
162.055421
21
162.626125
0
LINE
8
Image
10
162.055421
20
162.626125
11
162.403649
21
161.798573
0
LINE
8
Image
10
162.403649
20
161.798573
11
163.186309
21
159.977525
0
LINE
8
Image
10
163.186309
20
159.977525
11
164.086521
21
157.853902
0
LINE
8
Image
10
164.086521
20
157.853902
11
165.961757
21
153.116687
0
LINE
8
Image
10
165.961757
20
153.116687
11
166.329753
21
151.844423
0
LINE
8
Image
10
166.329753
20
151.844423
11
166.321732
21
151.292098
0
LINE
8
Image
10
166.321732
20
151.292098
11
165.629969
21
151.355598
0
LINE
8
Image
10
165.629969
20
151.355598
11
164.082090
21
151.497929
0
LINE
8
Image
10
164.082090
20
151.497929
11
162.486940
21
151.320438
0
LINE
8
Image
10
162.486940
20
151.320438
11
161.230410
21
150.911939
0
LINE
8
Image
10
161.230410
20
150.911939
11
160.138758
21
150.289977
0
LINE
8
Image
10
160.138758
20
150.289977
11
159.486375
21
149.912454
0
LINE
8
Image
10
159.486375
20
149.912454
11
159.486341
21
149.912454
0
LINE
8
Image
10
171.054267
20
153.153614
11
170.337340
21
153.495506
0
LINE
8
Image
10
170.337340
20
153.495506
11
169.695400
21
154.033017
0
LINE
8
Image
10
169.695400
20
154.033017
11
168.529610
21
155.842800
0
LINE
8
Image
10
168.529610
20
155.842800
11
167.007589
21
159.136924
0
LINE
8
Image
10
167.007589
20
159.136924
11
165.682290
21
162.278108
0
LINE
8
Image
10
165.682290
20
162.278108
11
164.295441
21
165.808032
0
LINE
8
Image
10
164.295441
20
165.808032
11
163.692486
21
167.919769
0
LINE
8
Image
10
163.692486
20
167.919769
11
163.705340
21
168.767930
0
LINE
8
Image
10
163.705340
20
168.767930
11
164.003460
21
169.592174
0
LINE
8
Image
10
164.003460
20
169.592174
11
164.660860
21
170.528910
0
LINE
8
Image
10
164.660860
20
170.528910
11
165.751558
21
171.714546
0
LINE
8
Image
10
165.751558
20
171.714546
11
167.304970
21
173.129636
0
LINE
8
Image
10
167.304970
20
173.129636
11
168.525404
21
173.700842
0
LINE
8
Image
10
168.525404
20
173.700842
11
170.974311
21
173.972536
0
LINE
8
Image
10
170.974311
20
173.972536
11
174.794769
21
174.020331
0
LINE
8
Image
10
174.794769
20
174.020331
11
176.733244
21
173.941214
0
LINE
8
Image
10
176.733244
20
173.941214
11
178.042994
21
173.769319
0
LINE
8
Image
10
178.042994
20
173.769319
11
178.923617
21
173.460874
0
LINE
8
Image
10
178.923617
20
173.460874
11
179.574713
21
172.972106
0
LINE
8
Image
10
179.574713
20
172.972106
11
180.293622
21
172.026762
0
LINE
8
Image
10
180.293622
20
172.026762
11
181.048014
21
170.119546
0
LINE
8
Image
10
181.048014
20
170.119546
11
181.998682
21
166.967771
0
LINE
8
Image
10
181.998682
20
166.967771
11
182.623185
21
164.667185
0
LINE
8
Image
10
182.623185
20
164.667185
11
183.857675
21
159.873943
0
LINE
8
Image
10
183.857675
20
159.873943
11
184.184566
21
157.747921
0
LINE
8
Image
10
184.184566
20
157.747921
11
184.038428
21
156.809553
0
LINE
8
Image
10
184.038428
20
156.809553
11
183.314916
21
155.842151
0
LINE
8
Image
10
183.314916
20
155.842151
11
182.745366
21
155.282123
0
LINE
8
Image
10
182.745366
20
155.282123
11
182.177580
21
154.931250
0
LINE
8
Image
10
182.177580
20
154.931250
11
180.635462
21
154.455094
0
LINE
8
Image
10
180.635462
20
154.455094
11
177.714742
21
153.837659
0
LINE
8
Image
10
177.714742
20
153.837659
11
173.026608
21
153.057412
0
LINE
8
Image
10
173.026608
20
153.057412
11
171.843358
21
153.010582
0
LINE
8
Image
10
171.843358
20
153.010582
11
171.054267
21
153.153614
0
LINE
8
Image
10
171.054267
20
153.153614
11
171.054267
21
153.153614
0
LINE
8
Image
10
280.710286
20
154.763438
11
269.937366
21
155.874433
0
LINE
8
Image
10
269.937366
20
155.874433
11
269.649738
21
156.080895
0
LINE
8
Image
10
269.649738
20
156.080895
11
271.078036
21
163.338047
0
LINE
8
Image
10
271.078036
20
163.338047
11
271.596487
21
164.991230
0
LINE
8
Image
10
271.596487
20
164.991230
11
272.056082
21
165.731664
0
LINE
8
Image
10
272.056082
20
165.731664
11
272.719066
21
166.323862
0
LINE
8
Image
10
272.719066
20
166.323862
11
273.634968
21
166.801376
0
LINE
8
Image
10
273.634968
20
166.801376
11
274.853318
21
167.197762
0
LINE
8
Image
10
274.853318
20
167.197762
11
279.471509
21
168.204752
0
LINE
8
Image
10
279.471509
20
168.204752
11
281.075252
21
168.518275
0
LINE
8
Image
10
281.075252
20
168.518275
11
283.486844
21
168.839916
0
LINE
8
Image
10
283.486844
20
168.839916
11
284.398792
21
168.817866
0
LINE
8
Image
10
284.398792
20
168.817866
11
285.046008
21
168.671249
0
LINE
8
Image
10
285.046008
20
168.671249
11
285.747791
21
168.201171
0
LINE
8
Image
10
285.747791
20
168.201171
11
286.407526
21
167.415977
0
LINE
8
Image
10
286.407526
20
167.415977
11
286.839854
21
166.771469
0
LINE
8
Image
10
286.839854
20
166.771469
11
286.782016
21
162.777231
0
LINE
8
Image
10
286.782016
20
162.777231
11
286.614773
21
157.663440
0
LINE
8
Image
10
286.614773
20
157.663440
11
286.505316
21
156.543888
0
LINE
8
Image
10
286.505316
20
156.543888
11
286.143366
21
156.114970
0
LINE
8
Image
10
286.143366
20
156.114970
11
285.387151
21
155.392348
0
LINE
8
Image
10
285.387151
20
155.392348
11
284.540072
21
154.931218
0
LINE
8
Image
10
284.540072
20
154.931218
11
283.894973
21
154.769311
0
LINE
8
Image
10
283.894973
20
154.769311
11
282.833909
21
154.709098
0
LINE
8
Image
10
282.833909
20
154.709098
11
280.710286
21
154.763438
0
LINE
8
Image
10
280.710286
20
154.763438
11
280.710286
21
154.763438
0
LINE
8
Image
10
256.063782
20
156.030677
11
255.014095
21
156.451104
0
LINE
8
Image
10
255.014095
20
156.451104
11
253.987821
21
157.315391
0
LINE
8
Image
10
253.987821
20
157.315391
11
251.569604
21
160.309992
0
LINE
8
Image
10
251.569604
20
160.309992
11
251.719922
21
161.553278
0
LINE
8
Image
10
251.719922
20
161.553278
11
252.076496
21
163.944429
0
LINE
8
Image
10
252.076496
20
163.944429
11
252.226815
21
166.446392
0
LINE
8
Image
10
252.226815
20
166.446392
11
252.168998
21
168.957255
0
LINE
8
Image
10
252.168998
20
168.957255
11
251.901166
21
171.375107
0
LINE
8
Image
10
251.901166
20
171.375107
11
251.917919
21
171.691082
0
LINE
8
Image
10
251.917919
20
171.691082
11
252.321258
21
171.947657
0
LINE
8
Image
10
252.321258
20
171.947657
11
254.342008
21
173.052637
0
LINE
8
Image
10
254.342008
20
173.052637
11
256.598348
21
174.264986
0
LINE
8
Image
10
256.598348
20
174.264986
11
257.660162
21
174.843655
0
LINE
8
Image
10
257.660162
20
174.843655
11
258.721971
21
175.337978
0
LINE
8
Image
10
258.721971
20
175.337978
11
259.486479
21
175.599697
0
LINE
8
Image
10
259.486479
20
175.599697
11
260.202920
21
175.694551
0
LINE
8
Image
10
260.202920
20
175.694551
11
261.852874
21
175.389630
0
LINE
8
Image
10
261.852874
20
175.389630
11
262.685644
21
175.054350
0
LINE
8
Image
10
262.685644
20
175.054350
11
263.380812
21
174.473529
0
LINE
8
Image
10
263.380812
20
174.473529
11
264.221422
21
173.329224
0
LINE
8
Image
10
264.221422
20
173.329224
11
265.490520
21
171.303492
0
LINE
8
Image
10
265.490520
20
171.303492
11
267.238441
21
168.197395
0
LINE
8
Image
10
267.238441
20
168.197395
11
267.500307
21
167.266641
0
LINE
8
Image
10
267.500307
20
167.266641
11
267.555034
21
166.259897
0
LINE
8
Image
10
267.555034
20
166.259897
11
267.458954
21
164.718732
0
LINE
8
Image
10
267.458954
20
164.718732
11
266.896487
21
161.702963
0
LINE
8
Image
10
266.896487
20
161.702963
11
266.375365
21
159.329240
0
LINE
8
Image
10
266.375365
20
159.329240
11
265.938697
21
158.137128
0
LINE
8
Image
10
265.938697
20
158.137128
11
265.445584
21
157.397514
0
LINE
8
Image
10
265.445584
20
157.397514
11
264.801122
21
156.935667
0
LINE
8
Image
10
264.801122
20
156.935667
11
263.282143
21
156.476444
0
LINE
8
Image
10
263.282143
20
156.476444
11
259.960759
21
156.084686
0
LINE
8
Image
10
259.960759
20
156.084686
11
257.479822
21
155.923029
0
LINE
8
Image
10
257.479822
20
155.923029
11
256.063782
21
156.030677
0
LINE
8
Image
10
256.063782
20
156.030677
11
256.063782
21
156.030677
0
LINE
8
Image
10
190.014041
20
158.766780
11
189.281954
21
159.022769
0
LINE
8
Image
10
189.281954
20
159.022769
11
188.674908
21
159.428969
0
LINE
8
Image
10
188.674908
20
159.428969
11
188.163101
21
160.011718
0
LINE
8
Image
10
188.163101
20
160.011718
11
187.716736
21
160.797354
0
LINE
8
Image
10
187.716736
20
160.797354
11
186.883398
21
163.032217
0
LINE
8
Image
10
186.883398
20
163.032217
11
185.403857
21
168.339276
0
LINE
8
Image
10
185.403857
20
168.339276
11
184.488960
21
172.019366
0
LINE
8
Image
10
184.488960
20
172.019366
11
184.233093
21
174.046504
0
LINE
8
Image
10
184.233093
20
174.046504
11
184.256875
21
174.982569
0
LINE
8
Image
10
184.256875
20
174.982569
11
184.461608
21
175.535773
0
LINE
8
Image
10
184.461608
20
175.535773
11
185.544480
21
177.018141
0
LINE
8
Image
10
185.544480
20
177.018141
11
186.940416
21
178.411022
0
LINE
8
Image
10
186.940416
20
178.411022
11
187.942612
21
179.182841
0
LINE
8
Image
10
187.942612
20
179.182841
11
188.901956
21
179.534585
0
LINE
8
Image
10
188.901956
20
179.534585
11
190.169336
21
179.667241
0
LINE
8
Image
10
190.169336
20
179.667241
11
194.072618
21
179.626981
0
LINE
8
Image
10
194.072618
20
179.626981
11
197.468450
21
179.406558
0
LINE
8
Image
10
197.468450
20
179.406558
11
198.858414
21
178.874858
0
LINE
8
Image
10
198.858414
20
178.874858
11
199.903611
21
178.012058
0
LINE
8
Image
10
199.903611
20
178.012058
11
199.937342
21
177.766543
0
LINE
8
Image
10
199.937342
20
177.766543
11
199.713823
21
177.168610
0
LINE
8
Image
10
199.713823
20
177.168610
11
198.547571
21
173.736809
0
LINE
8
Image
10
198.547571
20
173.736809
11
197.952284
21
170.461663
0
LINE
8
Image
10
197.952284
20
170.461663
11
197.671798
21
167.896851
0
LINE
8
Image
10
197.671798
20
167.896851
11
197.798094
21
164.562919
0
LINE
8
Image
10
197.798094
20
164.562919
11
198.428537
21
160.702300
0
LINE
8
Image
10
198.428537
20
160.702300
11
198.672890
21
159.405290
0
LINE
8
Image
10
198.672890
20
159.405290
11
194.836426
21
158.913989
0
LINE
8
Image
10
194.836426
20
158.913989
11
191.716294
21
158.695229
0
LINE
8
Image
10
191.716294
20
158.695229
11
190.014041
21
158.766780
0
LINE
8
Image
10
190.014041
20
158.766780
11
190.014041
21
158.766780
0
LINE
8
Image
10
272.437014
20
169.854824
11
271.435452
21
170.111507
0
LINE
8
Image
10
271.435452
20
170.111507
11
270.803637
21
170.569203
0
LINE
8
Image
10
270.803637
20
170.569203
11
269.292157
21
172.539031
0
LINE
8
Image
10
269.292157
20
172.539031
11
267.796096
21
175.124746
0
LINE
8
Image
10
267.796096
20
175.124746
11
267.395492
21
176.368650
0
LINE
8
Image
10
267.395492
20
176.368650
11
267.414400
21
176.929012
0
LINE
8
Image
10
267.414400
20
176.929012
11
267.604412
21
177.500597
0
LINE
8
Image
10
267.604412
20
177.500597
11
268.572643
21
178.834290
0
LINE
8
Image
10
268.572643
20
178.834290
11
270.449969
21
180.683433
0
LINE
8
Image
10
270.449969
20
180.683433
11
271.824690
21
181.962708
0
LINE
8
Image
10
271.824690
20
181.962708
11
273.985486
21
183.910433
0
LINE
8
Image
10
273.985486
20
183.910433
11
276.099164
21
185.564348
0
LINE
8
Image
10
276.099164
20
185.564348
11
276.909706
21
185.969837
0
LINE
8
Image
10
276.909706
20
185.969837
11
277.610167
21
186.127448
0
LINE
8
Image
10
277.610167
20
186.127448
11
278.188281
21
186.080702
0
LINE
8
Image
10
278.188281
20
186.080702
11
277.835380
21
185.629281
0
LINE
8
Image
10
277.835380
20
185.629281
11
277.080261
21
184.677015
0
LINE
8
Image
10
277.080261
20
184.677015
11
276.522705
21
183.598924
0
LINE
8
Image
10
276.522705
20
183.598924
11
276.287593
21
182.428902
0
LINE
8
Image
10
276.287593
20
182.428902
11
276.289078
21
181.257957
0
LINE
8
Image
10
276.289078
20
181.257957
11
276.606942
21
179.928210
0
LINE
8
Image
10
276.606942
20
179.928210
11
277.221253
21
178.823212
0
LINE
8
Image
10
277.221253
20
178.823212
11
278.209356
21
177.842274
0
LINE
8
Image
10
278.209356
20
177.842274
11
279.648594
21
176.884707
0
LINE
8
Image
10
279.648594
20
176.884707
11
283.292696
21
174.690739
0
LINE
8
Image
10
283.292696
20
174.690739
11
284.664241
21
173.649195
0
LINE
8
Image
10
284.664241
20
173.649195
11
285.178723
21
173.179087
0
LINE
8
Image
10
285.178723
20
173.179087
11
284.749701
21
172.765298
0
LINE
8
Image
10
284.749701
20
172.765298
11
284.141215
21
172.302079
0
LINE
8
Image
10
284.141215
20
172.302079
11
283.270282
21
171.912942
0
LINE
8
Image
10
283.270282
20
171.912942
11
279.958156
21
171.081867
0
LINE
8
Image
10
279.958156
20
171.081867
11
274.548264
21
170.015925
0
LINE
8
Image
10
274.548264
20
170.015925
11
273.184093
21
169.839202
0
LINE
8
Image
10
273.184093
20
169.839202
11
272.437014
21
169.854824
0
LINE
8
Image
10
272.437014
20
169.854824
11
272.437014
21
169.854824
0
LINE
8
Image
10
159.486158
20
175.064071
11
159.525843
21
188.537744
0
LINE
8
Image
10
159.525843
20
188.537744
11
159.854490
21
188.398631
0
LINE
8
Image
10
159.854490
20
188.398631
11
160.146607
21
188.058065
0
LINE
8
Image
10
160.146607
20
188.058065
11
160.464644
21
186.993971
0
LINE
8
Image
10
160.464644
20
186.993971
11
161.164892
21
184.399147
0
LINE
8
Image
10
161.164892
20
184.399147
11
162.097185
21
180.686817
0
LINE
8
Image
10
162.097185
20
180.686817
11
162.224495
21
179.235594
0
LINE
8
Image
10
162.224495
20
179.235594
11
162.109382
21
178.097984
0
LINE
8
Image
10
162.109382
20
178.097984
11
161.641011
21
177.211038
0
LINE
8
Image
10
161.641011
20
177.211038
11
160.526869
21
175.947628
0
LINE
8
Image
10
160.526869
20
175.947628
11
159.707912
21
175.140927
0
LINE
8
Image
10
159.707912
20
175.140927
11
159.486161
21
175.064071
0
LINE
8
Image
10
159.486161
20
175.064071
11
159.486158
21
175.064071
0
LINE
8
Image
10
250.627636
20
176.192243
11
249.650881
21
178.513183
0
LINE
8
Image
10
249.650881
20
178.513183
11
248.423501
21
180.854206
0
LINE
8
Image
10
248.423501
20
180.854206
11
246.351686
21
183.858713
0
LINE
8
Image
10
246.351686
20
183.858713
11
243.868855
21
186.585828
0
LINE
8
Image
10
243.868855
20
186.585828
11
242.750582
21
187.720995
0
LINE
8
Image
10
242.750582
20
187.720995
11
246.406709
21
192.216789
0
LINE
8
Image
10
246.406709
20
192.216789
11
247.331603
21
193.093053
0
LINE
8
Image
10
247.331603
20
193.093053
11
248.174404
21
193.671773
0
LINE
8
Image
10
248.174404
20
193.671773
11
248.795791
21
193.768812
0
LINE
8
Image
10
248.795791
20
193.768812
11
249.702827
21
193.688791
0
LINE
8
Image
10
249.702827
20
193.688791
11
251.953453
21
193.065058
0
LINE
8
Image
10
251.953453
20
193.065058
11
252.801052
21
192.589788
0
LINE
8
Image
10
252.801052
20
192.589788
11
253.512330
21
191.730933
0
LINE
8
Image
10
253.512330
20
191.730933
11
254.254766
21
190.214893
0
LINE
8
Image
10
254.254766
20
190.214893
11
255.195839
21
187.768066
0
LINE
8
Image
10
255.195839
20
187.768066
11
257.147109
21
182.011907
0
LINE
8
Image
10
257.147109
20
182.011907
11
257.399977
21
180.642398
0
LINE
8
Image
10
257.399977
20
180.642398
11
257.309714
21
179.752636
0
LINE
8
Image
10
257.309714
20
179.752636
11
257.043432
21
179.095318
0
LINE
8
Image
10
257.043432
20
179.095318
11
256.621544
21
178.516145
0
LINE
8
Image
10
256.621544
20
178.516145
11
255.066487
21
177.328005
0
LINE
8
Image
10
255.066487
20
177.328005
11
252.351122
21
175.796130
0
LINE
8
Image
10
252.351122
20
175.796130
11
251.293734
21
175.189709
0
LINE
8
Image
10
251.293734
20
175.189709
11
251.156034
21
175.121372
0
LINE
8
Image
10
251.156034
20
175.121372
11
251.019590
21
175.234875
0
LINE
8
Image
10
251.019590
20
175.234875
11
250.627636
21
176.192243
0
LINE
8
Image
10
250.627636
20
176.192243
11
250.627636
21
176.192243
0
LINE
8
Image
10
171.511165
20
178.392655
11
170.115171
21
178.526388
0
LINE
8
Image
10
170.115171
20
178.526388
11
169.095530
21
178.829035
0
LINE
8
Image
10
169.095530
20
178.829035
11
168.326596
21
179.359094
0
LINE
8
Image
10
168.326596
20
179.359094
11
167.682723
21
180.175066
0
LINE
8
Image
10
167.682723
20
180.175066
11
166.840045
21
182.053159
0
LINE
8
Image
10
166.840045
20
182.053159
11
165.860664
21
185.018536
0
LINE
8
Image
10
165.860664
20
185.018536
11
165.299862
21
186.919136
0
LINE
8
Image
10
165.299862
20
186.919136
11
165.019364
21
188.014338
0
LINE
8
Image
10
165.019364
20
188.014338
11
165.815817
21
188.386812
0
LINE
8
Image
10
165.815817
20
188.386812
11
167.211163
21
189.228429
0
LINE
8
Image
10
167.211163
20
189.228429
11
168.380016
21
190.384076
0
LINE
8
Image
10
168.380016
20
190.384076
11
169.261629
21
191.778214
0
LINE
8
Image
10
169.261629
20
191.778214
11
169.795257
21
193.335303
0
LINE
8
Image
10
169.795257
20
193.335303
11
169.898602
21
195.424263
0
LINE
8
Image
10
169.898602
20
195.424263
11
169.748723
21
196.491287
0
LINE
8
Image
10
169.748723
20
196.491287
11
169.475487
21
197.432270
0
LINE
8
Image
10
169.475487
20
197.432270
11
168.941699
21
198.490589
0
LINE
8
Image
10
168.941699
20
198.490589
11
168.684881
21
199.206831
0
LINE
8
Image
10
168.684881
20
199.206831
11
169.449271
21
199.317103
0
LINE
8
Image
10
169.449271
20
199.317103
11
171.126108
21
199.244413
0
LINE
8
Image
10
171.126108
20
199.244413
11
176.033544
21
198.641285
0
LINE
8
Image
10
176.033544
20
198.641285
11
178.524389
21
198.101269
0
LINE
8
Image
10
178.524389
20
198.101269
11
179.261714
21
197.770609
0
LINE
8
Image
10
179.261714
20
197.770609
11
179.850421
21
197.334419
0
LINE
8
Image
10
179.850421
20
197.334419
11
180.486038
21
196.615427
0
LINE
8
Image
10
180.486038
20
196.615427
11
181.042366
21
195.517335
0
LINE
8
Image
10
181.042366
20
195.517335
11
182.502231
21
190.725763
0
LINE
8
Image
10
182.502231
20
190.725763
11
183.624058
21
186.386222
0
LINE
8
Image
10
183.624058
20
186.386222
11
183.970968
21
184.218127
0
LINE
8
Image
10
183.970968
20
184.218127
11
183.977203
21
183.251112
0
LINE
8
Image
10
183.977203
20
183.251112
11
183.733796
21
182.603232
0
LINE
8
Image
10
183.733796
20
182.603232
11
182.410405
21
180.881847
0
LINE
8
Image
10
182.410405
20
180.881847
11
181.195456
21
179.642401
0
LINE
8
Image
10
181.195456
20
179.642401
11
180.210741
21
178.916174
0
LINE
8
Image
10
180.210741
20
178.916174
11
179.185123
21
178.556743
0
LINE
8
Image
10
179.185123
20
178.556743
11
177.847467
21
178.417685
0
LINE
8
Image
10
177.847467
20
178.417685
11
171.511165
21
178.392655
0
LINE
8
Image
10
171.511165
20
178.392655
11
171.511165
21
178.392655
0
LINE
8
Image
10
262.973830
20
179.405736
11
262.016623
21
179.790249
0
LINE
8
Image
10
262.016623
20
179.790249
11
261.306637
21
180.559977
0
LINE
8
Image
10
261.306637
20
180.559977
11
260.530903
21
182.228536
0
LINE
8
Image
10
260.530903
20
182.228536
11
259.376456
21
185.309543
0
LINE
8
Image
10
259.376456
20
185.309543
11
257.641232
21
190.295854
0
LINE
8
Image
10
257.641232
20
190.295854
11
257.322377
21
191.561436
0
LINE
8
Image
10
257.322377
20
191.561436
11
257.236763
21
192.451199
0
LINE
8
Image
10
257.236763
20
192.451199
11
257.373868
21
193.413721
0
LINE
8
Image
10
257.373868
20
193.413721
11
257.919202
21
194.204868
0
LINE
8
Image
10
257.919202
20
194.204868
11
259.858093
21
195.636630
0
LINE
8
Image
10
259.858093
20
195.636630
11
260.294329
21
195.879962
0
LINE
8
Image
10
260.294329
20
195.879962
11
262.717854
21
197.268842
0
LINE
8
Image
10
262.717854
20
197.268842
11
264.554885
21
198.025854
0
LINE
8
Image
10
264.554885
20
198.025854
11
265.348391
21
198.082602
0
LINE
8
Image
10
265.348391
20
198.082602
11
266.193396
21
197.900258
0
LINE
8
Image
10
266.193396
20
197.900258
11
267.194826
21
197.442447
0
LINE
8
Image
10
267.194826
20
197.442447
11
268.457606
21
196.672795
0
LINE
8
Image
10
268.457606
20
196.672795
11
271.330925
21
194.696765
0
LINE
8
Image
10
271.330925
20
194.696765
11
272.569755
21
193.823601
0
LINE
8
Image
10
272.569755
20
193.823601
11
273.498839
21
193.168425
0
LINE
8
Image
10
273.498839
20
193.168425
11
275.560443
21
191.437322
0
LINE
8
Image
10
275.560443
20
191.437322
11
275.868100
21
190.430502
0
LINE
8
Image
10
275.868100
20
190.430502
11
275.915616
21
189.757834
0
LINE
8
Image
10
275.915616
20
189.757834
11
275.729749
21
189.252157
0
LINE
8
Image
10
275.729749
20
189.252157
11
275.253611
21
188.597382
0
LINE
8
Image
10
275.253611
20
188.597382
11
274.177825
21
187.479610
0
LINE
8
Image
10
274.177825
20
187.479610
11
269.517023
21
183.158404
0
LINE
8
Image
10
269.517023
20
183.158404
11
266.196348
21
180.249065
0
LINE
8
Image
10
266.196348
20
180.249065
11
264.703518
21
179.281419
0
LINE
8
Image
10
264.703518
20
179.281419
11
263.966475
21
179.196046
0
LINE
8
Image
10
263.966475
20
179.196046
11
262.973830
21
179.405736
0
LINE
8
Image
10
262.973830
20
179.405736
11
262.973830
21
179.405736
0
LINE
8
Image
10
280.478882
20
180.015253
11
279.934658
21
180.364899
0
LINE
8
Image
10
279.934658
20
180.364899
11
279.566229
21
180.889451
0
LINE
8
Image
10
279.566229
20
180.889451
11
279.346087
21
181.519305
0
LINE
8
Image
10
279.346087
20
181.519305
11
279.345938
21
182.177114
0
LINE
8
Image
10
279.345938
20
182.177114
11
279.557441
21
182.811819
0
LINE
8
Image
10
279.557441
20
182.811819
11
279.972259
21
183.372361
0
LINE
8
Image
10
279.972259
20
183.372361
11
280.822454
21
183.875968
0
LINE
8
Image
10
280.822454
20
183.875968
11
281.771122
21
183.929472
0
LINE
8
Image
10
281.771122
20
183.929472
11
282.660244
21
183.560038
0
LINE
8
Image
10
282.660244
20
183.560038
11
283.331801
21
182.794832
0
LINE
8
Image
10
283.331801
20
182.794832
11
283.494361
21
181.870816
0
LINE
8
Image
10
283.494361
20
181.870816
11
283.450506
21
181.278237
0
LINE
8
Image
10
283.450506
20
181.278237
11
283.229725
21
180.811343
0
LINE
8
Image
10
283.229725
20
180.811343
11
282.692233
21
180.224810
0
LINE
8
Image
10
282.692233
20
180.224810
11
281.999371
21
179.880638
0
LINE
8
Image
10
281.999371
20
179.880638
11
281.233976
21
179.802796
0
LINE
8
Image
10
281.233976
20
179.802796
11
280.478882
21
180.015253
0
LINE
8
Image
10
280.478882
20
180.015253
11
280.478882
21
180.015253
0
LINE
8
Image
10
192.801288
20
183.968776
11
190.191872
21
184.191938
0
LINE
8
Image
10
190.191872
20
184.191938
11
189.299151
21
184.493264
0
LINE
8
Image
10
189.299151
20
184.493264
11
188.596662
21
185.007328
0
LINE
8
Image
10
188.596662
20
185.007328
11
188.021084
21
185.798811
0
LINE
8
Image
10
188.021084
20
185.798811
11
187.509098
21
186.932396
0
LINE
8
Image
10
187.509098
20
186.932396
11
186.422621
21
190.484593
0
LINE
8
Image
10
186.422621
20
190.484593
11
185.066504
21
195.703841
0
LINE
8
Image
10
185.066504
20
195.703841
11
184.841301
21
197.039261
0
LINE
8
Image
10
184.841301
20
197.039261
11
184.811133
21
198.025280
0
LINE
8
Image
10
184.811133
20
198.025280
11
184.939938
21
198.963787
0
LINE
8
Image
10
184.939938
20
198.963787
11
185.319639
21
199.802509
0
LINE
8
Image
10
185.319639
20
199.802509
11
186.077461
21
200.740115
0
LINE
8
Image
10
186.077461
20
200.740115
11
187.340628
21
201.975274
0
LINE
8
Image
10
187.340628
20
201.975274
11
189.238323
21
203.673716
0
LINE
8
Image
10
189.238323
20
203.673716
11
190.279489
21
204.380701
0
LINE
8
Image
10
190.279489
20
204.380701
11
190.885006
21
204.582882
0
LINE
8
Image
10
190.885006
20
204.582882
11
192.093415
21
204.608086
0
LINE
8
Image
10
192.093415
20
204.608086
11
193.660542
21
204.509717
0
LINE
8
Image
10
193.660542
20
204.509717
11
197.004284
21
203.695640
0
LINE
8
Image
10
197.004284
20
203.695640
11
200.736662
21
202.605513
0
LINE
8
Image
10
200.736662
20
202.605513
11
201.704037
21
202.129989
0
LINE
8
Image
10
201.704037
20
202.129989
11
202.386101
21
201.577270
0
LINE
8
Image
10
202.386101
20
201.577270
11
202.994300
21
200.835814
0
LINE
8
Image
10
202.994300
20
200.835814
11
203.818733
21
199.264478
0
LINE
8
Image
10
203.818733
20
199.264478
11
204.942550
21
196.866205
0
LINE
8
Image
10
204.942550
20
196.866205
11
205.454739
21
195.233114
0
LINE
8
Image
10
205.454739
20
195.233114
11
205.420904
21
193.967689
0
LINE
8
Image
10
205.420904
20
193.967689
11
204.906651
21
192.672414
0
LINE
8
Image
10
204.906651
20
192.672414
11
202.709246
21
189.078826
0
LINE
8
Image
10
202.709246
20
189.078826
11
200.418643
21
185.773537
0
LINE
8
Image
10
200.418643
20
185.773537
11
199.335914
21
184.716924
0
LINE
8
Image
10
199.335914
20
184.716924
11
198.036203
21
184.142292
0
LINE
8
Image
10
198.036203
20
184.142292
11
196.023373
21
183.932093
0
LINE
8
Image
10
196.023373
20
183.932093
11
192.801288
21
183.968776
0
LINE
8
Image
10
192.801288
20
183.968776
11
192.801288
21
183.968776
0
LINE
8
Image
10
205.498764
20
186.255893
11
206.746284
21
188.202816
0
LINE
8
Image
10
206.746284
20
188.202816
11
208.389018
21
190.418442
0
LINE
8
Image
10
208.389018
20
190.418442
11
209.320472
21
191.222231
0
LINE
8
Image
10
209.320472
20
191.222231
11
210.336333
21
191.619781
0
LINE
8
Image
10
210.336333
20
191.619781
11
211.966759
21
191.704758
0
LINE
8
Image
10
211.966759
20
191.704758
11
212.708988
21
191.627761
0
LINE
8
Image
10
212.708988
20
191.627761
11
213.019586
21
191.489678
0
LINE
8
Image
10
213.019586
20
191.489678
11
212.422316
21
191.125268
0
LINE
8
Image
10
212.422316
20
191.125268
11
209.405604
21
189.293676
0
LINE
8
Image
10
209.405604
20
189.293676
11
206.472091
21
186.929166
0
LINE
8
Image
10
206.472091
20
186.929166
11
205.676434
21
186.247370
0
LINE
8
Image
10
205.676434
20
186.247370
11
205.534974
21
186.182374
0
LINE
8
Image
10
205.534974
20
186.182374
11
205.498764
21
186.255893
0
LINE
8
Image
10
205.498764
20
186.255893
11
205.498764
21
186.255893
0
LINE
8
Image
10
280.678378
20
188.905469
11
279.917096
21
189.923736
0
LINE
8
Image
10
279.917096
20
189.923736
11
279.710903
21
191.073732
0
LINE
8
Image
10
279.710903
20
191.073732
11
279.694764
21
191.815969
0
LINE
8
Image
10
279.694764
20
191.815969
11
280.112196
21
192.421166
0
LINE
8
Image
10
280.112196
20
192.421166
11
282.773399
21
195.459661
0
LINE
8
Image
10
282.773399
20
195.459661
11
284.769492
21
197.495829
0
LINE
8
Image
10
284.769492
20
197.495829
11
285.087547
21
197.689773
0
LINE
8
Image
10
285.087547
20
197.689773
11
285.101888
21
197.463025
0
LINE
8
Image
10
285.101888
20
197.463025
11
284.791744
21
194.309368
0
LINE
8
Image
10
284.791744
20
194.309368
11
284.683691
21
192.992598
0
LINE
8
Image
10
284.683691
20
192.992598
11
284.477155
21
192.148749
0
LINE
8
Image
10
284.477155
20
192.148749
11
283.863755
21
190.901398
0
LINE
8
Image
10
283.863755
20
190.901398
11
282.892752
21
189.696924
0
LINE
8
Image
10
282.892752
20
189.696924
11
281.312371
21
188.292449
0
LINE
8
Image
10
281.312371
20
188.292449
11
280.678245
21
188.905469
0
LINE
8
Image
10
280.678245
20
188.905469
11
280.678378
21
188.905469
0
LINE
8
Image
10
239.565151
20
189.951101
11
236.340741
21
191.714063
0
LINE
8
Image
10
236.340741
20
191.714063
11
235.332392
21
192.152807
0
LINE
8
Image
10
235.332392
20
192.152807
11
231.867037
21
193.316483
0
LINE
8
Image
10
231.867037
20
193.316483
11
229.122436
21
193.863314
0
LINE
8
Image
10
229.122436
20
193.863314
11
226.181929
21
194.178931
0
LINE
8
Image
10
226.181929
20
194.178931
11
225.053760
21
194.282785
0
LINE
8
Image
10
225.053760
20
194.282785
11
226.771388
21
197.519669
0
LINE
8
Image
10
226.771388
20
197.519669
11
229.238230
21
201.631427
0
LINE
8
Image
10
229.238230
20
201.631427
11
229.677038
21
202.272946
0
LINE
8
Image
10
229.677038
20
202.272946
11
230.617192
21
202.272853
0
LINE
8
Image
10
230.617192
20
202.272853
11
232.029185
21
202.142646
0
LINE
8
Image
10
232.029185
20
202.142646
11
233.392677
21
201.768354
0
LINE
8
Image
10
233.392677
20
201.768354
11
234.643154
21
201.173879
0
LINE
8
Image
10
234.643154
20
201.173879
11
235.716100
21
200.383119
0
LINE
8
Image
10
235.716100
20
200.383119
11
237.090622
21
199.427416
0
LINE
8
Image
10
237.090622
20
199.427416
11
238.615933
21
199.006266
0
LINE
8
Image
10
238.615933
20
199.006266
11
239.598286
21
198.988569
0
LINE
8
Image
10
239.598286
20
198.988569
11
240.540203
21
199.164834
0
LINE
8
Image
10
240.540203
20
199.164834
11
241.447252
21
199.536712
0
LINE
8
Image
10
241.447252
20
199.536712
11
242.325000
21
200.105852
0
LINE
8
Image
10
242.325000
20
200.105852
11
242.828502
21
200.494892
0
LINE
8
Image
10
242.828502
20
200.494892
11
243.171864
21
199.946063
0
LINE
8
Image
10
243.171864
20
199.946063
11
244.575884
21
197.362092
0
LINE
8
Image
10
244.575884
20
197.362092
11
244.722699
21
196.284317
0
LINE
8
Image
10
244.722699
20
196.284317
11
244.540925
21
195.218168
0
LINE
8
Image
10
244.540925
20
195.218168
11
243.664272
21
193.715689
0
LINE
8
Image
10
243.664272
20
193.715689
11
241.828277
21
191.300935
0
LINE
8
Image
10
241.828277
20
191.300935
11
240.921004
21
190.130983
0
LINE
8
Image
10
240.921004
20
190.130983
11
240.361516
21
189.452084
0
LINE
8
Image
10
240.361516
20
189.452084
11
239.565151
21
189.951125
0
LINE
8
Image
10
239.565151
20
189.951125
11
239.565151
21
189.951101
0
LINE
8
Image
10
218.019268
20
195.079061
11
213.512623
21
195.724265
0
LINE
8
Image
10
213.512623
20
195.724265
11
211.815866
21
196.068872
0
LINE
8
Image
10
211.815866
20
196.068872
11
210.635324
21
196.493721
0
LINE
8
Image
10
210.635324
20
196.493721
11
209.795889
21
197.087081
0
LINE
8
Image
10
209.795889
20
197.087081
11
209.122450
21
197.937219
0
LINE
8
Image
10
209.122450
20
197.937219
11
207.693879
21
200.837308
0
LINE
8
Image
10
207.693879
20
200.837308
11
215.497472
21
200.951330
0
LINE
8
Image
10
215.497472
20
200.951330
11
223.930854
21
201.020598
0
LINE
8
Image
10
223.930854
20
201.020598
11
224.576119
21
201.019539
0
LINE
8
Image
10
224.576119
20
201.019539
11
223.635217
21
199.264462
0
LINE
8
Image
10
223.635217
20
199.264462
11
223.264655
21
198.645076
0
LINE
8
Image
10
223.264655
20
198.645076
11
222.259317
21
197.032731
0
LINE
8
Image
10
222.259317
20
197.032731
11
221.293181
21
195.877848
0
LINE
8
Image
10
221.293181
20
195.877848
11
220.704051
21
195.450699
0
LINE
8
Image
10
220.704051
20
195.450699
11
219.963707
21
195.175593
0
LINE
8
Image
10
219.963707
20
195.175593
11
219.069622
21
195.051914
0
LINE
8
Image
10
219.069622
20
195.051914
11
218.019268
21
195.079045
0
LINE
8
Image
10
218.019268
20
195.079045
11
218.019268
21
195.079061
0
LINE
8
Image
10
276.137313
20
195.364826
11
273.808507
21
196.687001
0
LINE
8
Image
10
273.808507
20
196.687001
11
269.064940
21
200.111619
0
LINE
8
Image
10
269.064940
20
200.111619
11
268.163474
21
200.991010
0
LINE
8
Image
10
268.163474
20
200.991010
11
267.689072
21
201.775032
0
LINE
8
Image
10
267.689072
20
201.775032
11
267.433558
21
202.475044
0
LINE
8
Image
10
267.433558
20
202.475044
11
267.398428
21
203.555962
0
LINE
8
Image
10
267.398428
20
203.555962
11
267.711092
21
207.054667
0
LINE
8
Image
10
267.711092
20
207.054667
11
268.335739
21
209.987863
0
LINE
8
Image
10
268.335739
20
209.987863
11
268.817166
21
210.840985
0
LINE
8
Image
10
268.817166
20
210.840985
11
269.650115
21
211.412580
0
LINE
8
Image
10
269.650115
20
211.412580
11
271.105591
21
211.818404
0
LINE
8
Image
10
271.105591
20
211.818404
11
273.454600
21
212.174213
0
LINE
8
Image
10
273.454600
20
212.174213
11
277.967275
21
212.575234
0
LINE
8
Image
10
277.967275
20
212.575234
11
279.469044
21
212.461576
0
LINE
8
Image
10
279.469044
20
212.461576
11
280.633921
21
211.924340
0
LINE
8
Image
10
280.633921
20
211.924340
11
281.817104
21
210.696510
0
LINE
8
Image
10
281.817104
20
210.696510
11
283.373790
21
208.511075
0
LINE
8
Image
10
283.373790
20
208.511075
11
285.083192
21
205.808316
0
LINE
8
Image
10
285.083192
20
205.808316
11
285.445591
21
204.988022
0
LINE
8
Image
10
285.445591
20
204.988022
11
285.620523
21
204.255228
0
LINE
8
Image
10
285.620523
20
204.255228
11
285.418375
21
203.121079
0
LINE
8
Image
10
285.418375
20
203.121079
11
284.697552
21
201.893661
0
LINE
8
Image
10
284.697552
20
201.893661
11
282.753370
21
199.718979
0
LINE
8
Image
10
282.753370
20
199.718979
11
279.181579
21
196.091221
0
LINE
8
Image
10
279.181579
20
196.091221
11
278.345232
21
195.529431
0
LINE
8
Image
10
278.345232
20
195.529431
11
277.259092
21
195.217600
0
LINE
8
Image
10
277.259092
20
195.217600
11
276.137313
21
195.364826
0
LINE
8
Image
10
276.137313
20
195.364826
11
276.137313
21
195.364826
0
LINE
8
Image
10
253.147469
20
197.051802
11
250.173191
21
197.844422
0
LINE
8
Image
10
250.173191
20
197.844422
11
249.379258
21
198.236849
0
LINE
8
Image
10
249.379258
20
198.236849
11
248.664275
21
198.878042
0
LINE
8
Image
10
248.664275
20
198.878042
11
246.696700
21
201.784451
0
LINE
8
Image
10
246.696700
20
201.784451
11
245.357765
21
204.074559
0
LINE
8
Image
10
245.357765
20
204.074559
11
244.985676
21
204.979953
0
LINE
8
Image
10
244.985676
20
204.979953
11
245.468085
21
204.929756
0
LINE
8
Image
10
245.468085
20
204.929756
11
246.335310
21
204.747313
0
LINE
8
Image
10
246.335310
20
204.747313
11
247.263272
21
204.717695
0
LINE
8
Image
10
247.263272
20
204.717695
11
248.563698
21
204.861876
0
LINE
8
Image
10
248.563698
20
204.861876
11
249.841339
21
205.260246
0
LINE
8
Image
10
249.841339
20
205.260246
11
251.043101
21
205.890772
0
LINE
8
Image
10
251.043101
20
205.890772
11
252.115891
21
206.731423
0
LINE
8
Image
10
252.115891
20
206.731423
11
253.265419
21
208.233973
0
LINE
8
Image
10
253.265419
20
208.233973
11
254.035994
21
210.015303
0
LINE
8
Image
10
254.035994
20
210.015303
11
254.226053
21
211.197862
0
LINE
8
Image
10
254.226053
20
211.197862
11
254.202192
21
212.457176
0
LINE
8
Image
10
254.202192
20
212.457176
11
253.971804
21
213.719921
0
LINE
8
Image
10
253.971804
20
213.719921
11
253.542282
21
214.912774
0
LINE
8
Image
10
253.542282
20
214.912774
11
253.200388
21
215.757892
0
LINE
8
Image
10
253.200388
20
215.757892
11
255.492306
21
216.168168
0
LINE
8
Image
10
255.492306
20
216.168168
11
258.687807
21
216.560865
0
LINE
8
Image
10
258.687807
20
216.560865
11
259.653806
21
216.528029
0
LINE
8
Image
10
259.653806
20
216.528029
11
260.314689
21
216.346700
0
LINE
8
Image
10
260.314689
20
216.346700
11
261.146080
21
215.723838
0
LINE
8
Image
10
261.146080
20
215.723838
11
262.232492
21
214.644431
0
LINE
8
Image
10
262.232492
20
214.644431
11
263.269732
21
213.436165
0
LINE
8
Image
10
263.269732
20
213.436165
11
263.953605
21
212.426726
0
LINE
8
Image
10
263.953605
20
212.426726
11
264.206504
21
211.589312
0
LINE
8
Image
10
264.206504
20
211.589312
11
264.261789
21
210.306367
0
LINE
8
Image
10
264.261789
20
210.306367
11
263.753487
21
205.502613
0
LINE
8
Image
10
263.753487
20
205.502613
11
263.441314
21
203.817173
0
LINE
8
Image
10
263.441314
20
203.817173
11
262.989833
21
202.593802
0
LINE
8
Image
10
262.989833
20
202.593802
11
262.306253
21
201.655792
0
LINE
8
Image
10
262.306253
20
201.655792
11
261.297784
21
200.826436
0
LINE
8
Image
10
261.297784
20
200.826436
11
255.849374
21
197.619595
0
LINE
8
Image
10
255.849374
20
197.619595
11
254.683092
21
197.153782
0
LINE
8
Image
10
254.683092
20
197.153782
11
253.766865
21
196.976240
0
LINE
8
Image
10
253.766865
20
196.976240
11
253.147469
21
197.051802
0
LINE
8
Image
10
253.147469
20
197.051802
11
253.147469
21
197.051802
0
LINE
8
Image
10
238.724557
20
201.733001
11
237.746069
21
202.283079
0
LINE
8
Image
10
237.746069
20
202.283079
11
237.386735
21
202.706074
0
LINE
8
Image
10
237.386735
20
202.706074
11
237.171664
21
203.174197
0
LINE
8
Image
10
237.171664
20
203.174197
11
237.092847
21
203.920781
0
LINE
8
Image
10
237.092847
20
203.920781
11
237.246364
21
204.586152
0
LINE
8
Image
10
237.246364
20
204.586152
11
237.588650
21
205.142880
0
LINE
8
Image
10
237.588650
20
205.142880
11
238.076137
21
205.563538
0
LINE
8
Image
10
238.076137
20
205.563538
11
238.665260
21
205.820697
0
LINE
8
Image
10
238.665260
20
205.820697
11
239.312453
21
205.886929
0
LINE
8
Image
10
239.312453
20
205.886929
11
239.974150
21
205.734805
0
LINE
8
Image
10
239.974150
20
205.734805
11
240.606785
21
205.336896
0
LINE
8
Image
10
240.606785
20
205.336896
11
241.166602
21
204.471430
0
LINE
8
Image
10
241.166602
20
204.471430
11
241.235999
21
203.458156
0
LINE
8
Image
10
241.235999
20
203.458156
11
240.850977
21
202.519696
0
LINE
8
Image
10
240.850977
20
202.519696
11
240.047536
21
201.878675
0
LINE
8
Image
10
240.047536
20
201.878675
11
239.362570
21
201.712495
0
LINE
8
Image
10
239.362570
20
201.712495
11
238.724557
21
201.733001
0
LINE
8
Image
10
238.724557
20
201.733001
11
238.724557
21
201.733001
0
LINE
8
Image
10
178.289884
20
202.732267
11
172.096004
21
203.555861
0
LINE
8
Image
10
172.096004
20
203.555861
11
170.968578
21
203.857143
0
LINE
8
Image
10
170.968578
20
203.857143
11
170.096343
21
204.249876
0
LINE
8
Image
10
170.096343
20
204.249876
11
169.436736
21
204.759120
0
LINE
8
Image
10
169.436736
20
204.759120
11
168.947194
21
205.409940
0
LINE
8
Image
10
168.947194
20
205.409940
11
168.732716
21
205.913222
0
LINE
8
Image
10
168.732716
20
205.913222
11
168.692136
21
206.652903
0
LINE
8
Image
10
168.692136
20
206.652903
11
168.829209
21
207.722056
0
LINE
8
Image
10
168.829209
20
207.722056
11
169.358253
21
208.494017
0
LINE
8
Image
10
169.358253
20
208.494017
11
170.640350
21
209.333475
0
LINE
8
Image
10
170.640350
20
209.333475
11
172.361455
21
209.796448
0
LINE
8
Image
10
172.361455
20
209.796448
11
180.148059
21
209.863385
0
LINE
8
Image
10
180.148059
20
209.863385
11
187.226789
21
209.838355
0
LINE
8
Image
10
187.226789
20
209.838355
11
187.204432
21
209.408670
0
LINE
8
Image
10
187.204432
20
209.408670
11
186.970707
21
208.471073
0
LINE
8
Image
10
186.970707
20
208.471073
11
186.467785
21
207.583576
0
LINE
8
Image
10
186.467785
20
207.583576
11
183.925410
21
205.045199
0
LINE
8
Image
10
183.925410
20
205.045199
11
182.846866
21
204.040125
0
LINE
8
Image
10
182.846866
20
204.040125
11
182.143054
21
203.523897
0
LINE
8
Image
10
182.143054
20
203.523897
11
181.359342
21
203.065934
0
LINE
8
Image
10
181.359342
20
203.065934
11
180.535730
21
202.797741
0
LINE
8
Image
10
180.535730
20
202.797741
11
179.552498
21
202.694724
0
LINE
8
Image
10
179.552498
20
202.694724
11
178.289929
21
202.732288
0
LINE
8
Image
10
178.289929
20
202.732288
11
178.289884
21
202.732267
0
LINE
8
Image
10
162.955125
20
203.917885
11
162.433595
21
204.260218
0
LINE
8
Image
10
162.433595
20
204.260218
11
162.069305
21
204.692531
0
LINE
8
Image
10
162.069305
20
204.692531
11
161.857848
21
205.222187
0
LINE
8
Image
10
161.857848
20
205.222187
11
161.794817
21
205.856548
0
LINE
8
Image
10
161.794817
20
205.856548
11
161.914594
21
206.582335
0
LINE
8
Image
10
161.914594
20
206.582335
11
162.297334
21
207.175161
0
LINE
8
Image
10
162.297334
20
207.175161
11
162.997215
21
207.695553
0
LINE
8
Image
10
162.997215
20
207.695553
11
163.822732
21
207.881703
0
LINE
8
Image
10
163.822732
20
207.881703
11
164.620142
21
207.754696
0
LINE
8
Image
10
164.620142
20
207.754696
11
165.303373
21
207.285868
0
LINE
8
Image
10
165.303373
20
207.285868
11
165.703354
21
206.747274
0
LINE
8
Image
10
165.703354
20
206.747274
11
165.908283
21
206.112719
0
LINE
8
Image
10
165.908283
20
206.112719
11
165.909182
21
205.439249
0
LINE
8
Image
10
165.909182
20
205.439249
11
165.697075
21
204.783910
0
LINE
8
Image
10
165.697075
20
204.783910
11
165.198123
21
204.161686
0
LINE
8
Image
10
165.198123
20
204.161686
11
164.517052
21
203.791697
0
LINE
8
Image
10
164.517052
20
203.791697
11
163.740505
21
203.701308
0
LINE
8
Image
10
163.740505
20
203.701308
11
162.955125
21
203.917885
0
LINE
8
Image
10
162.955125
20
203.917885
11
162.955125
21
203.917885
0
LINE
8
Image
10
200.278203
20
207.067616
11
198.066093
21
207.594713
0
LINE
8
Image
10
198.066093
20
207.594713
11
194.507563
21
208.571007
0
LINE
8
Image
10
194.507563
20
208.571007
11
193.499841
21
208.976538
0
LINE
8
Image
10
193.499841
20
208.976538
11
192.812401
21
209.393438
0
LINE
8
Image
10
192.812401
20
209.393438
11
192.493314
21
209.680520
0
LINE
8
Image
10
192.493314
20
209.680520
11
192.682721
21
209.826022
0
LINE
8
Image
10
192.682721
20
209.826022
11
195.610662
21
209.864673
0
LINE
8
Image
10
195.610662
20
209.864673
11
198.729725
21
209.838321
0
LINE
8
Image
10
198.729725
20
209.838321
11
199.230785
21
209.603424
0
LINE
8
Image
10
199.230785
20
209.603424
11
200.251866
21
208.832346
0
LINE
8
Image
10
200.251866
20
208.832346
11
201.147088
21
207.677091
0
LINE
8
Image
10
201.147088
20
207.677091
11
201.449752
21
207.013342
0
LINE
8
Image
10
201.449752
20
207.013342
11
200.278203
21
207.067602
0
LINE
8
Image
10
200.278203
20
207.067602
11
200.278203
21
207.067616
0
LINE
8
Image
10
288.454075
20
207.338657
11
284.668210
21
213.023763
0
LINE
8
Image
10
284.668210
20
213.023763
11
284.226040
21
214.034715
0
LINE
8
Image
10
284.226040
20
214.034715
11
284.039170
21
214.962941
0
LINE
8
Image
10
284.039170
20
214.962941
11
284.100357
21
215.917024
0
LINE
8
Image
10
284.100357
20
215.917024
11
284.402357
21
217.005546
0
LINE
8
Image
10
284.402357
20
217.005546
11
286.195939
21
221.120063
0
LINE
8
Image
10
286.195939
20
221.120063
11
286.509655
21
220.744004
0
LINE
8
Image
10
286.509655
20
220.744004
11
287.354025
21
219.730001
0
LINE
8
Image
10
287.354025
20
219.730001
11
288.419279
21
218.863677
0
LINE
8
Image
10
288.419279
20
218.863677
11
289.622521
21
218.200920
0
LINE
8
Image
10
289.622521
20
218.200920
11
290.880857
21
217.797618
0
LINE
8
Image
10
290.880857
20
217.797618
11
292.725252
21
217.684434
0
LINE
8
Image
10
292.725252
20
217.684434
11
294.469555
21
217.932648
0
LINE
8
Image
10
294.469555
20
217.932648
11
295.740832
21
218.480594
0
LINE
8
Image
10
295.740832
20
218.480594
11
296.892249
21
219.268928
0
LINE
8
Image
10
296.892249
20
219.268928
11
297.869894
21
220.252783
0
LINE
8
Image
10
297.869894
20
220.252783
11
298.619857
21
221.387289
0
LINE
8
Image
10
298.619857
20
221.387289
11
299.077215
21
222.255831
0
LINE
8
Image
10
299.077215
20
222.255831
11
300.452517
21
221.892910
0
LINE
8
Image
10
300.452517
20
221.892910
11
300.130731
21
220.190977
0
LINE
8
Image
10
300.130731
20
220.190977
11
299.494644
21
218.813520
0
LINE
8
Image
10
299.494644
20
218.813520
11
298.671212
21
217.476657
0
LINE
8
Image
10
298.671212
20
217.476657
11
297.283445
21
215.935125
0
LINE
8
Image
10
297.283445
20
215.935125
11
294.115596
21
212.962242
0
LINE
8
Image
10
294.115596
20
212.962242
11
290.762562
21
209.787473
0
LINE
8
Image
10
290.762562
20
209.787473
11
288.762341
21
207.214359
0
LINE
8
Image
10
288.762341
20
207.214359
11
288.673682
21
207.150105
0
LINE
8
Image
10
288.673682
20
207.150105
11
288.454075
21
207.338657
0
LINE
8
Image
10
288.454075
20
207.338657
11
288.454075
21
207.338657
0
LINE
8
Image
10
268.423872
20
215.456839
11
267.789946
21
215.659227
0
LINE
8
Image
10
267.789946
20
215.659227
11
267.216649
21
215.999714
0
LINE
8
Image
10
267.216649
20
215.999714
11
265.704170
21
217.508146
0
LINE
8
Image
10
265.704170
20
217.508146
11
264.463585
21
218.997191
0
LINE
8
Image
10
264.463585
20
218.997191
11
263.914158
21
219.960851
0
LINE
8
Image
10
263.914158
20
219.960851
11
263.812620
21
220.708961
0
LINE
8
Image
10
263.812620
20
220.708961
11
263.876164
21
221.210908
0
LINE
8
Image
10
263.876164
20
221.210908
11
266.738372
21
223.694903
0
LINE
8
Image
10
266.738372
20
223.694903
11
269.915168
21
226.564118
0
LINE
8
Image
10
269.915168
20
226.564118
11
270.800066
21
227.311348
0
LINE
8
Image
10
270.800066
20
227.311348
11
271.861864
21
228.171049
0
LINE
8
Image
10
271.861864
20
228.171049
11
272.522845
21
228.702107
0
LINE
8
Image
10
272.522845
20
228.702107
11
276.595756
21
231.693311
0
LINE
8
Image
10
276.595756
20
231.693311
11
279.015765
21
233.448782
0
LINE
8
Image
10
279.015765
20
233.448782
11
279.856318
21
233.861288
0
LINE
8
Image
10
279.856318
20
233.861288
11
280.450806
21
233.766517
0
LINE
8
Image
10
280.450806
20
233.766517
11
280.989904
21
233.485901
0
LINE
8
Image
10
280.989904
20
233.485901
11
281.470156
21
233.022008
0
LINE
8
Image
10
281.470156
20
233.022008
11
281.888104
21
232.377406
0
LINE
8
Image
10
281.888104
20
232.377406
11
283.738968
21
228.164726
0
LINE
8
Image
10
283.738968
20
228.164726
11
283.932524
21
226.795743
0
LINE
8
Image
10
283.932524
20
226.795743
11
283.681262
21
225.323057
0
LINE
8
Image
10
283.681262
20
225.323057
11
281.199394
21
219.481257
0
LINE
8
Image
10
281.199394
20
219.481257
11
280.471200
21
218.181786
0
LINE
8
Image
10
280.471200
20
218.181786
11
279.704319
21
217.279828
0
LINE
8
Image
10
279.704319
20
217.279828
11
278.799429
21
216.686550
0
LINE
8
Image
10
278.799429
20
216.686550
11
277.657210
21
216.313122
0
LINE
8
Image
10
277.657210
20
216.313122
11
271.972539
21
215.550488
0
LINE
8
Image
10
271.972539
20
215.550488
11
269.706716
21
215.387260
0
LINE
8
Image
10
269.706716
20
215.387260
11
268.423872
21
215.456839
0
LINE
8
Image
10
268.423872
20
215.456839
11
268.423872
21
215.456839
0
LINE
8
Image
10
287.376693
20
230.788037
11
284.784521
21
236.403978
0
LINE
8
Image
10
284.784521
20
236.403978
11
284.708389
21
236.731956
0
LINE
8
Image
10
284.708389
20
236.731956
11
284.851106
21
237.029905
0
LINE
8
Image
10
284.851106
20
237.029905
11
286.214063
21
238.008039
0
LINE
8
Image
10
286.214063
20
238.008039
11
287.643922
21
238.924623
0
LINE
8
Image
10
287.643922
20
238.924623
11
288.172479
21
238.864825
0
LINE
8
Image
10
288.172479
20
238.864825
11
289.063049
21
238.626172
0
LINE
8
Image
10
289.063049
20
238.626172
11
289.854619
21
238.102641
0
LINE
8
Image
10
289.854619
20
238.102641
11
292.217530
21
235.213127
0
LINE
8
Image
10
292.217530
20
235.213127
11
294.668865
21
232.073331
0
LINE
8
Image
10
294.668865
20
232.073331
11
295.096669
21
231.396721
0
LINE
8
Image
10
295.096669
20
231.396721
11
294.492150
21
231.486608
0
LINE
8
Image
10
294.492150
20
231.486608
11
293.053824
21
231.757644
0
LINE
8
Image
10
293.053824
20
231.757644
11
292.170173
21
231.810626
0
LINE
8
Image
10
292.170173
20
231.810626
11
291.290669
21
231.706990
0
LINE
8
Image
10
291.290669
20
231.706990
11
289.721828
21
231.267525
0
LINE
8
Image
10
289.721828
20
231.267525
11
288.363111
21
230.552662
0
LINE
8
Image
10
288.363111
20
230.552662
11
287.762614
21
230.146532
0
LINE
8
Image
10
287.762614
20
230.146532
11
287.376693
21
230.788037
0
LINE
8
Image
10
287.376693
20
230.788037
11
287.376693
21
230.788037
 0 
ENDSEC
 0 
EOF