999
"DXF R12 Output" (www.mydxf.blogspot.com)
 0 
SECTION
 2 
HEADER
 9 
$ACADVER
 1 
AC1009
 9 
$EXTMIN
 10 
 0 
 20 
 0 
 9 
$EXTMAX
 10 
 8.5 
 20 
 11 
 0 
ENDSEC
 0 
SECTION
 2 
ENTITIES
0
LINE
8
Image
10
168.356825
20
90.245488
11
167.188852
21
90.530329
0
LINE
8
Image
10
167.188852
20
90.530329
11
166.043555
21
91.006435
0
LINE
8
Image
10
166.043555
20
91.006435
11
164.863008
21
91.703009
0
LINE
8
Image
10
164.863008
20
91.703009
11
163.589288
21
92.649256
0
LINE
8
Image
10
163.589288
20
92.649256
11
162.476957
21
93.409845
0
LINE
8
Image
10
162.476957
20
93.409845
11
145.720897
21
93.499766
0
LINE
8
Image
10
145.720897
20
93.499766
11
129.887184
21
93.613660
0
LINE
8
Image
10
129.887184
20
93.613660
11
127.633487
21
93.845766
0
LINE
8
Image
10
127.633487
20
93.845766
11
126.328982
21
94.313203
0
LINE
8
Image
10
126.328982
20
94.313203
11
125.072532
21
94.920448
0
LINE
8
Image
10
125.072532
20
94.920448
11
124.054634
21
95.653810
0
LINE
8
Image
10
124.054634
20
95.653810
11
123.236820
21
96.547378
0
LINE
8
Image
10
123.236820
20
96.547378
11
122.580627
21
97.635244
0
LINE
8
Image
10
122.580627
20
97.635244
11
122.245936
21
98.426453
0
LINE
8
Image
10
122.245936
20
98.426453
11
121.988369
21
99.470277
0
LINE
8
Image
10
121.988369
20
99.470277
11
121.362732
21
104.142379
0
LINE
8
Image
10
121.362732
20
104.142379
11
120.466069
21
111.650610
0
LINE
8
Image
10
120.466069
20
111.650610
11
118.778454
21
125.974945
0
LINE
8
Image
10
118.778454
20
125.974945
11
118.458860
21
130.727079
0
LINE
8
Image
10
118.458860
20
130.727079
11
118.399824
21
134.613863
0
LINE
8
Image
10
118.399824
20
134.613863
11
118.502240
21
139.061983
0
LINE
8
Image
10
118.502240
20
139.061983
11
119.135211
21
148.190671
0
LINE
8
Image
10
119.135211
20
148.190671
11
119.526320
21
152.639994
0
LINE
8
Image
10
119.526320
20
152.639994
11
120.160147
21
159.814524
0
LINE
8
Image
10
120.160147
20
159.814524
11
120.521755
21
166.063588
0
LINE
8
Image
10
120.521755
20
166.063588
11
120.513695
21
168.635274
0
LINE
8
Image
10
120.513695
20
168.635274
11
120.372843
21
170.492898
0
LINE
8
Image
10
120.372843
20
170.492898
11
119.951793
21
172.689929
0
LINE
8
Image
10
119.951793
20
172.689929
11
119.370892
21
174.575984
0
LINE
8
Image
10
119.370892
20
174.575984
11
118.598412
21
176.234159
0
LINE
8
Image
10
118.598412
20
176.234159
11
117.602619
21
177.747550
0
LINE
8
Image
10
117.602619
20
177.747550
11
116.021933
21
179.460760
0
LINE
8
Image
10
116.021933
20
179.460760
11
111.969890
21
183.242812
0
LINE
8
Image
10
111.969890
20
183.242812
11
109.362716
21
185.873243
0
LINE
8
Image
10
109.362716
20
185.873243
11
108.547397
21
186.958500
0
LINE
8
Image
10
108.547397
20
186.958500
11
107.923165
21
188.050142
0
LINE
8
Image
10
107.923165
20
188.050142
11
107.039484
21
190.353509
0
LINE
8
Image
10
107.039484
20
190.353509
11
106.765950
21
192.628277
0
LINE
8
Image
10
106.765950
20
192.628277
11
106.888967
21
194.249937
0
LINE
8
Image
10
106.888967
20
194.249937
11
107.390699
21
195.751203
0
LINE
8
Image
10
107.390699
20
195.751203
11
108.446889
21
197.498543
0
LINE
8
Image
10
108.446889
20
197.498543
11
110.233281
21
199.858426
0
LINE
8
Image
10
110.233281
20
199.858426
11
111.490934
21
201.471305
0
LINE
8
Image
10
111.490934
20
201.471305
11
113.636359
21
204.238351
0
LINE
8
Image
10
113.636359
20
204.238351
11
116.182978
21
207.540908
0
LINE
8
Image
10
116.182978
20
207.540908
11
118.079482
21
209.737553
0
LINE
8
Image
10
118.079482
20
209.737553
11
119.024964
21
210.282109
0
LINE
8
Image
10
119.024964
20
210.282109
11
119.847906
21
210.564020
0
LINE
8
Image
10
119.847906
20
210.564020
11
120.780630
21
210.695522
0
LINE
8
Image
10
120.780630
20
210.695522
11
121.773221
21
210.673770
0
LINE
8
Image
10
121.773221
20
210.673770
11
122.775767
21
210.495919
0
LINE
8
Image
10
122.775767
20
210.495919
11
124.438665
21
209.990875
0
LINE
8
Image
10
124.438665
20
209.990875
11
126.063809
21
209.290602
0
LINE
8
Image
10
126.063809
20
209.290602
11
130.641052
21
206.588962
0
LINE
8
Image
10
130.641052
20
206.588962
11
132.539915
21
205.510598
0
LINE
8
Image
10
132.539915
20
205.510598
11
134.403191
21
204.707374
0
LINE
8
Image
10
134.403191
20
204.707374
11
136.214422
21
204.185227
0
LINE
8
Image
10
136.214422
20
204.185227
11
137.957148
21
203.950093
0
LINE
8
Image
10
137.957148
20
203.950093
11
139.984483
21
204.052508
0
LINE
8
Image
10
139.984483
20
204.052508
11
140.836941
21
204.293034
0
LINE
8
Image
10
140.836941
20
204.293034
11
141.613529
21
204.679425
0
LINE
8
Image
10
141.613529
20
204.679425
11
142.337954
21
205.226421
0
LINE
8
Image
10
142.337954
20
205.226421
11
143.033917
21
205.948762
0
LINE
8
Image
10
143.033917
20
205.948762
11
144.435278
21
207.978441
0
LINE
8
Image
10
144.435278
20
207.978441
11
146.087360
21
210.759266
0
LINE
8
Image
10
146.087360
20
210.759266
11
149.307941
21
215.564792
0
LINE
8
Image
10
149.307941
20
215.564792
11
149.952219
21
216.191652
0
LINE
8
Image
10
149.952219
20
216.191652
11
150.632718
21
216.531261
0
LINE
8
Image
10
150.632718
20
216.531261
11
151.341379
21
216.581357
0
LINE
8
Image
10
151.341379
20
216.581357
11
152.070140
21
216.339676
0
LINE
8
Image
10
152.070140
20
216.339676
11
154.905497
21
214.627213
0
LINE
8
Image
10
154.905497
20
214.627213
11
155.916819
21
213.739952
0
LINE
8
Image
10
155.916819
20
213.739952
11
156.967683
21
212.594612
0
LINE
8
Image
10
156.967683
20
212.594612
11
159.760208
21
208.868305
0
LINE
8
Image
10
159.760208
20
208.868305
11
160.544936
21
207.224513
0
LINE
8
Image
10
160.544936
20
207.224513
11
160.780397
21
205.566625
0
LINE
8
Image
10
160.780397
20
205.566625
11
160.468292
21
203.966852
0
LINE
8
Image
10
160.468292
20
203.966852
11
159.610319
21
202.497406
0
LINE
8
Image
10
159.610319
20
202.497406
11
158.986888
21
201.849989
0
LINE
8
Image
10
158.986888
20
201.849989
11
158.274960
21
201.342095
0
LINE
8
Image
10
158.274960
20
201.342095
11
156.399271
21
200.636911
0
LINE
8
Image
10
156.399271
20
200.636911
11
155.064476
21
200.220843
0
LINE
8
Image
10
155.064476
20
200.220843
11
154.036672
21
199.728359
0
LINE
8
Image
10
154.036672
20
199.728359
11
153.079176
21
199.092963
0
LINE
8
Image
10
153.079176
20
199.092963
11
151.424911
21
197.456683
0
LINE
8
Image
10
151.424911
20
197.456683
11
150.201292
21
195.438492
0
LINE
8
Image
10
150.201292
20
195.438492
11
149.782102
21
194.325708
0
LINE
8
Image
10
149.782102
20
194.325708
11
149.507926
21
193.164880
0
LINE
8
Image
10
149.507926
20
193.164880
11
149.446841
21
192.321959
0
LINE
8
Image
10
149.446841
20
192.321959
11
149.540716
21
191.444898
0
LINE
8
Image
10
149.540716
20
191.444898
11
150.195133
21
189.579032
0
LINE
8
Image
10
150.195133
20
189.579032
11
157.600907
21
176.277019
0
LINE
8
Image
10
157.600907
20
176.277019
11
160.026638
21
172.483066
0
LINE
8
Image
10
160.026638
20
172.483066
11
162.257717
21
169.556223
0
LINE
8
Image
10
162.257717
20
169.556223
11
164.230326
21
167.571062
0
LINE
8
Image
10
164.230326
20
167.571062
11
165.099759
21
166.954917
0
LINE
8
Image
10
165.099759
20
166.954917
11
165.880643
21
166.602158
0
LINE
8
Image
10
165.880643
20
166.602158
11
168.013718
21
166.462890
0
LINE
8
Image
10
168.013718
20
166.462890
11
175.840626
21
166.432893
0
LINE
8
Image
10
175.840626
20
166.432893
11
184.783047
21
166.514861
0
LINE
8
Image
10
184.783047
20
166.514861
11
185.903063
21
166.756124
0
LINE
8
Image
10
185.903063
20
166.756124
11
186.370641
21
167.254286
0
LINE
8
Image
10
186.370641
20
167.254286
11
187.140011
21
168.314560
0
LINE
8
Image
10
187.140011
20
168.314560
11
187.999720
21
169.396354
0
LINE
8
Image
10
187.999720
20
169.396354
11
188.695190
21
169.930786
0
LINE
8
Image
10
188.695190
20
169.930786
11
198.221594
21
170.030828
0
LINE
8
Image
10
198.221594
20
170.030828
11
207.508245
21
170.082244
0
LINE
8
Image
10
207.508245
20
170.082244
11
207.818993
21
170.454420
0
LINE
8
Image
10
207.818993
20
170.454420
11
208.152731
21
171.007488
0
LINE
8
Image
10
208.152731
20
171.007488
11
208.448173
21
171.943326
0
LINE
8
Image
10
208.448173
20
171.943326
11
209.178015
21
175.998934
0
LINE
8
Image
10
209.178015
20
175.998934
11
209.749000
21
179.183508
0
LINE
8
Image
10
209.749000
20
179.183508
11
210.329773
21
181.373094
0
LINE
8
Image
10
210.329773
20
181.373094
11
210.995709
21
182.785466
0
LINE
8
Image
10
210.995709
20
182.785466
11
211.822184
21
183.638400
0
LINE
8
Image
10
211.822184
20
183.638400
11
212.274838
21
183.952098
0
LINE
8
Image
10
212.274838
20
183.952098
11
230.081652
21
183.983660
0
LINE
8
Image
10
230.081652
20
183.983660
11
248.589153
21
183.896025
0
LINE
8
Image
10
248.589153
20
183.896025
11
249.554475
21
183.607288
0
LINE
8
Image
10
249.554475
20
183.607288
11
250.474043
21
183.088500
0
LINE
8
Image
10
250.474043
20
183.088500
11
251.316525
21
182.361806
0
LINE
8
Image
10
251.316525
20
182.361806
11
252.050592
21
181.449354
0
LINE
8
Image
10
252.050592
20
181.449354
11
252.773513
21
180.108768
0
LINE
8
Image
10
252.773513
20
180.108768
11
253.364088
21
178.382345
0
LINE
8
Image
10
253.364088
20
178.382345
11
253.672581
21
177.278116
0
LINE
8
Image
10
253.672581
20
177.278116
11
253.672581
21
145.521076
0
LINE
8
Image
10
253.672581
20
145.521076
11
253.643789
21
118.210952
0
LINE
8
Image
10
253.643789
20
118.210952
11
253.584048
21
114.070964
0
LINE
8
Image
10
253.584048
20
114.070964
11
253.472964
21
112.818556
0
LINE
8
Image
10
253.472964
20
112.818556
11
252.910307
21
110.782764
0
LINE
8
Image
10
252.910307
20
110.782764
11
252.154814
21
109.057685
0
LINE
8
Image
10
252.154814
20
109.057685
11
251.224180
21
107.675932
0
LINE
8
Image
10
251.224180
20
107.675932
11
250.136104
21
106.670115
0
LINE
8
Image
10
250.136104
20
106.670115
11
249.262405
21
106.116577
0
LINE
8
Image
10
249.262405
20
106.116577
11
248.333394
21
105.733055
0
LINE
8
Image
10
248.333394
20
105.733055
11
245.932754
21
105.554402
0
LINE
8
Image
10
245.932754
20
105.554402
11
234.874195
21
105.477174
0
LINE
8
Image
10
234.874195
20
105.477174
11
221.971162
21
105.421559
0
LINE
8
Image
10
221.971162
20
105.421559
11
221.274774
21
105.043922
0
LINE
8
Image
10
221.274774
20
105.043922
11
219.839776
21
103.871636
0
LINE
8
Image
10
219.839776
20
103.871636
11
217.917827
21
101.525421
0
LINE
8
Image
10
217.917827
20
101.525421
11
214.788036
21
97.705683
0
LINE
8
Image
10
214.788036
20
97.705683
11
213.505315
21
96.488849
0
LINE
8
Image
10
213.505315
20
96.488849
11
212.291723
21
95.608911
0
LINE
8
Image
10
212.291723
20
95.608911
11
210.134095
21
94.501490
0
LINE
8
Image
10
210.134095
20
94.501490
11
208.011411
21
93.852585
0
LINE
8
Image
10
208.011411
20
93.852585
11
204.229488
21
93.410345
0
LINE
8
Image
10
204.229488
20
93.410345
11
186.265347
21
91.687489
0
LINE
8
Image
10
186.265347
20
91.687489
11
182.149724
21
91.295883
0
LINE
8
Image
10
182.149724
20
91.295883
11
176.921771
21
90.794424
0
LINE
8
Image
10
176.921771
20
90.794424
11
170.316249
21
90.182819
0
LINE
8
Image
10
170.316249
20
90.182819
11
169.130795
21
90.153905
0
LINE
8
Image
10
169.130795
20
90.153905
11
168.356825
21
90.245488
0
LINE
8
Image
10
168.356825
20
90.245488
11
168.356825
21
90.245488
0
LINE
8
Image
10
167.281043
20
94.898355
11
165.767896
21
95.984402
0
LINE
8
Image
10
165.767896
20
95.984402
11
164.258005
21
97.023652
0
LINE
8
Image
10
164.258005
20
97.023652
11
163.039598
21
98.043096
0
LINE
8
Image
10
163.039598
20
98.043096
11
161.174476
21
100.026756
0
LINE
8
Image
10
161.174476
20
100.026756
11
160.444732
21
101.055357
0
LINE
8
Image
10
160.444732
20
101.055357
11
159.960164
21
102.017127
0
LINE
8
Image
10
159.960164
20
102.017127
11
159.859912
21
102.803660
0
LINE
8
Image
10
159.859912
20
102.803660
11
159.969310
21
103.821706
0
LINE
8
Image
10
159.969310
20
103.821706
11
160.908146
21
107.034438
0
LINE
8
Image
10
160.908146
20
107.034438
11
161.799030
21
109.272371
0
LINE
8
Image
10
161.799030
20
109.272371
11
162.655929
21
110.488990
0
LINE
8
Image
10
162.655929
20
110.488990
11
163.430404
21
111.080018
0
LINE
8
Image
10
163.430404
20
111.080018
11
164.647688
21
111.566198
0
LINE
8
Image
10
164.647688
20
111.566198
11
170.025322
21
112.710815
0
LINE
8
Image
10
170.025322
20
112.710815
11
171.805050
21
113.039118
0
LINE
8
Image
10
171.805050
20
113.039118
11
172.528066
21
112.659341
0
LINE
8
Image
10
172.528066
20
112.659341
11
174.808342
21
111.668755
0
LINE
8
Image
10
174.808342
20
111.668755
11
176.712992
21
111.004976
0
LINE
8
Image
10
176.712992
20
111.004976
11
179.174240
21
110.408409
0
LINE
8
Image
10
179.174240
20
110.408409
11
179.924820
21
110.202657
0
LINE
8
Image
10
179.924820
20
110.202657
11
180.091755
21
109.983126
0
LINE
8
Image
10
180.091755
20
109.983126
11
179.924497
21
106.811972
0
LINE
8
Image
10
179.924497
20
106.811972
11
179.671822
21
103.045487
0
LINE
8
Image
10
179.671822
20
103.045487
11
179.376797
21
100.720412
0
LINE
8
Image
10
179.376797
20
100.720412
11
178.943111
21
99.348066
0
LINE
8
Image
10
178.943111
20
99.348066
11
178.274451
21
98.439772
0
LINE
8
Image
10
178.274451
20
98.439772
11
177.041110
21
97.576409
0
LINE
8
Image
10
177.041110
20
97.576409
11
175.390274
21
96.802421
0
LINE
8
Image
10
175.390274
20
96.802421
11
174.196560
21
96.359223
0
LINE
8
Image
10
174.196560
20
96.359223
11
169.357925
21
94.699158
0
LINE
8
Image
10
169.357925
20
94.699158
11
168.100030
21
94.546685
0
LINE
8
Image
10
168.100030
20
94.546685
11
167.281043
21
94.898355
0
LINE
8
Image
10
167.281043
20
94.898355
11
167.281043
21
94.898355
0
LINE
8
Image
10
186.089955
20
96.072410
11
185.044604
21
97.041763
0
LINE
8
Image
10
185.044604
20
97.041763
11
184.260673
21
98.029353
0
LINE
8
Image
10
184.260673
20
98.029353
11
183.954177
21
98.698065
0
LINE
8
Image
10
183.954177
20
98.698065
11
183.789156
21
99.407874
0
LINE
8
Image
10
183.789156
20
99.407874
11
183.715638
21
102.251415
0
LINE
8
Image
10
183.715638
20
102.251415
11
183.819532
21
106.180089
0
LINE
8
Image
10
183.819532
20
106.180089
11
184.057100
21
109.286907
0
LINE
8
Image
10
184.057100
20
109.286907
11
184.124963
21
109.815264
0
LINE
8
Image
10
184.124963
20
109.815264
11
184.972690
21
109.816322
0
LINE
8
Image
10
184.972690
20
109.816322
11
186.785515
21
109.937796
0
LINE
8
Image
10
186.785515
20
109.937796
11
188.982278
21
110.252649
0
LINE
8
Image
10
188.982278
20
110.252649
11
191.165907
21
110.692483
0
LINE
8
Image
10
191.165907
20
110.692483
11
192.939332
21
111.188899
0
LINE
8
Image
10
192.939332
20
111.188899
11
196.324653
21
112.568853
0
LINE
8
Image
10
196.324653
20
112.568853
11
196.843557
21
112.799350
0
LINE
8
Image
10
196.843557
20
112.799350
11
197.307287
21
112.715768
0
LINE
8
Image
10
197.307287
20
112.715768
11
198.508184
21
111.961693
0
LINE
8
Image
10
198.508184
20
111.961693
11
199.699980
21
110.516909
0
LINE
8
Image
10
199.699980
20
110.516909
11
202.921344
21
104.754106
0
LINE
8
Image
10
202.921344
20
104.754106
11
203.448703
21
103.526388
0
LINE
8
Image
10
203.448703
20
103.526388
11
203.697966
21
102.495687
0
LINE
8
Image
10
203.697966
20
102.495687
11
203.675655
21
101.606855
0
LINE
8
Image
10
203.675655
20
101.606855
11
203.388288
21
100.804742
0
LINE
8
Image
10
203.388288
20
100.804742
11
202.437115
21
99.589331
0
LINE
8
Image
10
202.437115
20
99.589331
11
201.000969
21
98.228529
0
LINE
8
Image
10
201.000969
20
98.228529
11
199.949053
21
97.366472
0
LINE
8
Image
10
199.949053
20
97.366472
11
199.163176
21
96.912175
0
LINE
8
Image
10
199.163176
20
96.912175
11
196.046610
21
96.631889
0
LINE
8
Image
10
196.046610
20
96.631889
11
190.269739
21
96.078715
0
LINE
8
Image
10
190.269739
20
96.078715
11
186.979819
21
95.760390
0
LINE
8
Image
10
186.979819
20
95.760390
11
186.562838
21
95.796765
0
LINE
8
Image
10
186.562838
20
95.796765
11
186.089955
21
96.072355
0
LINE
8
Image
10
186.089955
20
96.072355
11
186.089955
21
96.072410
0
LINE
8
Image
10
133.707728
20
97.538896
11
134.475442
21
98.417602
0
LINE
8
Image
10
134.475442
20
98.417602
11
135.673788
21
100.094315
0
LINE
8
Image
10
135.673788
20
100.094315
11
136.070583
21
101.013610
0
LINE
8
Image
10
136.070583
20
101.013610
11
136.314686
21
101.952701
0
LINE
8
Image
10
136.314686
20
101.952701
11
136.517407
21
102.827898
0
LINE
8
Image
10
136.517407
20
102.827898
11
136.619838
21
102.902250
0
LINE
8
Image
10
136.619838
20
102.902250
11
136.757730
21
102.800965
0
LINE
8
Image
10
136.757730
20
102.800965
11
138.562170
21
99.640576
0
LINE
8
Image
10
138.562170
20
99.640576
11
138.910121
21
98.698517
0
LINE
8
Image
10
138.910121
20
98.698517
11
138.806841
21
97.898422
0
LINE
8
Image
10
138.806841
20
97.898422
11
138.678002
21
97.468395
0
LINE
8
Image
10
138.678002
20
97.468395
11
136.192864
21
97.468395
0
LINE
8
Image
10
136.192864
20
97.468395
11
133.707728
21
97.538896
0
LINE
8
Image
10
133.707728
20
97.538896
11
133.707728
21
97.538896
0
LINE
8
Image
10
148.751402
20
97.607436
11
149.638821
21
97.915464
0
LINE
8
Image
10
149.638821
20
97.915464
11
152.116799
21
98.427958
0
LINE
8
Image
10
152.116799
20
98.427958
11
154.619543
21
98.625919
0
LINE
8
Image
10
154.619543
20
98.625919
11
156.000041
21
98.589835
0
LINE
8
Image
10
156.000041
20
98.589835
11
156.785570
21
98.325258
0
LINE
8
Image
10
156.785570
20
98.325258
11
157.568583
21
97.888987
0
LINE
8
Image
10
157.568583
20
97.888987
11
157.845302
21
97.562388
0
LINE
8
Image
10
157.845302
20
97.562388
11
153.275477
21
97.468395
0
LINE
8
Image
10
153.275477
20
97.468395
11
149.647612
21
97.496771
0
LINE
8
Image
10
149.647612
20
97.496771
11
148.751402
21
97.607436
0
LINE
8
Image
10
148.751402
20
97.607436
11
148.751402
21
97.607436
0
LINE
8
Image
10
143.287429
20
101.250553
11
142.722953
21
101.499621
0
LINE
8
Image
10
142.722953
20
101.499621
11
142.169416
21
101.999423
0
LINE
8
Image
10
142.169416
20
101.999423
11
140.951040
21
103.915642
0
LINE
8
Image
10
140.951040
20
103.915642
11
140.261289
21
105.536710
0
LINE
8
Image
10
140.261289
20
105.536710
11
140.048740
21
106.918768
0
LINE
8
Image
10
140.048740
20
106.918768
11
140.427517
21
109.978530
0
LINE
8
Image
10
140.427517
20
109.978530
11
141.531260
21
116.155548
0
LINE
8
Image
10
141.531260
20
116.155548
11
142.333166
21
120.438023
0
LINE
8
Image
10
142.333166
20
120.438023
11
142.825306
21
122.751460
0
LINE
8
Image
10
142.825306
20
122.751460
11
151.189664
21
121.897187
0
LINE
8
Image
10
151.189664
20
121.897187
11
152.672493
21
121.557719
0
LINE
8
Image
10
152.672493
20
121.557719
11
153.809000
21
120.872766
0
LINE
8
Image
10
153.809000
20
120.872766
11
154.888873
21
119.584410
0
LINE
8
Image
10
154.888873
20
119.584410
11
156.201802
21
117.434730
0
LINE
8
Image
10
156.201802
20
117.434730
11
157.620213
21
114.874135
0
LINE
8
Image
10
157.620213
20
114.874135
11
158.168453
21
113.557663
0
LINE
8
Image
10
158.168453
20
113.557663
11
158.371856
21
112.543019
0
LINE
8
Image
10
158.371856
20
112.543019
11
158.330629
21
111.421399
0
LINE
8
Image
10
158.330629
20
111.421399
11
158.014722
21
109.976883
0
LINE
8
Image
10
158.014722
20
109.976883
11
157.394085
21
107.993546
0
LINE
8
Image
10
157.394085
20
107.993546
11
156.385623
21
105.324255
0
LINE
8
Image
10
156.385623
20
105.324255
11
155.861492
21
104.447661
0
LINE
8
Image
10
155.861492
20
104.447661
11
155.213543
21
103.791381
0
LINE
8
Image
10
155.213543
20
103.791381
11
154.358863
21
103.291626
0
LINE
8
Image
10
154.358863
20
103.291626
11
153.214536
21
102.884608
0
LINE
8
Image
10
153.214536
20
102.884608
11
149.725289
21
102.093621
0
LINE
8
Image
10
149.725289
20
102.093621
11
145.191964
21
101.265479
0
LINE
8
Image
10
145.191964
20
101.265479
11
144.040004
21
101.173246
0
LINE
8
Image
10
144.040004
20
101.173246
11
143.287429
21
101.250553
0
LINE
8
Image
10
143.287429
20
101.250553
11
143.287429
21
101.250553
0
LINE
8
Image
10
207.399063
20
104.409571
11
205.255740
21
107.931398
0
LINE
8
Image
10
205.255740
20
107.931398
11
203.048135
21
112.095543
0
LINE
8
Image
10
203.048135
20
112.095543
11
202.414393
21
113.781672
0
LINE
8
Image
10
202.414393
20
113.781672
11
202.249850
21
115.218343
0
LINE
8
Image
10
202.249850
20
115.218343
11
202.555725
21
116.428411
0
LINE
8
Image
10
202.555725
20
116.428411
11
203.333239
21
117.434730
0
LINE
8
Image
10
203.333239
20
117.434730
11
205.967018
21
120.326789
0
LINE
8
Image
10
205.967018
20
120.326789
11
206.452734
21
120.938571
0
LINE
8
Image
10
206.452734
20
120.938571
11
207.566480
21
122.558671
0
LINE
8
Image
10
207.566480
20
122.558671
11
208.066478
21
123.434518
0
LINE
8
Image
10
208.066478
20
123.434518
11
208.672172
21
124.536191
0
LINE
8
Image
10
208.672172
20
124.536191
11
208.874947
21
124.778437
0
LINE
8
Image
10
208.874947
20
124.778437
11
209.420321
21
124.894468
0
LINE
8
Image
10
209.420321
20
124.894468
11
213.128131
21
124.784986
0
LINE
8
Image
10
213.128131
20
124.784986
11
214.518547
21
124.617500
0
LINE
8
Image
10
214.518547
20
124.617500
11
216.631975
21
124.385823
0
LINE
8
Image
10
216.631975
20
124.385823
11
218.170705
21
124.275876
0
LINE
8
Image
10
218.170705
20
124.275876
11
219.621697
21
124.037378
0
LINE
8
Image
10
219.621697
20
124.037378
11
220.844980
21
123.578424
0
LINE
8
Image
10
220.844980
20
123.578424
11
222.169755
21
122.159619
0
LINE
8
Image
10
222.169755
20
122.159619
11
222.418525
21
121.385351
0
LINE
8
Image
10
222.418525
20
121.385351
11
222.328083
21
120.102545
0
LINE
8
Image
10
222.328083
20
120.102545
11
221.845723
21
117.999654
0
LINE
8
Image
10
221.845723
20
117.999654
11
220.918741
21
114.765136
0
LINE
8
Image
10
220.918741
20
114.765136
11
219.845441
21
111.169278
0
LINE
8
Image
10
219.845441
20
111.169278
11
219.304049
21
109.353151
0
LINE
8
Image
10
219.304049
20
109.353151
11
218.992060
21
109.415548
0
LINE
8
Image
10
218.992060
20
109.415548
11
216.128711
21
110.723170
0
LINE
8
Image
10
216.128711
20
110.723170
11
214.794973
21
111.410800
0
LINE
8
Image
10
214.794973
20
111.410800
11
213.547297
21
111.881287
0
LINE
8
Image
10
213.547297
20
111.881287
11
212.209921
21
112.012796
0
LINE
8
Image
10
212.209921
20
112.012796
11
210.858604
21
111.754280
0
LINE
8
Image
10
210.858604
20
111.754280
11
209.631506
21
111.151868
0
LINE
8
Image
10
209.631506
20
111.151868
11
208.666783
21
110.251691
0
LINE
8
Image
10
208.666783
20
110.251691
11
208.121947
21
109.371447
0
LINE
8
Image
10
208.121947
20
109.371447
11
207.767193
21
108.425263
0
LINE
8
Image
10
207.767193
20
108.425263
11
207.611485
21
107.446936
0
LINE
8
Image
10
207.611485
20
107.446936
11
207.663788
21
106.470265
0
LINE
8
Image
10
207.663788
20
106.470265
11
207.788755
21
104.969458
0
LINE
8
Image
10
207.788755
20
104.969458
11
207.649342
21
104.253613
0
LINE
8
Image
10
207.649342
20
104.253613
11
207.399068
21
104.409571
0
LINE
8
Image
10
207.399068
20
104.409571
11
207.399063
21
104.409571
0
LINE
8
Image
10
211.960185
20
105.112708
11
211.146480
21
105.498634
0
LINE
8
Image
10
211.146480
20
105.498634
11
210.495012
21
106.245494
0
LINE
8
Image
10
210.495012
20
106.245494
11
210.272861
21
106.922667
0
LINE
8
Image
10
210.272861
20
106.922667
11
210.291356
21
107.584731
0
LINE
8
Image
10
210.291356
20
107.584731
11
210.512902
21
108.193838
0
LINE
8
Image
10
210.512902
20
108.193838
11
210.899904
21
108.712139
0
LINE
8
Image
10
210.899904
20
108.712139
11
211.414769
21
109.101788
0
LINE
8
Image
10
211.414769
20
109.101788
11
212.019903
21
109.324936
0
LINE
8
Image
10
212.019903
20
109.324936
11
212.677710
21
109.343736
0
LINE
8
Image
10
212.677710
20
109.343736
11
213.350598
21
109.120339
0
LINE
8
Image
10
213.350598
20
109.120339
11
213.988967
21
108.628935
0
LINE
8
Image
10
213.988967
20
108.628935
11
214.394721
21
107.992947
0
LINE
8
Image
10
214.394721
20
107.992947
11
214.543388
21
107.272257
0
LINE
8
Image
10
214.543388
20
107.272257
11
214.410496
21
106.526749
0
LINE
8
Image
10
214.410496
20
106.526749
11
214.021056
21
105.859484
0
LINE
8
Image
10
214.021056
20
105.859484
11
213.456831
21
105.386370
0
LINE
8
Image
10
213.456831
20
105.386370
11
212.756860
21
105.129935
0
LINE
8
Image
10
212.756860
20
105.129935
11
211.960185
21
105.112708
0
LINE
8
Image
10
211.960185
20
105.112708
11
211.960185
21
105.112708
0
LINE
8
Image
10
134.653208
20
108.009535
11
133.987783
21
108.649928
0
LINE
8
Image
10
133.987783
20
108.649928
11
133.123770
21
109.255459
0
LINE
8
Image
10
133.123770
20
109.255459
11
131.223283
21
110.103509
0
LINE
8
Image
10
131.223283
20
110.103509
11
130.100319
21
110.294216
0
LINE
8
Image
10
130.100319
20
110.294216
11
128.924611
21
110.310954
0
LINE
8
Image
10
128.924611
20
110.310954
11
127.809412
21
110.160340
0
LINE
8
Image
10
127.809412
20
110.160340
11
126.867974
21
109.848993
0
LINE
8
Image
10
126.867974
20
109.848993
11
126.436026
21
109.732215
0
LINE
8
Image
10
126.436026
20
109.732215
11
125.733617
21
109.922907
0
LINE
8
Image
10
125.733617
20
109.922907
11
125.066334
21
110.155301
0
LINE
8
Image
10
125.066334
20
110.155301
11
124.727089
21
110.385684
0
LINE
8
Image
10
124.727089
20
110.385684
11
124.578050
21
110.794482
0
LINE
8
Image
10
124.578050
20
110.794482
11
124.481388
21
111.562118
0
LINE
8
Image
10
124.481388
20
111.562118
11
123.970470
21
115.860988
0
LINE
8
Image
10
123.970470
20
115.860988
11
123.598348
21
118.959038
0
LINE
8
Image
10
123.598348
20
118.959038
11
123.863259
21
119.558051
0
LINE
8
Image
10
123.863259
20
119.558051
11
124.454704
21
120.563331
0
LINE
8
Image
10
124.454704
20
120.563331
11
125.274084
21
121.236770
0
LINE
8
Image
10
125.274084
20
121.236770
11
126.651299
21
121.790903
0
LINE
8
Image
10
126.651299
20
121.790903
11
129.314023
21
122.211470
0
LINE
8
Image
10
129.314023
20
122.211470
11
135.279938
21
122.813371
0
LINE
8
Image
10
135.279938
20
122.813371
11
136.867937
21
122.811457
0
LINE
8
Image
10
136.867937
20
122.811457
11
137.767736
21
122.619298
0
LINE
8
Image
10
137.767736
20
122.619298
11
138.581278
21
121.993546
0
LINE
8
Image
10
138.581278
20
121.993546
11
138.813606
21
121.518436
0
LINE
8
Image
10
138.813606
20
121.518436
11
138.934277
21
120.884109
0
LINE
8
Image
10
138.934277
20
120.884109
11
138.854559
21
118.984617
0
LINE
8
Image
10
138.854559
20
118.984617
11
138.369948
21
115.988700
0
LINE
8
Image
10
138.369948
20
115.988700
11
137.553311
21
111.815079
0
LINE
8
Image
10
137.553311
20
111.815079
11
137.030335
21
109.842069
0
LINE
8
Image
10
137.030335
20
109.842069
11
136.472428
21
108.610444
0
LINE
8
Image
10
136.472428
20
108.610444
11
135.795730
21
107.947530
0
LINE
8
Image
10
135.795730
20
107.947530
11
135.123802
21
107.670324
0
LINE
8
Image
10
135.123802
20
107.670324
11
134.653208
21
108.009535
0
LINE
8
Image
10
134.653208
20
108.009535
11
134.653208
21
108.009535
0
LINE
8
Image
10
222.506003
20
109.552596
11
223.989951
21
114.598287
0
LINE
8
Image
10
223.989951
20
114.598287
11
225.075689
21
117.587913
0
LINE
8
Image
10
225.075689
20
117.587913
11
225.598516
21
118.599478
0
LINE
8
Image
10
225.598516
20
118.599478
11
226.150035
21
119.333066
0
LINE
8
Image
10
226.150035
20
119.333066
11
226.761783
21
119.821819
0
LINE
8
Image
10
226.761783
20
119.821819
11
227.465301
21
120.098876
0
LINE
8
Image
10
227.465301
20
120.098876
11
228.292127
21
120.197379
0
LINE
8
Image
10
228.292127
20
120.197379
11
229.273801
21
120.150469
0
LINE
8
Image
10
229.273801
20
120.150469
11
234.297684
21
119.300113
0
LINE
8
Image
10
234.297684
20
119.300113
11
236.699977
21
118.742989
0
LINE
8
Image
10
236.699977
20
118.742989
11
238.113101
21
118.290643
0
LINE
8
Image
10
238.113101
20
118.290643
11
238.899327
21
117.758432
0
LINE
8
Image
10
238.899327
20
117.758432
11
239.267902
21
117.290726
0
LINE
8
Image
10
239.267902
20
117.290726
11
238.998184
21
116.675906
0
LINE
8
Image
10
238.998184
20
116.675906
11
238.512976
21
115.559479
0
LINE
8
Image
10
238.512976
20
115.559479
11
238.235611
21
114.294165
0
LINE
8
Image
10
238.235611
20
114.294165
11
238.179527
21
112.983754
0
LINE
8
Image
10
238.179527
20
112.983754
11
238.358160
21
111.732038
0
LINE
8
Image
10
238.358160
20
111.732038
11
238.877473
21
110.241613
0
LINE
8
Image
10
238.877473
20
110.241613
11
239.132253
21
109.575181
0
LINE
8
Image
10
239.132253
20
109.575181
11
230.822005
21
109.448818
0
LINE
8
Image
10
230.822005
20
109.448818
11
222.506003
21
109.552586
0
LINE
8
Image
10
222.506003
20
109.552586
11
222.506003
21
109.552596
0
LINE
8
Image
10
182.162493
20
115.165315
11
179.742727
21
115.559957
0
LINE
8
Image
10
179.742727
20
115.559957
11
177.402269
21
116.219094
0
LINE
8
Image
10
177.402269
20
116.219094
11
175.158764
21
117.131850
0
LINE
8
Image
10
175.158764
20
117.131850
11
173.029854
21
118.287352
0
LINE
8
Image
10
173.029854
20
118.287352
11
171.033183
21
119.674723
0
LINE
8
Image
10
171.033183
20
119.674723
11
169.186395
21
121.283089
0
LINE
8
Image
10
169.186395
20
121.283089
11
167.507133
21
123.101576
0
LINE
8
Image
10
167.507133
20
123.101576
11
166.013040
21
125.119308
0
LINE
8
Image
10
166.013040
20
125.119308
11
164.827801
21
127.210384
0
LINE
8
Image
10
164.827801
20
127.210384
11
164.074353
21
128.817123
0
LINE
8
Image
10
164.074353
20
128.817123
11
163.846902
21
129.459533
0
LINE
8
Image
10
163.846902
20
129.459533
11
163.137822
21
131.810487
0
LINE
8
Image
10
163.137822
20
131.810487
11
162.622856
21
134.726415
0
LINE
8
Image
10
162.622856
20
134.726415
11
162.550721
21
137.796318
0
LINE
8
Image
10
162.550721
20
137.796318
11
162.790964
21
140.772814
0
LINE
8
Image
10
162.790964
20
140.772814
11
163.737372
21
144.368605
0
LINE
8
Image
10
163.737372
20
144.368605
11
165.187849
21
147.650930
0
LINE
8
Image
10
165.187849
20
147.650930
11
167.135646
21
150.607401
0
LINE
8
Image
10
167.135646
20
150.607401
11
169.574018
21
153.225632
0
LINE
8
Image
10
169.574018
20
153.225632
11
171.242641
21
154.646022
0
LINE
8
Image
10
171.242641
20
154.646022
11
172.528066
21
155.543681
0
LINE
8
Image
10
172.528066
20
155.543681
11
173.028614
21
155.880789
0
LINE
8
Image
10
173.028614
20
155.880789
11
173.974096
21
156.418014
0
LINE
8
Image
10
173.974096
20
156.418014
11
174.863960
21
156.872308
0
LINE
8
Image
10
174.863960
20
156.872308
11
176.999981
21
157.777908
0
LINE
8
Image
10
176.999981
20
157.777908
11
179.541587
21
158.574847
0
LINE
8
Image
10
179.541587
20
158.574847
11
181.768891
21
158.923825
0
LINE
8
Image
10
181.768891
20
158.923825
11
184.298929
21
159.053603
0
LINE
8
Image
10
184.298929
20
159.053603
11
186.845952
21
158.962030
0
LINE
8
Image
10
186.845952
20
158.962030
11
189.124209
21
158.646956
0
LINE
8
Image
10
189.124209
20
158.646956
11
190.895297
21
158.176754
0
LINE
8
Image
10
190.895297
20
158.176754
11
192.752216
21
157.504124
0
LINE
8
Image
10
192.752216
20
157.504124
11
194.569256
21
156.680271
0
LINE
8
Image
10
194.569256
20
156.680271
11
196.220706
21
155.756398
0
LINE
8
Image
10
196.220706
20
155.756398
11
198.734212
21
153.920378
0
LINE
8
Image
10
198.734212
20
153.920378
11
200.959224
21
151.754844
0
LINE
8
Image
10
200.959224
20
151.754844
11
202.861365
21
149.298296
0
LINE
8
Image
10
202.861365
20
149.298296
11
204.406256
21
146.589237
0
LINE
8
Image
10
204.406256
20
146.589237
11
205.649357
21
143.374820
0
LINE
8
Image
10
205.649357
20
143.374820
11
206.365583
21
140.063669
0
LINE
8
Image
10
206.365583
20
140.063669
11
206.565235
21
136.716694
0
LINE
8
Image
10
206.565235
20
136.716694
11
206.258617
21
133.394806
0
LINE
8
Image
10
206.258617
20
133.394806
11
205.456032
21
130.158915
0
LINE
8
Image
10
205.456032
20
130.158915
11
204.167780
21
127.069931
0
LINE
8
Image
10
204.167780
20
127.069931
11
202.404166
21
124.188765
0
LINE
8
Image
10
202.404166
20
124.188765
11
200.175492
21
121.576327
0
LINE
8
Image
10
200.175492
20
121.576327
11
198.516734
21
120.060166
0
LINE
8
Image
10
198.516734
20
120.060166
11
196.779461
21
118.756339
0
LINE
8
Image
10
196.779461
20
118.756339
11
194.937633
21
117.647290
0
LINE
8
Image
10
194.937633
20
117.647290
11
192.965211
21
116.715464
0
LINE
8
Image
10
192.965211
20
116.715464
11
190.398158
21
115.847367
0
LINE
8
Image
10
190.398158
20
115.847367
11
187.674519
21
115.289957
0
LINE
8
Image
10
187.674519
20
115.289957
11
184.895547
21
115.057763
0
LINE
8
Image
10
184.895547
20
115.057763
11
182.162493
21
115.165315
0
LINE
8
Image
10
182.162493
20
115.165315
11
182.162493
21
115.165315
0
LINE
8
Image
10
163.175641
20
115.370814
11
162.263878
21
115.694020
0
LINE
8
Image
10
162.263878
20
115.694020
11
161.416602
21
116.340103
0
LINE
8
Image
10
161.416602
20
116.340103
11
160.591261
21
117.351219
0
LINE
8
Image
10
160.591261
20
117.351219
11
159.745307
21
118.769525
0
LINE
8
Image
10
159.745307
20
118.769525
11
159.062527
21
119.993089
0
LINE
8
Image
10
159.062527
20
119.993089
11
158.263372
21
121.494735
0
LINE
8
Image
10
158.263372
20
121.494735
11
157.858758
21
122.449302
0
LINE
8
Image
10
157.858758
20
122.449302
11
157.790790
21
123.449609
0
LINE
8
Image
10
157.790790
20
123.449609
11
157.853364
21
124.437561
0
LINE
8
Image
10
157.853364
20
124.437561
11
158.231852
21
125.319153
0
LINE
8
Image
10
158.231852
20
125.319153
11
158.968099
21
126.531568
0
LINE
8
Image
10
158.968099
20
126.531568
11
159.262178
21
126.883825
0
LINE
8
Image
10
159.262178
20
126.883825
11
159.933489
21
125.478244
0
LINE
8
Image
10
159.933489
20
125.478244
11
161.622788
21
122.414781
0
LINE
8
Image
10
161.622788
20
122.414781
11
163.651621
21
119.638900
0
LINE
8
Image
10
163.651621
20
119.638900
11
165.327640
21
117.823380
0
LINE
8
Image
10
165.327640
20
117.823380
11
166.956294
21
116.317365
0
LINE
8
Image
10
166.956294
20
116.317365
11
167.518115
21
115.751221
0
LINE
8
Image
10
167.518115
20
115.751221
11
166.979965
21
115.556109
0
LINE
8
Image
10
166.979965
20
115.556109
11
165.714231
21
115.395905
0
LINE
8
Image
10
165.714231
20
115.395905
11
163.175641
21
115.370814
0
LINE
8
Image
10
163.175641
20
115.370814
11
163.175641
21
115.370814
0
LINE
8
Image
10
248.836303
20
119.338537
11
247.653811
21
119.926051
0
LINE
8
Image
10
247.653811
20
119.926051
11
246.386817
21
120.292317
0
LINE
8
Image
10
246.386817
20
120.292317
11
244.939482
21
120.346077
0
LINE
8
Image
10
244.939482
20
120.346077
11
243.475037
21
120.207782
0
LINE
8
Image
10
243.475037
20
120.207782
11
243.186002
21
120.228032
0
LINE
8
Image
10
243.186002
20
120.228032
11
242.932506
21
120.616804
0
LINE
8
Image
10
242.932506
20
120.616804
11
242.739650
21
121.529904
0
LINE
8
Image
10
242.739650
20
121.529904
11
242.985139
21
122.941624
0
LINE
8
Image
10
242.985139
20
122.941624
11
243.746937
21
125.130676
0
LINE
8
Image
10
243.746937
20
125.130676
11
245.103010
21
128.375775
0
LINE
8
Image
10
245.103010
20
128.375775
11
246.219657
21
131.005163
0
LINE
8
Image
10
246.219657
20
131.005163
11
248.282788
21
135.383959
0
LINE
8
Image
10
248.282788
20
135.383959
11
249.039846
21
136.552535
0
LINE
8
Image
10
249.039846
20
136.552535
11
249.566415
21
136.956132
0
LINE
8
Image
10
249.566415
20
136.956132
11
249.695517
21
135.336487
0
LINE
8
Image
10
249.695517
20
135.336487
11
249.723810
21
127.946253
0
LINE
8
Image
10
249.723810
20
127.946253
11
249.695605
21
120.766192
0
LINE
8
Image
10
249.695605
20
120.766192
11
249.584769
21
118.947693
0
LINE
8
Image
10
249.584769
20
118.947693
11
248.836303
21
119.338537
0
LINE
8
Image
10
248.836303
20
119.338537
11
248.836303
21
119.338537
0
LINE
8
Image
10
234.818579
20
123.337612
11
227.456653
21
124.843896
0
LINE
8
Image
10
227.456653
20
124.843896
11
226.739856
21
125.132153
0
LINE
8
Image
10
226.739856
20
125.132153
11
226.107584
21
125.650448
0
LINE
8
Image
10
226.107584
20
125.650448
11
225.194994
21
126.705650
0
LINE
8
Image
10
225.194994
20
126.705650
11
224.898206
21
127.548740
0
LINE
8
Image
10
224.898206
20
127.548740
11
225.022256
21
129.089849
0
LINE
8
Image
10
225.022256
20
129.089849
11
225.681229
21
131.973671
0
LINE
8
Image
10
225.681229
20
131.973671
11
226.989206
21
136.844899
0
LINE
8
Image
10
226.989206
20
136.844899
11
228.327411
21
141.189497
0
LINE
8
Image
10
228.327411
20
141.189497
11
228.856294
21
142.300693
0
LINE
8
Image
10
228.856294
20
142.300693
11
229.418715
21
143.027730
0
LINE
8
Image
10
229.418715
20
143.027730
11
230.006797
21
143.518252
0
LINE
8
Image
10
230.006797
20
143.518252
11
230.647338
21
143.862029
0
LINE
8
Image
10
230.647338
20
143.862029
11
231.770755
21
144.096777
0
LINE
8
Image
10
231.770755
20
144.096777
11
235.597210
21
144.130663
0
LINE
8
Image
10
235.597210
20
144.130663
11
239.288729
21
144.097212
0
LINE
8
Image
10
239.288729
20
144.097212
11
240.543544
21
143.925844
0
LINE
8
Image
10
240.543544
20
143.925844
11
241.934512
21
143.211721
0
LINE
8
Image
10
241.934512
20
143.211721
11
243.613154
21
141.642993
0
LINE
8
Image
10
243.613154
20
141.642993
11
245.095834
21
139.813202
0
LINE
8
Image
10
245.095834
20
139.813202
11
245.365568
21
139.107531
0
LINE
8
Image
10
245.365568
20
139.107531
11
245.428154
21
138.346545
0
LINE
8
Image
10
245.428154
20
138.346545
11
245.330126
21
137.427777
0
LINE
8
Image
10
245.330126
20
137.427777
11
244.944908
21
136.129676
0
LINE
8
Image
10
244.944908
20
136.129676
11
242.583225
21
130.342653
0
LINE
8
Image
10
242.583225
20
130.342653
11
241.244863
21
127.300310
0
LINE
8
Image
10
241.244863
20
127.300310
11
240.227944
21
125.318618
0
LINE
8
Image
10
240.227944
20
125.318618
11
239.379996
21
124.139116
0
LINE
8
Image
10
239.379996
20
124.139116
11
238.548546
21
123.503346
0
LINE
8
Image
10
238.548546
20
123.503346
11
237.894880
21
123.266120
0
LINE
8
Image
10
237.894880
20
123.266120
11
236.880051
21
123.197650
0
LINE
8
Image
10
236.880051
20
123.197650
11
234.818579
21
123.337612
0
LINE
8
Image
10
234.818579
20
123.337612
11
234.818579
21
123.337612
0
LINE
8
Image
10
124.894913
20
124.988281
11
123.889226
21
125.495261
0
LINE
8
Image
10
123.889226
20
125.495261
11
123.013537
21
126.281121
0
LINE
8
Image
10
123.013537
20
126.281121
11
122.729396
21
126.816840
0
LINE
8
Image
10
122.729396
20
126.816840
11
122.583307
21
127.949616
0
LINE
8
Image
10
122.583307
20
127.949616
11
122.399654
21
133.067265
0
LINE
8
Image
10
122.399654
20
133.067265
11
122.329019
21
136.909095
0
LINE
8
Image
10
122.329019
20
136.909095
11
122.878460
21
137.679209
0
LINE
8
Image
10
122.878460
20
137.679209
11
123.568821
21
138.458424
0
LINE
8
Image
10
123.568821
20
138.458424
11
124.366816
21
138.885819
0
LINE
8
Image
10
124.366816
20
138.885819
11
125.443054
21
139.011763
0
LINE
8
Image
10
125.443054
20
139.011763
11
126.968146
21
138.886625
0
LINE
8
Image
10
126.968146
20
138.886625
11
131.611675
21
138.018224
0
LINE
8
Image
10
131.611675
20
138.018224
11
133.652110
21
137.557757
0
LINE
8
Image
10
133.652110
20
137.557757
11
135.499176
21
137.016126
0
LINE
8
Image
10
135.499176
20
137.016126
11
136.784286
21
136.338429
0
LINE
8
Image
10
136.784286
20
136.338429
11
137.403537
21
135.612631
0
LINE
8
Image
10
137.403537
20
135.612631
11
137.901133
21
134.592075
0
LINE
8
Image
10
137.901133
20
134.592075
11
138.910107
21
130.069328
0
LINE
8
Image
10
138.910107
20
130.069328
11
139.571782
21
126.134172
0
LINE
8
Image
10
139.571782
20
126.134172
11
137.474520
21
125.795416
0
LINE
8
Image
10
137.474520
20
125.795416
11
130.370736
21
125.045352
0
LINE
8
Image
10
130.370736
20
125.045352
11
127.243749
21
124.877565
0
LINE
8
Image
10
127.243749
20
124.877565
11
124.894913
21
124.988281
0
LINE
8
Image
10
124.894913
20
124.988281
11
124.894913
21
124.988281
0
LINE
8
Image
10
150.114605
20
126.124274
11
148.056792
21
126.335898
0
LINE
8
Image
10
148.056792
20
126.335898
11
145.654495
21
126.676896
0
LINE
8
Image
10
145.654495
20
126.676896
11
144.263317
21
127.126313
0
LINE
8
Image
10
144.263317
20
127.126313
11
143.493282
21
127.882646
0
LINE
8
Image
10
143.493282
20
127.882646
11
142.936214
21
129.035459
0
LINE
8
Image
10
142.936214
20
129.035459
11
142.164758
21
132.502220
0
LINE
8
Image
10
142.164758
20
132.502220
11
141.639572
21
135.899417
0
LINE
8
Image
10
141.639572
20
135.899417
11
141.657054
21
137.161552
0
LINE
8
Image
10
141.657054
20
137.161552
11
141.978551
21
138.374385
0
LINE
8
Image
10
141.978551
20
138.374385
11
142.765691
21
139.943500
0
LINE
8
Image
10
142.765691
20
139.943500
11
144.180103
21
142.274478
0
LINE
8
Image
10
144.180103
20
142.274478
11
145.645757
21
144.442271
0
LINE
8
Image
10
145.645757
20
144.442271
11
146.610764
21
145.294788
0
LINE
8
Image
10
146.610764
20
145.294788
11
147.835477
21
145.719934
0
LINE
8
Image
10
147.835477
20
145.719934
11
148.999628
21
145.966009
0
LINE
8
Image
10
148.999628
20
145.966009
11
150.265298
21
145.616938
0
LINE
8
Image
10
150.265298
20
145.616938
11
152.617348
21
144.457185
0
LINE
8
Image
10
152.617348
20
144.457185
11
157.706160
21
141.685757
0
LINE
8
Image
10
157.706160
20
141.685757
11
157.555541
21
140.450806
0
LINE
8
Image
10
157.555541
20
140.450806
11
157.378906
21
138.420465
0
LINE
8
Image
10
157.378906
20
138.420465
11
157.380582
21
136.135441
0
LINE
8
Image
10
157.380582
20
136.135441
11
157.552213
21
133.817658
0
LINE
8
Image
10
157.552213
20
133.817658
11
157.885444
21
131.689039
0
LINE
8
Image
10
157.885444
20
131.689039
11
158.045353
21
130.926886
0
LINE
8
Image
10
158.045353
20
130.926886
11
157.038432
21
129.589284
0
LINE
8
Image
10
157.038432
20
129.589284
11
155.304881
21
127.488185
0
LINE
8
Image
10
155.304881
20
127.488185
11
153.991928
21
126.491777
0
LINE
8
Image
10
153.991928
20
126.491777
11
153.154426
21
126.160559
0
LINE
8
Image
10
153.154426
20
126.160559
11
151.845335
21
126.095609
0
LINE
8
Image
10
151.845335
20
126.095609
11
150.114605
21
126.124274
0
LINE
8
Image
10
150.114605
20
126.124274
11
150.114605
21
126.124274
0
LINE
8
Image
10
217.132523
20
128.810490
11
210.769376
21
129.489627
0
LINE
8
Image
10
210.769376
20
129.489627
11
210.955881
21
130.616462
0
LINE
8
Image
10
210.955881
20
130.616462
11
211.579430
21
134.367967
0
LINE
8
Image
10
211.579430
20
134.367967
11
211.663437
21
138.460528
0
LINE
8
Image
10
211.663437
20
138.460528
11
211.445514
21
140.851128
0
LINE
8
Image
10
211.445514
20
140.851128
11
211.011603
21
143.236140
0
LINE
8
Image
10
211.011603
20
143.236140
11
210.373644
21
145.563069
0
LINE
8
Image
10
210.373644
20
145.563069
11
209.543579
21
147.779421
0
LINE
8
Image
10
209.543579
20
147.779421
11
209.303639
21
148.337178
0
LINE
8
Image
10
209.303639
20
148.337178
11
209.686430
21
148.661578
0
LINE
8
Image
10
209.686430
20
148.661578
11
210.506002
21
149.223824
0
LINE
8
Image
10
210.506002
20
149.223824
11
211.560469
21
149.557859
0
LINE
8
Image
10
211.560469
20
149.557859
11
213.219645
21
149.733084
0
LINE
8
Image
10
213.219645
20
149.733084
11
215.853341
21
149.818901
0
LINE
8
Image
10
215.853341
20
149.818901
11
218.760206
21
149.838459
0
LINE
8
Image
10
218.760206
20
149.838459
11
220.489603
21
149.634601
0
LINE
8
Image
10
220.489603
20
149.634601
11
221.669372
21
149.033632
0
LINE
8
Image
10
221.669372
20
149.033632
11
222.927354
21
147.861860
0
LINE
8
Image
10
222.927354
20
147.861860
11
224.079958
21
146.616531
0
LINE
8
Image
10
224.079958
20
146.616531
11
224.722288
21
145.624283
0
LINE
8
Image
10
224.722288
20
145.624283
11
224.961668
21
144.645146
0
LINE
8
Image
10
224.961668
20
144.645146
11
224.905422
21
143.439154
0
LINE
8
Image
10
224.905422
20
143.439154
11
223.650813
21
138.079446
0
LINE
8
Image
10
223.650813
20
138.079446
11
221.971037
21
132.185918
0
LINE
8
Image
10
221.971037
20
132.185918
11
220.990358
21
130.136896
0
LINE
8
Image
10
220.990358
20
130.136896
11
220.439484
21
129.498995
0
LINE
8
Image
10
220.439484
20
129.498995
11
219.841324
21
129.108818
0
LINE
8
Image
10
219.841324
20
129.108818
11
218.601782
21
128.869183
0
LINE
8
Image
10
218.601782
20
128.869183
11
217.132523
21
128.810490
0
LINE
8
Image
10
217.132523
20
128.810490
11
217.132523
21
128.810490
0
LINE
8
Image
10
135.264990
20
140.015117
11
133.429646
21
140.352166
0
LINE
8
Image
10
133.429646
20
140.352166
11
129.122855
21
141.231419
0
LINE
8
Image
10
129.122855
20
141.231419
11
126.008519
21
142.018423
0
LINE
8
Image
10
126.008519
20
142.018423
11
125.092601
21
142.416476
0
LINE
8
Image
10
125.092601
20
142.416476
11
124.474978
21
142.830708
0
LINE
8
Image
10
124.474978
20
142.830708
11
124.188089
21
143.231878
0
LINE
8
Image
10
124.188089
20
143.231878
11
124.264372
21
143.590742
0
LINE
8
Image
10
124.264372
20
143.590742
11
125.282895
21
144.421934
0
LINE
8
Image
10
125.282895
20
144.421934
11
129.819530
21
147.223453
0
LINE
8
Image
10
129.819530
20
147.223453
11
131.444313
21
148.423252
0
LINE
8
Image
10
131.444313
20
148.423252
11
132.011130
21
149.089526
0
LINE
8
Image
10
132.011130
20
149.089526
11
132.459870
21
149.845370
0
LINE
8
Image
10
132.459870
20
149.845370
11
132.819765
21
150.748272
0
LINE
8
Image
10
132.819765
20
150.748272
11
132.873479
21
152.025333
0
LINE
8
Image
10
132.873479
20
152.025333
11
132.822462
21
153.286369
0
LINE
8
Image
10
132.822462
20
153.286369
11
132.503754
21
154.118883
0
LINE
8
Image
10
132.503754
20
154.118883
11
131.533155
21
155.518741
0
LINE
8
Image
10
131.533155
20
155.518741
11
131.003748
21
156.239219
0
LINE
8
Image
10
131.003748
20
156.239219
11
131.717888
21
156.296961
0
LINE
8
Image
10
131.717888
20
156.296961
11
132.802415
21
155.921773
0
LINE
8
Image
10
132.802415
20
155.921773
11
134.795198
21
154.469698
0
LINE
8
Image
10
134.795198
20
154.469698
11
137.546578
21
152.059604
0
LINE
8
Image
10
137.546578
20
152.059604
11
140.111274
21
149.563830
0
LINE
8
Image
10
140.111274
20
149.563830
11
141.544005
21
147.854716
0
LINE
8
Image
10
141.544005
20
147.854716
11
141.798465
21
147.256617
0
LINE
8
Image
10
141.798465
20
147.256617
11
141.856464
21
146.689024
0
LINE
8
Image
10
141.856464
20
146.689024
11
141.555174
21
145.456622
0
LINE
8
Image
10
141.555174
20
145.456622
11
140.818671
21
144.049775
0
LINE
8
Image
10
140.818671
20
144.049775
11
140.381713
21
143.333414
0
LINE
8
Image
10
140.381713
20
143.333414
11
138.758319
21
140.963533
0
LINE
8
Image
10
138.758319
20
140.963533
11
137.790810
21
140.223823
0
LINE
8
Image
10
137.790810
20
140.223823
11
136.432938
21
140.001237
0
LINE
8
Image
10
136.432938
20
140.001237
11
135.264990
21
140.015127
0
LINE
8
Image
10
135.264990
20
140.015127
11
135.264990
21
140.015117
0
LINE
8
Image
10
157.845302
20
145.313407
11
155.657484
21
146.544406
0
LINE
8
Image
10
155.657484
20
146.544406
11
153.344767
21
147.980540
0
LINE
8
Image
10
153.344767
20
147.980540
11
152.182937
21
149.055685
0
LINE
8
Image
10
152.182937
20
149.055685
11
151.817416
21
150.037060
0
LINE
8
Image
10
151.817416
20
150.037060
11
151.852264
21
151.455605
0
LINE
8
Image
10
151.852264
20
151.455605
11
152.382488
21
153.436587
0
LINE
8
Image
10
152.382488
20
153.436587
11
153.832612
21
157.454012
0
LINE
8
Image
10
153.832612
20
157.454012
11
154.920077
21
157.592315
0
LINE
8
Image
10
154.920077
20
157.592315
11
156.227458
21
157.777024
0
LINE
8
Image
10
156.227458
20
157.777024
11
157.456279
21
158.185769
0
LINE
8
Image
10
157.456279
20
158.185769
11
158.579334
21
158.806637
0
LINE
8
Image
10
158.579334
20
158.806637
11
159.569415
21
159.627718
0
LINE
8
Image
10
159.569415
20
159.627718
11
160.596232
21
160.912979
0
LINE
8
Image
10
160.596232
20
160.912979
11
161.301269
21
162.459111
0
LINE
8
Image
10
161.301269
20
162.459111
11
161.758736
21
163.341228
0
LINE
8
Image
10
161.758736
20
163.341228
11
162.431155
21
162.764968
0
LINE
8
Image
10
162.431155
20
162.764968
11
163.639958
21
161.411531
0
LINE
8
Image
10
163.639958
20
161.411531
11
166.497542
21
157.853993
0
LINE
8
Image
10
166.497542
20
157.853993
11
166.538247
21
157.711409
0
LINE
8
Image
10
166.538247
20
157.711409
11
166.426688
21
157.496501
0
LINE
8
Image
10
166.426688
20
157.496501
11
165.491954
21
156.508819
0
LINE
8
Image
10
165.491954
20
156.508819
11
163.201511
21
153.969474
0
LINE
8
Image
10
163.201511
20
153.969474
11
161.394265
21
151.360811
0
LINE
8
Image
10
161.394265
20
151.360811
11
160.755204
21
150.382188
0
LINE
8
Image
10
160.755204
20
150.382188
11
160.560296
21
150.048488
0
LINE
8
Image
10
160.560296
20
150.048488
11
159.977825
21
148.746835
0
LINE
8
Image
10
159.977825
20
148.746835
11
158.653246
21
145.465460
0
LINE
8
Image
10
158.653246
20
145.465460
11
158.390826
21
145.127038
0
LINE
8
Image
10
158.390826
20
145.127038
11
157.845302
21
145.313407
0
LINE
8
Image
10
157.845302
20
145.313407
11
157.845302
21
145.313407
0
LINE
8
Image
10
248.521513
20
146.105050
11
247.328983
21
147.459958
0
LINE
8
Image
10
247.328983
20
147.459958
11
246.988140
21
148.070323
0
LINE
8
Image
10
246.988140
20
148.070323
11
246.804650
21
148.718189
0
LINE
8
Image
10
246.804650
20
148.718189
11
246.870943
21
150.373106
0
LINE
8
Image
10
246.870943
20
150.373106
11
247.450293
21
152.918076
0
LINE
8
Image
10
247.450293
20
152.918076
11
248.710407
21
157.600476
0
LINE
8
Image
10
248.710407
20
157.600476
11
249.032193
21
158.487054
0
LINE
8
Image
10
249.032193
20
158.487054
11
249.262938
21
158.773684
0
LINE
8
Image
10
249.262938
20
158.773684
11
249.622853
21
158.807079
0
LINE
8
Image
10
249.622853
20
158.807079
11
249.723810
21
151.966029
0
LINE
8
Image
10
249.723810
20
151.966029
11
249.695397
21
146.499539
0
LINE
8
Image
10
249.695397
20
146.499539
11
249.577038
21
145.187378
0
LINE
8
Image
10
249.577038
20
145.187378
11
248.521513
21
146.105050
0
LINE
8
Image
10
248.521513
20
146.105050
11
248.521513
21
146.105050
0
LINE
8
Image
10
230.869805
20
148.529477
11
229.538622
21
148.766967
0
LINE
8
Image
10
229.538622
20
148.766967
11
228.557847
21
149.215239
0
LINE
8
Image
10
228.557847
20
149.215239
11
226.868771
21
150.783868
0
LINE
8
Image
10
226.868771
20
150.783868
11
225.417673
21
152.551631
0
LINE
8
Image
10
225.417673
20
152.551631
11
225.100514
21
153.484286
0
LINE
8
Image
10
225.100514
20
153.484286
11
225.125114
21
154.815377
0
LINE
8
Image
10
225.125114
20
154.815377
11
225.542139
21
156.941552
0
LINE
8
Image
10
225.542139
20
156.941552
11
226.402252
21
160.259457
0
LINE
8
Image
10
226.402252
20
160.259457
11
227.805488
21
165.001737
0
LINE
8
Image
10
227.805488
20
165.001737
11
228.322366
21
166.231844
0
LINE
8
Image
10
228.322366
20
166.231844
11
228.855752
21
167.090107
0
LINE
8
Image
10
228.855752
20
167.090107
11
229.496701
21
167.696479
0
LINE
8
Image
10
229.496701
20
167.696479
11
230.430504
21
168.182229
0
LINE
8
Image
10
230.430504
20
168.182229
11
231.678322
21
168.555691
0
LINE
8
Image
10
231.678322
20
168.555691
11
233.261315
21
168.825200
0
LINE
8
Image
10
233.261315
20
168.825200
11
236.097759
21
169.211962
0
LINE
8
Image
10
236.097759
20
169.211962
11
238.634501
21
169.495399
0
LINE
8
Image
10
238.634501
20
169.495399
11
239.962586
21
169.449819
0
LINE
8
Image
10
239.962586
20
169.449819
11
240.267965
21
169.330852
0
LINE
8
Image
10
240.267965
20
169.330852
11
239.842042
21
168.671874
0
LINE
8
Image
10
239.842042
20
168.671874
11
239.100495
21
167.083852
0
LINE
8
Image
10
239.100495
20
167.083852
11
238.839737
21
166.093944
0
LINE
8
Image
10
238.839737
20
166.093944
11
238.784872
21
164.875629
0
LINE
8
Image
10
238.784872
20
164.875629
11
238.839412
21
163.659636
0
LINE
8
Image
10
238.839412
20
163.659636
11
239.096791
21
162.678630
0
LINE
8
Image
10
239.096791
20
162.678630
11
239.935102
21
160.992083
0
LINE
8
Image
10
239.935102
20
160.992083
11
241.159687
21
159.591348
0
LINE
8
Image
10
241.159687
20
159.591348
11
242.467646
21
158.700369
0
LINE
8
Image
10
242.467646
20
158.700369
11
243.756844
21
158.137317
0
LINE
8
Image
10
243.756844
20
158.137317
11
244.016321
21
158.009793
0
LINE
8
Image
10
244.016321
20
158.009793
11
244.009021
21
157.650582
0
LINE
8
Image
10
244.009021
20
157.650582
11
243.493190
21
155.802451
0
LINE
8
Image
10
243.493190
20
155.802451
11
242.251312
21
152.083115
0
LINE
8
Image
10
242.251312
20
152.083115
11
241.231047
21
149.963114
0
LINE
8
Image
10
241.231047
20
149.963114
11
240.697293
21
149.347921
0
LINE
8
Image
10
240.697293
20
149.347921
11
240.090873
21
148.946632
0
LINE
8
Image
10
240.090873
20
148.946632
11
238.489269
21
148.537856
0
LINE
8
Image
10
238.489269
20
148.537856
11
234.781308
21
148.445704
0
LINE
8
Image
10
234.781308
20
148.445704
11
230.869805
21
148.529469
0
LINE
8
Image
10
230.869805
20
148.529469
11
230.869805
21
148.529477
0
LINE
8
Image
10
144.108018
20
149.545603
11
141.989896
21
151.188687
0
LINE
8
Image
10
141.989896
20
151.188687
11
141.125061
21
151.946466
0
LINE
8
Image
10
141.125061
20
151.946466
11
139.402314
21
153.503727
0
LINE
8
Image
10
139.402314
20
153.503727
11
136.989213
21
155.698901
0
LINE
8
Image
10
136.989213
20
155.698901
11
133.623784
21
159.031403
0
LINE
8
Image
10
133.623784
20
159.031403
11
133.314282
21
159.736203
0
LINE
8
Image
10
133.314282
20
159.736203
11
133.313134
21
160.700673
0
LINE
8
Image
10
133.313134
20
160.700673
11
133.461424
21
161.284923
0
LINE
8
Image
10
133.461424
20
161.284923
11
133.854135
21
161.798473
0
LINE
8
Image
10
133.854135
20
161.798473
11
136.001165
21
163.546187
0
LINE
8
Image
10
136.001165
20
163.546187
11
137.105963
21
164.319465
0
LINE
8
Image
10
137.105963
20
164.319465
11
140.822592
21
166.883073
0
LINE
8
Image
10
140.822592
20
166.883073
11
142.495141
21
167.842623
0
LINE
8
Image
10
142.495141
20
167.842623
11
143.512402
21
168.168911
0
LINE
8
Image
10
143.512402
20
168.168911
11
144.500098
21
168.187272
0
LINE
8
Image
10
144.500098
20
168.187272
11
145.592216
21
167.879030
0
LINE
8
Image
10
145.592216
20
167.879030
11
146.922744
21
167.225512
0
LINE
8
Image
10
146.922744
20
167.225512
11
147.708911
21
166.736180
0
LINE
8
Image
10
147.708911
20
166.736180
11
147.783099
21
166.377275
0
LINE
8
Image
10
147.783099
20
166.377275
11
147.651564
21
164.972747
0
LINE
8
Image
10
147.651564
20
164.972747
11
147.672425
21
163.735841
0
LINE
8
Image
10
147.672425
20
163.735841
11
147.897676
21
162.565074
0
LINE
8
Image
10
147.897676
20
162.565074
11
148.328639
21
161.455862
0
LINE
8
Image
10
148.328639
20
161.455862
11
148.966632
21
160.403621
0
LINE
8
Image
10
148.966632
20
160.403621
11
149.869852
21
159.430769
0
LINE
8
Image
10
149.869852
20
159.430769
11
150.810246
21
158.658982
0
LINE
8
Image
10
150.810246
20
158.658982
11
150.947566
21
158.488289
0
LINE
8
Image
10
150.947566
20
158.488289
11
150.803155
21
158.014108
0
LINE
8
Image
10
150.803155
20
158.014108
11
150.177041
21
156.255068
0
LINE
8
Image
10
150.177041
20
156.255068
11
148.657960
21
152.191329
0
LINE
8
Image
10
148.657960
20
152.191329
11
147.647149
21
150.300231
0
LINE
8
Image
10
147.647149
20
150.300231
11
146.922274
21
149.745537
0
LINE
8
Image
10
146.922274
20
149.745537
11
145.966296
21
149.408322
0
LINE
8
Image
10
145.966296
20
149.408322
11
144.965960
21
149.328405
0
LINE
8
Image
10
144.965960
20
149.328405
11
144.108012
21
149.545603
0
LINE
8
Image
10
144.108012
20
149.545603
11
144.108018
21
149.545603
0
LINE
8
Image
10
127.068894
20
150.006670
11
126.498219
21
150.316771
0
LINE
8
Image
10
126.498219
20
150.316771
11
126.067232
21
150.761636
0
LINE
8
Image
10
126.067232
20
150.761636
11
125.794693
21
151.314656
0
LINE
8
Image
10
125.794693
20
151.314656
11
125.699364
21
151.949218
0
LINE
8
Image
10
125.699364
20
151.949218
11
125.772885
21
152.546714
0
LINE
8
Image
10
125.772885
20
152.546714
11
125.979980
21
153.071297
0
LINE
8
Image
10
125.979980
20
153.071297
11
126.708147
21
153.846842
0
LINE
8
Image
10
126.708147
20
153.846842
11
127.710370
21
154.166106
0
LINE
8
Image
10
127.710370
20
154.166106
11
128.260035
21
154.120336
0
LINE
8
Image
10
128.260035
20
154.120336
11
128.813152
21
153.919340
0
LINE
8
Image
10
128.813152
20
153.919340
11
129.483495
21
153.291833
0
LINE
8
Image
10
129.483495
20
153.291833
11
129.909549
21
152.434746
0
LINE
8
Image
10
129.909549
20
152.434746
11
129.955527
21
151.844918
0
LINE
8
Image
10
129.955527
20
151.844918
11
129.838541
21
151.295547
0
LINE
8
Image
10
129.838541
20
151.295547
11
129.212427
21
150.400870
0
LINE
8
Image
10
129.212427
20
150.400870
11
128.224710
21
149.916112
0
LINE
8
Image
10
128.224710
20
149.916112
11
127.655720
21
149.879139
0
LINE
8
Image
10
127.655720
20
149.879139
11
127.068894
21
150.006670
0
LINE
8
Image
10
127.068894
20
150.006670
11
127.068894
21
150.006670
0
LINE
8
Image
10
211.570870
20
154.096491
11
210.253043
21
154.553669
0
LINE
8
Image
10
210.253043
20
154.553669
11
209.497972
21
155.040922
0
LINE
8
Image
10
209.497972
20
155.040922
11
208.694555
21
155.882757
0
LINE
8
Image
10
208.694555
20
155.882757
11
205.990031
21
159.803303
0
LINE
8
Image
10
205.990031
20
159.803303
11
204.502065
21
162.221549
0
LINE
8
Image
10
204.502065
20
162.221549
11
203.744514
21
163.924694
0
LINE
8
Image
10
203.744514
20
163.924694
11
203.614166
21
165.266712
0
LINE
8
Image
10
203.614166
20
165.266712
11
204.007810
21
166.601578
0
LINE
8
Image
10
204.007810
20
166.601578
11
204.221582
21
167.100291
0
LINE
8
Image
10
204.221582
20
167.100291
11
205.970145
21
167.100291
0
LINE
8
Image
10
205.970145
20
167.100291
11
207.500664
21
167.139219
0
LINE
8
Image
10
207.500664
20
167.139219
11
208.189827
21
167.328356
0
LINE
8
Image
10
208.189827
20
167.328356
11
208.895930
21
167.891832
0
LINE
8
Image
10
208.895930
20
167.891832
11
209.490307
21
168.862316
0
LINE
8
Image
10
209.490307
20
168.862316
11
209.988680
21
170.274080
0
LINE
8
Image
10
209.988680
20
170.274080
11
210.406768
21
172.161396
0
LINE
8
Image
10
210.406768
20
172.161396
11
210.727059
21
173.401538
0
LINE
8
Image
10
210.727059
20
173.401538
11
213.706818
21
174.247066
0
LINE
8
Image
10
213.706818
20
174.247066
11
217.201966
21
174.886032
0
LINE
8
Image
10
217.201966
20
174.886032
11
217.951960
21
174.809355
0
LINE
8
Image
10
217.951960
20
174.809355
11
218.686408
21
174.567179
0
LINE
8
Image
10
218.686408
20
174.567179
11
220.250396
21
173.522993
0
LINE
8
Image
10
220.250396
20
173.522993
11
222.625372
21
171.320260
0
LINE
8
Image
10
222.625372
20
171.320260
11
223.928539
21
169.744917
0
LINE
8
Image
10
223.928539
20
169.744917
11
224.255556
21
168.969315
0
LINE
8
Image
10
224.255556
20
168.969315
11
224.299680
21
167.767688
0
LINE
8
Image
10
224.299680
20
167.767688
11
224.098944
21
165.769506
0
LINE
8
Image
10
224.098944
20
165.769506
11
222.961379
21
161.371788
0
LINE
8
Image
10
222.961379
20
161.371788
11
221.975874
21
157.967097
0
LINE
8
Image
10
221.975874
20
157.967097
11
221.286410
21
156.167650
0
LINE
8
Image
10
221.286410
20
156.167650
11
220.796192
21
155.405324
0
LINE
8
Image
10
220.796192
20
155.405324
11
220.180486
21
154.831977
0
LINE
8
Image
10
220.180486
20
154.831977
11
219.417361
21
154.432128
0
LINE
8
Image
10
219.417361
20
154.432128
11
218.484884
21
154.190294
0
LINE
8
Image
10
218.484884
20
154.190294
11
214.973133
21
154.042879
0
LINE
8
Image
10
214.973133
20
154.042879
11
211.570870
21
154.096491
0
LINE
8
Image
10
211.570870
20
154.096491
11
211.570870
21
154.096491
0
LINE
8
Image
10
201.837978
20
158.047626
11
199.411942
21
159.840702
0
LINE
8
Image
10
199.411942
20
159.840702
11
196.749065
21
161.397820
0
LINE
8
Image
10
196.749065
20
161.397820
11
196.452611
21
161.626185
0
LINE
8
Image
10
196.452611
20
161.626185
11
196.577600
21
161.781674
0
LINE
8
Image
10
196.577600
20
161.781674
11
198.032348
21
161.852903
0
LINE
8
Image
10
198.032348
20
161.852903
11
198.856224
21
161.761344
0
LINE
8
Image
10
198.856224
20
161.761344
11
199.535103
21
161.545798
0
LINE
8
Image
10
199.535103
20
161.545798
11
200.143963
21
161.171946
0
LINE
8
Image
10
200.143963
20
161.171946
11
200.757783
21
160.605471
0
LINE
8
Image
10
200.757783
20
160.605471
11
202.135273
21
158.811387
0
LINE
8
Image
10
202.135273
20
158.811387
11
203.117157
21
157.293882
0
LINE
8
Image
10
203.117157
20
157.293882
11
203.048396
21
157.206179
0
LINE
8
Image
10
203.048396
20
157.206179
11
202.827195
21
157.293779
0
LINE
8
Image
10
202.827195
20
157.293779
11
201.837978
21
158.047626
0
LINE
8
Image
10
201.837978
20
158.047626
11
201.837978
21
158.047626
0
LINE
8
Image
10
126.569472
20
159.564250
11
125.568710
21
160.664171
0
LINE
8
Image
10
125.568710
20
160.664171
11
124.929232
21
161.688052
0
LINE
8
Image
10
124.929232
20
161.688052
11
124.570776
21
162.808339
0
LINE
8
Image
10
124.570776
20
162.808339
11
124.413081
21
164.197484
0
LINE
8
Image
10
124.413081
20
164.197484
11
124.246047
21
166.400699
0
LINE
8
Image
10
124.246047
20
166.400699
11
124.148015
21
167.615918
0
LINE
8
Image
10
124.148015
20
167.615918
11
124.240226
21
167.878921
0
LINE
8
Image
10
124.240226
20
167.878921
11
128.294130
21
163.672491
0
LINE
8
Image
10
128.294130
20
163.672491
11
129.220932
21
162.454816
0
LINE
8
Image
10
129.220932
20
162.454816
11
129.544028
21
161.803844
0
LINE
8
Image
10
129.544028
20
161.803844
11
129.562284
21
161.093706
0
LINE
8
Image
10
129.562284
20
161.093706
11
129.285218
21
159.925757
0
LINE
8
Image
10
129.285218
20
159.925757
11
128.557003
21
158.990690
0
LINE
8
Image
10
128.557003
20
158.990690
11
127.857809
21
158.424111
0
LINE
8
Image
10
127.857809
20
158.424111
11
126.569472
21
159.564250
0
LINE
8
Image
10
126.569472
20
159.564250
11
126.569472
21
159.564250
0
LINE
8
Image
10
168.386426
20
160.060798
11
165.854663
21
163.346175
0
LINE
8
Image
10
165.854663
20
163.346175
11
171.304501
21
163.429598
0
LINE
8
Image
10
171.304501
20
163.429598
11
176.430440
21
163.349766
0
LINE
8
Image
10
176.430440
20
163.349766
11
176.724215
21
163.283267
0
LINE
8
Image
10
176.724215
20
163.283267
11
176.711953
21
163.187785
0
LINE
8
Image
10
176.711953
20
163.187785
11
175.947404
21
162.889145
0
LINE
8
Image
10
175.947404
20
162.889145
11
172.727531
21
161.575585
0
LINE
8
Image
10
172.727531
20
161.575585
11
169.832878
21
159.961148
0
LINE
8
Image
10
169.832878
20
159.961148
11
169.047024
21
159.474183
0
LINE
8
Image
10
169.047024
20
159.474183
11
168.386426
21
160.060798
0
LINE
8
Image
10
168.386426
20
160.060798
11
168.386426
21
160.060798
0
LINE
8
Image
10
189.294722
20
165.211530
11
188.459873
21
165.533616
0
LINE
8
Image
10
188.459873
20
165.533616
11
187.923846
21
165.892903
0
LINE
8
Image
10
187.923846
20
165.892903
11
188.324136
21
166.444778
0
LINE
8
Image
10
188.324136
20
166.444778
11
189.046175
21
166.930767
0
LINE
8
Image
10
189.046175
20
166.930767
11
198.820414
21
167.034756
0
LINE
8
Image
10
198.820414
20
167.034756
11
198.970775
21
166.945658
0
LINE
8
Image
10
198.970775
20
166.945658
11
198.955243
21
166.841008
0
LINE
8
Image
10
198.955243
20
166.841008
11
198.361944
21
166.511345
0
LINE
8
Image
10
198.361944
20
166.511345
11
196.899811
21
166.046383
0
LINE
8
Image
10
196.899811
20
166.046383
11
194.011956
21
165.547760
0
LINE
8
Image
10
194.011956
20
165.547760
11
190.946227
21
165.175395
0
LINE
8
Image
10
190.946227
20
165.175395
11
189.294722
21
165.211530
0
LINE
8
Image
10
189.294722
20
165.211530
11
189.294722
21
165.211530
0
LINE
8
Image
10
131.396098
20
165.368656
11
130.171767
21
166.110480
0
LINE
8
Image
10
130.171767
20
166.110480
11
128.125723
21
168.060772
0
LINE
8
Image
10
128.125723
20
168.060772
11
125.548456
21
170.776436
0
LINE
8
Image
10
125.548456
20
170.776436
11
124.243547
21
172.420862
0
LINE
8
Image
10
124.243547
20
172.420862
11
123.770270
21
173.279470
0
LINE
8
Image
10
123.770270
20
173.279470
11
123.587269
21
174.055485
0
LINE
8
Image
10
123.587269
20
174.055485
11
123.688860
21
174.859135
0
LINE
8
Image
10
123.688860
20
174.859135
11
124.069364
21
175.800647
0
LINE
8
Image
10
124.069364
20
175.800647
11
125.476482
21
178.111100
0
LINE
8
Image
10
125.476482
20
178.111100
11
126.740414
21
179.970161
0
LINE
8
Image
10
126.740414
20
179.970161
11
127.929245
21
181.473736
0
LINE
8
Image
10
127.929245
20
181.473736
11
129.125305
21
182.360704
0
LINE
8
Image
10
129.125305
20
182.360704
11
130.537049
21
182.731612
0
LINE
8
Image
10
130.537049
20
182.731612
11
132.372931
21
182.687007
0
LINE
8
Image
10
132.372931
20
182.687007
11
138.379515
21
181.938153
0
LINE
8
Image
10
138.379515
20
181.938153
11
139.585503
21
181.543048
0
LINE
8
Image
10
139.585503
20
181.543048
11
140.440476
21
180.912766
0
LINE
8
Image
10
140.440476
20
180.912766
11
140.998917
21
179.987338
0
LINE
8
Image
10
140.998917
20
179.987338
11
141.315310
21
178.706798
0
LINE
8
Image
10
141.315310
20
178.706798
11
141.820283
21
174.640786
0
LINE
8
Image
10
141.820283
20
174.640786
11
141.834742
21
172.717560
0
LINE
8
Image
10
141.834742
20
172.717560
11
141.510836
21
171.780204
0
LINE
8
Image
10
141.510836
20
171.780204
11
140.898591
21
170.906277
0
LINE
8
Image
10
140.898591
20
170.906277
11
139.862808
21
169.945244
0
LINE
8
Image
10
139.862808
20
169.945244
11
138.268284
21
168.746568
0
LINE
8
Image
10
138.268284
20
168.746568
11
135.416997
21
166.768564
0
LINE
8
Image
10
135.416997
20
166.768564
11
133.567436
21
165.667274
0
LINE
8
Image
10
133.567436
20
165.667274
11
132.350252
21
165.261154
0
LINE
8
Image
10
132.350252
20
165.261154
11
131.396098
21
165.368656
0
LINE
8
Image
10
131.396098
20
165.368656
11
131.396098
21
165.368656
0
LINE
8
Image
10
148.826630
20
170.300687
11
146.911393
21
171.658966
0
LINE
8
Image
10
146.911393
20
171.658966
11
146.341799
21
172.421289
0
LINE
8
Image
10
146.341799
20
172.421289
11
145.851723
21
173.496190
0
LINE
8
Image
10
145.851723
20
173.496190
11
145.420042
21
175.674618
0
LINE
8
Image
10
145.420042
20
175.674618
11
145.000541
21
179.169077
0
LINE
8
Image
10
145.000541
20
179.169077
11
144.898623
21
180.718543
0
LINE
8
Image
10
144.898623
20
180.718543
11
144.972469
21
181.802774
0
LINE
8
Image
10
144.972469
20
181.802774
11
145.263671
21
182.640774
0
LINE
8
Image
10
145.263671
20
182.640774
11
145.813819
21
183.451549
0
LINE
8
Image
10
145.813819
20
183.451549
11
147.649404
21
185.503438
0
LINE
8
Image
10
147.649404
20
185.503438
11
148.839651
21
186.454841
0
LINE
8
Image
10
148.839651
20
186.454841
11
150.759052
21
183.173467
0
LINE
8
Image
10
150.759052
20
183.173467
11
151.781396
21
181.338121
0
LINE
8
Image
10
151.781396
20
181.338121
11
152.900068
21
179.335926
0
LINE
8
Image
10
152.900068
20
179.335926
11
156.334655
21
173.466052
0
LINE
8
Image
10
156.334655
20
173.466052
11
157.619874
21
171.386739
0
LINE
8
Image
10
157.619874
20
171.386739
11
157.683598
21
171.043094
0
LINE
8
Image
10
157.683598
20
171.043094
11
157.206847
21
171.142338
0
LINE
8
Image
10
157.206847
20
171.142338
11
155.455873
21
171.591432
0
LINE
8
Image
10
155.455873
20
171.591432
11
153.567204
21
171.545343
0
LINE
8
Image
10
153.567204
20
171.545343
11
151.755281
21
171.036243
0
LINE
8
Image
10
151.755281
20
171.036243
11
150.234540
21
170.096304
0
LINE
8
Image
10
150.234540
20
170.096304
11
149.766220
21
169.772330
0
LINE
8
Image
10
149.766220
20
169.772330
11
148.826630
21
170.300687
0
LINE
8
Image
10
148.826630
20
170.300687
11
148.826630
21
170.300687
0
LINE
8
Image
10
228.200546
20
172.959150
11
227.484323
21
173.272642
0
LINE
8
Image
10
227.484323
20
173.272642
11
226.648269
21
173.833368
0
LINE
8
Image
10
226.648269
20
173.833368
11
224.316788
21
175.925570
0
LINE
8
Image
10
224.316788
20
175.925570
11
222.401945
21
178.000818
0
LINE
8
Image
10
222.401945
20
178.000818
11
222.020225
21
178.722026
0
LINE
8
Image
10
222.020225
20
178.722026
11
221.844667
21
179.488294
0
LINE
8
Image
10
221.844667
20
179.488294
11
221.772889
21
180.011936
0
LINE
8
Image
10
221.772889
20
180.011936
11
229.547110
21
179.978395
0
LINE
8
Image
10
229.547110
20
179.978395
11
236.386220
21
179.917844
0
LINE
8
Image
10
236.386220
20
179.917844
11
237.452981
21
179.842665
0
LINE
8
Image
10
237.452981
20
179.842665
11
237.952213
21
179.704990
0
LINE
8
Image
10
237.952213
20
179.704990
11
239.257338
21
179.022451
0
LINE
8
Image
10
239.257338
20
179.022451
11
240.124373
21
178.209967
0
LINE
8
Image
10
240.124373
20
178.209967
11
240.379855
21
177.679703
0
LINE
8
Image
10
240.379855
20
177.679703
11
240.470932
21
176.954449
0
LINE
8
Image
10
240.470932
20
176.954449
11
240.329578
21
175.765769
0
LINE
8
Image
10
240.329578
20
175.765769
11
239.616871
21
174.780050
0
LINE
8
Image
10
239.616871
20
174.780050
11
238.885836
21
174.238466
0
LINE
8
Image
10
238.885836
20
174.238466
11
237.759352
21
173.822027
0
LINE
8
Image
10
237.759352
20
173.822027
11
233.159893
21
173.054567
0
LINE
8
Image
10
233.159893
20
173.054567
11
230.076880
21
172.791919
0
LINE
8
Image
10
230.076880
20
172.791919
11
228.200546
21
172.959150
0
LINE
8
Image
10
228.200546
20
172.959150
11
228.200546
21
172.959150
0
LINE
8
Image
10
244.326936
20
173.929284
11
243.856333
21
174.254089
0
LINE
8
Image
10
243.856333
20
174.254089
11
243.447893
21
174.748514
0
LINE
8
Image
10
243.447893
20
174.748514
11
243.160009
21
175.322929
0
LINE
8
Image
10
243.160009
20
175.322929
11
243.051071
21
175.887703
0
LINE
8
Image
10
243.051071
20
175.887703
11
243.222790
21
176.607811
0
LINE
8
Image
10
243.222790
20
176.607811
11
243.638126
21
177.297724
0
LINE
8
Image
10
243.638126
20
177.297724
11
244.174258
21
177.743037
0
LINE
8
Image
10
244.174258
20
177.743037
11
244.775064
21
177.974391
0
LINE
8
Image
10
244.775064
20
177.974391
11
245.398576
21
178.008493
0
LINE
8
Image
10
245.398576
20
178.008493
11
246.002828
21
177.862050
0
LINE
8
Image
10
246.002828
20
177.862050
11
246.545854
21
177.551768
0
LINE
8
Image
10
246.545854
20
177.551768
11
246.985688
21
177.094354
0
LINE
8
Image
10
246.985688
20
177.094354
11
247.280364
21
176.506514
0
LINE
8
Image
10
247.280364
20
176.506514
11
247.387915
21
175.804955
0
LINE
8
Image
10
247.387915
20
175.804955
11
247.287126
21
175.239810
0
LINE
8
Image
10
247.287126
20
175.239810
11
247.011308
21
174.700046
0
LINE
8
Image
10
247.011308
20
174.700046
11
246.600283
21
174.243435
0
LINE
8
Image
10
246.600283
20
174.243435
11
246.093874
21
173.927746
0
LINE
8
Image
10
246.093874
20
173.927746
11
245.204006
21
173.784309
0
LINE
8
Image
10
245.204006
20
173.784309
11
244.326936
21
173.929334
0
LINE
8
Image
10
244.326936
20
173.929334
11
244.326936
21
173.929284
0
LINE
8
Image
10
119.718484
20
178.307021
11
117.975340
21
180.349605
0
LINE
8
Image
10
117.975340
20
180.349605
11
114.186326
21
183.895760
0
LINE
8
Image
10
114.186326
20
183.895760
11
111.637090
21
186.310777
0
LINE
8
Image
10
111.637090
20
186.310777
11
110.357249
21
187.849112
0
LINE
8
Image
10
110.357249
20
187.849112
11
109.290566
21
189.810759
0
LINE
8
Image
10
109.290566
20
189.810759
11
108.774590
21
191.627180
0
LINE
8
Image
10
108.774590
20
191.627180
11
108.735906
21
192.072113
0
LINE
8
Image
10
108.735906
20
192.072113
11
109.681388
21
192.309232
0
LINE
8
Image
10
109.681388
20
192.309232
11
111.862740
21
192.875011
0
LINE
8
Image
10
111.862740
20
192.875011
11
113.098609
21
193.203674
0
LINE
8
Image
10
113.098609
20
193.203674
11
113.849136
21
192.449004
0
LINE
8
Image
10
113.849136
20
192.449004
11
114.897276
21
191.588340
0
LINE
8
Image
10
114.897276
20
191.588340
11
116.087393
21
190.962309
0
LINE
8
Image
10
116.087393
20
190.962309
11
117.396721
21
190.580090
0
LINE
8
Image
10
117.396721
20
190.580090
11
118.802498
21
190.450867
0
LINE
8
Image
10
118.802498
20
190.450867
11
120.602692
21
190.664281
0
LINE
8
Image
10
120.602692
20
190.664281
11
122.226667
21
191.308164
0
LINE
8
Image
10
122.226667
20
191.308164
11
122.925627
21
191.697882
0
LINE
8
Image
10
122.925627
20
191.697882
11
123.294368
21
190.883900
0
LINE
8
Image
10
123.294368
20
190.883900
11
124.802961
21
187.342013
0
LINE
8
Image
10
124.802961
20
187.342013
11
125.226245
21
185.505041
0
LINE
8
Image
10
125.226245
20
185.505041
11
125.182303
21
184.642294
0
LINE
8
Image
10
125.182303
20
184.642294
11
124.860714
21
183.678917
0
LINE
8
Image
10
124.860714
20
183.678917
11
122.979999
21
180.559490
0
LINE
8
Image
10
122.979999
20
180.559490
11
120.607337
21
177.222498
0
LINE
8
Image
10
120.607337
20
177.222498
11
119.718484
21
178.307021
0
LINE
8
Image
10
119.718484
20
178.307021
11
119.718484
21
178.307021
0
LINE
8
Image
10
211.459636
20
177.941341
11
211.744980
21
178.843356
0
LINE
8
Image
10
211.744980
20
178.843356
11
212.247596
21
179.696066
0
LINE
8
Image
10
212.247596
20
179.696066
11
212.554854
21
180.003326
0
LINE
8
Image
10
212.554854
20
180.003326
11
214.621223
21
180.003326
0
LINE
8
Image
10
214.621223
20
180.003326
11
216.570632
21
179.919170
0
LINE
8
Image
10
216.570632
20
179.919170
11
216.683978
21
179.762248
0
LINE
8
Image
10
216.683978
20
179.762248
11
216.378285
21
179.482786
0
LINE
8
Image
10
216.378285
20
179.482786
11
214.908658
21
178.731884
0
LINE
8
Image
10
214.908658
20
178.731884
11
212.497818
21
178.006277
0
LINE
8
Image
10
212.497818
20
178.006277
11
211.572604
21
177.795690
0
LINE
8
Image
10
211.572604
20
177.795690
11
211.469556
21
177.827424
0
LINE
8
Image
10
211.469556
20
177.827424
11
211.459636
21
177.941341
0
LINE
8
Image
10
211.459636
20
177.941341
11
211.459636
21
177.941341
0
LINE
8
Image
10
137.767736
20
185.530539
11
134.764441
21
185.900892
0
LINE
8
Image
10
134.764441
20
185.900892
11
131.016097
21
186.529896
0
LINE
8
Image
10
131.016097
20
186.529896
11
130.054304
21
186.932880
0
LINE
8
Image
10
130.054304
20
186.932880
11
129.326390
21
187.505307
0
LINE
8
Image
10
129.326390
20
187.505307
11
128.749222
21
188.223936
0
LINE
8
Image
10
128.749222
20
188.223936
11
128.079483
21
189.400075
0
LINE
8
Image
10
128.079483
20
189.400075
11
126.146174
21
193.745122
0
LINE
8
Image
10
126.146174
20
193.745122
11
125.496985
21
195.306902
0
LINE
8
Image
10
125.496985
20
195.306902
11
125.660809
21
195.914168
0
LINE
8
Image
10
125.660809
20
195.914168
11
125.774371
21
197.744997
0
LINE
8
Image
10
125.774371
20
197.744997
11
125.724108
21
198.968562
0
LINE
8
Image
10
125.724108
20
198.968562
11
126.166396
21
200.019697
0
LINE
8
Image
10
126.166396
20
200.019697
11
126.993915
21
201.846946
0
LINE
8
Image
10
126.993915
20
201.846946
11
127.694664
21
203.015178
0
LINE
8
Image
10
127.694664
20
203.015178
11
128.380203
21
203.671196
0
LINE
8
Image
10
128.380203
20
203.671196
11
129.162092
21
203.961806
0
LINE
8
Image
10
129.162092
20
203.961806
11
129.460972
21
203.951597
0
LINE
8
Image
10
129.460972
20
203.951597
11
129.986921
21
203.682392
0
LINE
8
Image
10
129.986921
20
203.682392
11
132.999633
21
201.569169
0
LINE
8
Image
10
132.999633
20
201.569169
11
137.656502
21
198.206705
0
LINE
8
Image
10
137.656502
20
198.206705
11
144.942266
21
192.407250
0
LINE
8
Image
10
144.942266
20
192.407250
11
145.442815
21
191.895208
0
LINE
8
Image
10
145.442815
20
191.895208
11
145.442021
21
191.038178
0
LINE
8
Image
10
145.442021
20
191.038178
11
145.391407
21
190.319127
0
LINE
8
Image
10
145.391407
20
190.319127
11
145.194328
21
189.700530
0
LINE
8
Image
10
145.194328
20
189.700530
11
144.082207
21
188.178994
0
LINE
8
Image
10
144.082207
20
188.178994
11
142.510139
21
186.489882
0
LINE
8
Image
10
142.510139
20
186.489882
11
141.451528
21
185.721065
0
LINE
8
Image
10
141.451528
20
185.721065
11
140.748479
21
185.501604
0
LINE
8
Image
10
140.748479
20
185.501604
11
139.491671
21
185.471497
0
LINE
8
Image
10
139.491671
20
185.471497
11
137.767558
21
185.530539
0
LINE
8
Image
10
137.767558
20
185.530539
11
137.767736
21
185.530539
0
LINE
8
Image
10
109.903852
20
196.113888
11
111.271746
21
197.939656
0
LINE
8
Image
10
111.271746
20
197.939656
11
111.530053
21
198.209507
0
LINE
8
Image
10
111.530053
20
198.209507
11
111.690239
21
198.211751
0
LINE
8
Image
10
111.690239
20
198.211751
11
111.794816
21
197.320403
0
LINE
8
Image
10
111.794816
20
197.320403
11
111.794816
21
196.395262
0
LINE
8
Image
10
111.794816
20
196.395262
11
110.988375
21
196.206648
0
LINE
8
Image
10
110.988375
20
196.206648
11
110.106828
21
196.030580
0
LINE
8
Image
10
110.106828
20
196.030580
11
109.903852
21
196.113888
0
LINE
8
Image
10
109.903852
20
196.113888
11
109.903852
21
196.113888
0
LINE
8
Image
10
122.285857
20
203.522379
11
121.125760
21
204.066079
0
LINE
8
Image
10
121.125760
20
204.066079
11
119.807064
21
204.384324
0
LINE
8
Image
10
119.807064
20
204.384324
11
118.444235
21
204.460287
0
LINE
8
Image
10
118.444235
20
204.460287
11
117.151738
21
204.277142
0
LINE
8
Image
10
117.151738
20
204.277142
11
116.492369
21
204.137089
0
LINE
8
Image
10
116.492369
20
204.137089
11
116.280924
21
204.205477
0
LINE
8
Image
10
116.280924
20
204.205477
11
116.904430
21
205.217234
0
LINE
8
Image
10
116.904430
20
205.217234
11
118.053328
21
206.689649
0
LINE
8
Image
10
118.053328
20
206.689649
11
119.630844
21
208.396246
0
LINE
8
Image
10
119.630844
20
208.396246
11
120.304219
21
208.787503
0
LINE
8
Image
10
120.304219
20
208.787503
11
121.043214
21
208.979922
0
LINE
8
Image
10
121.043214
20
208.979922
11
121.671724
21
208.931487
0
LINE
8
Image
10
121.671724
20
208.931487
11
122.906416
21
208.203778
0
LINE
8
Image
10
122.906416
20
208.203778
11
124.431231
21
207.172455
0
LINE
8
Image
10
124.431231
20
207.172455
11
124.552702
21
206.939036
0
LINE
8
Image
10
124.552702
20
206.939036
11
124.523157
21
206.571845
0
LINE
8
Image
10
124.523157
20
206.571845
11
123.939834
21
205.141997
0
LINE
8
Image
10
123.939834
20
205.141997
11
123.213128
21
203.556926
0
LINE
8
Image
10
123.213128
20
203.556926
11
122.951606
21
203.151119
0
LINE
8
Image
10
122.951606
20
203.151119
11
122.285857
21
203.522379
0
LINE
8
Image
10
122.285857
20
203.522379
11
122.285857
21
203.522379
0
LINE
8
Image
10
154.897625
20
203.750717
11
154.302054
21
204.107084
0
LINE
8
Image
10
154.302054
20
204.107084
11
153.846959
21
204.666456
0
LINE
8
Image
10
153.846959
20
204.666456
11
153.578669
21
205.349275
0
LINE
8
Image
10
153.578669
20
205.349275
11
153.543516
21
206.075983
0
LINE
8
Image
10
153.543516
20
206.075983
11
153.794037
21
206.765914
0
LINE
8
Image
10
153.794037
20
206.765914
11
154.293596
21
207.356169
0
LINE
8
Image
10
154.293596
20
207.356169
11
154.951300
21
207.768042
0
LINE
8
Image
10
154.951300
20
207.768042
11
155.676258
21
207.922823
0
LINE
8
Image
10
155.676258
20
207.922823
11
156.415295
21
207.762612
0
LINE
8
Image
10
156.415295
20
207.762612
11
157.077457
21
207.335324
0
LINE
8
Image
10
157.077457
20
207.335324
11
157.573751
21
206.720979
0
LINE
8
Image
10
157.573751
20
206.720979
11
157.815184
21
205.999595
0
LINE
8
Image
10
157.815184
20
205.999595
11
157.713398
21
205.064289
0
LINE
8
Image
10
157.713398
20
205.064289
11
157.162302
21
204.249710
0
LINE
8
Image
10
157.162302
20
204.249710
11
156.658187
21
203.858762
0
LINE
8
Image
10
156.658187
20
203.858762
11
156.114072
21
203.645583
0
LINE
8
Image
10
156.114072
20
203.645583
11
155.527903
21
203.609719
0
LINE
8
Image
10
155.527903
20
203.609719
11
154.897625
21
203.750717
0
LINE
8
Image
10
154.897625
20
203.750717
11
154.897625
21
203.750717
 0 
ENDSEC
 0 
EOF